<svg xmlns="http://www.w3.org/2000/svg" enable-background="new 0 0 2000 2000" viewBox="0 0 2000 2000"><rect width="2000" height="2000" fill="#fff" fill-rule="evenodd" clip-rule="evenodd" display="none"/><path fill="#d5f0ff" d="M174.8,947.5c-27.1,196.1,247.2,565.7,677.4,672c430.3,106.2,824.6-22.2,880.8-286.9    c22.8-108.3-104.1-209.7-95.4-327c2.8-110.3,297.8-358.1,152.4-579.8C1644.7,204,1057,218.3,864.4,393.6    C671.7,569.1,603.9,616.9,554.5,643.8C483.3,685.8,201.8,751.6,174.8,947.5L174.8,947.5z" opacity=".5"/><path fill="#0f7c7c" fill-rule="evenodd" d="M1180.9,1676c-5.7,0-11.4,0.3-16.9,0.9c-6.4-46-45.8-81.4-93.6-81.4c-27.3,0-51.8,11.5-69,30     c0-0.9,0-1.7,0-2.6c0-88.9-72-161-161-161c-88.8,0-161,72-161,161c0,14.6,2,28.7,5.6,42.1c-88.6,3.5-159.4,76.4-159.4,165.9     c0,39,13.4,74.8,36,103.2h757.4c17.5-26.4,27.8-58,27.8-92C1346.9,1750.4,1272.5,1676,1180.9,1676L1180.9,1676z" clip-rule="evenodd"/><path fill="#16888c" fill-rule="evenodd" d="M798.9,1710.6c-5.7,0-11.3,0.2-16.9,0.8c-6.3-45.9-45.8-81.4-93.5-81.4c-27.3,0-51.8,11.6-69,30     c0-0.8,0-1.7,0-2.5c0-88.9-72-161-161-161s-161,72-161,161c0,14.5,1.9,28.6,5.6,42c-88.7,3.5-159.5,76.4-159.5,165.9     c0,24.5,5.4,47.7,14.9,68.7h796.2c6.6-18,10.2-37.3,10.2-57.5C964.9,1784.9,890.6,1710.6,798.9,1710.6L798.9,1710.6z" clip-rule="evenodd"/><path fill="#16888c" fill-rule="evenodd" d="M1756.2,1711.1c-4.9,0-9.9,0.3-14.6,0.8c-5.5-39.8-39.6-70.4-80.9-70.4c-23.6,0-44.8,9.9-59.7,26    c0-0.8,0-1.4,0-2.2c0-76.9-62.3-139.2-139.2-139.2c-62.7,0-115.8,41.5-133.1,98.6c-24.2-41.1-68.9-68.6-120-68.6    c-76.9,0-139.2,62.3-139.2,139.2c0,12.6,1.6,24.7,4.8,36.3c-76.7,3-137.9,66.1-137.9,143.4c0,21.2,4.6,41.2,12.8,59.4h271.5h417    h238c15.2-22.8,24-50.1,24-79.6C1899.7,1775.5,1835.4,1711.1,1756.2,1711.1z" clip-rule="evenodd"/><path fill="#84b2fe" fill-rule="evenodd" d="M350,567.9c91.4,0,165.9-74.5,165.9-165.9c0-91.3-74.5-165.9-165.9-165.9c-91.3,0-165.9,74.5-165.9,165.9     C184.1,493.4,258.7,567.9,350,567.9L350,567.9z" clip-rule="evenodd"/><path fill="#8dafdb" fill-rule="evenodd" d="M289.7,368.9h172c5,0,9.1,4.1,9.1,9.1v99.5c0,5-4.1,9.1-9.1,9.1H339.1l-31.8,32.3       c-2.3,2.2-4.3,1.6-4.4,0.6v-32.9h-13.2c-5,0-9.1-4.1-9.1-9.1V378C280.6,373,284.7,368.9,289.7,368.9L289.7,368.9z" clip-rule="evenodd"/><path fill="#fff" fill-rule="evenodd" d="M283.1,363.4h172c5,0,9.1,4.1,9.1,9.1V472c0,5-4.1,9.1-9.1,9.1H332.6l-31.8,32.3       c-2.3,2.2-4.3,1.6-4.4,0.6v-32.9h-13.2c-5,0-9.1-4.1-9.1-9.1v-99.5C274,367.5,278.1,363.4,283.1,363.4L283.1,363.4z" clip-rule="evenodd"/><path fill="#8dafdb" fill-rule="evenodd" d="M325.4,432.4c-5.6,0-10.2-4.6-10.2-10.2c0-5.6,4.6-10.2,10.2-10.2       c5.6,0,10.2,4.6,10.2,10.2C335.6,427.9,331,432.4,325.4,432.4L325.4,432.4z" clip-rule="evenodd"/><path fill="#8dafdb" fill-rule="evenodd" d="M368.4,432.4c-5.6,0-10.2-4.6-10.2-10.2c0-5.6,4.6-10.2,10.2-10.2       c5.6,0,10.2,4.6,10.2,10.2C378.6,427.9,374,432.4,368.4,432.4L368.4,432.4z" clip-rule="evenodd"/><path fill="#8dafdb" fill-rule="evenodd" d="M412.9,432.4c-5.6,0-10.2-4.6-10.2-10.2c0-5.6,4.6-10.2,10.2-10.2       c5.6,0,10.2,4.6,10.2,10.2C423.1,427.9,418.5,432.4,412.9,432.4L412.9,432.4z" clip-rule="evenodd"/><path fill="#8dafdb" fill-rule="evenodd" d="M410.3,322.3h-172c-5,0-9.1,4.1-9.1,9.1v99.5c0,5,4.1,9.1,9.1,9.1h122.5l31.8,32.3       c2.3,2.2,4.3,1.6,4.4,0.6V440h13.2c5,0,9.1-4.1,9.1-9.1v-99.5C419.4,326.3,415.3,322.3,410.3,322.3L410.3,322.3z" clip-rule="evenodd"/><path fill="#fff" fill-rule="evenodd" d="M416.9,316.8h-172c-5,0-9.1,4.1-9.1,9.1v99.5c0,5,4.1,9.1,9.1,9.1h122.5l31.8,32.3       c2.3,2.2,4.3,1.6,4.4,0.6v-32.9h13.2c5,0,9.1-4.1,9.1-9.1v-99.5C426,320.9,421.9,316.8,416.9,316.8L416.9,316.8z" clip-rule="evenodd"/><path fill="#8dafdb" fill-rule="evenodd" d="M374.6,385.8c5.6,0,10.2-4.6,10.2-10.2c0-5.6-4.6-10.2-10.2-10.2c-5.6,0-10.2,4.6-10.2,10.2       C364.4,381.3,369,385.8,374.6,385.8L374.6,385.8z" clip-rule="evenodd"/><path fill="#8dafdb" fill-rule="evenodd" d="M331.6,385.8c5.6,0,10.2-4.6,10.2-10.2c0-5.6-4.6-10.2-10.2-10.2c-5.6,0-10.2,4.6-10.2,10.2       C321.4,381.3,326,385.8,331.6,385.8L331.6,385.8z" clip-rule="evenodd"/><path fill="#8dafdb" fill-rule="evenodd" d="M287.1,385.8c5.6,0,10.2-4.6,10.2-10.2c0-5.6-4.6-10.2-10.2-10.2c-5.6,0-10.2,4.6-10.2,10.2       C276.9,381.3,281.5,385.8,287.1,385.8L287.1,385.8z" clip-rule="evenodd"/><path fill="#0643a3" fill-rule="evenodd" d="M1009.6,1644.7l322.2-238.2l186.5-137.2c-8.5-10.8-20.8-17.7-35.5-17.7H536.4c-13.9,0-27,6.9-35.5,17.7     l186.5,137.2L1009.6,1644.7z" clip-rule="evenodd"/><path fill="#84b2fe" fill-rule="evenodd" d="M1009.6,894l322.2,238.2l186.5,137.2c-8.5,10.8-20.8,17.7-35.5,17.7H536.4c-13.9,0-27-6.9-35.5-17.7     l186.5-137.2L1009.6,894z" clip-rule="evenodd"/><rect width="801.6" height="807" x="608.8" y="1012.7" fill="#fff" fill-rule="evenodd" clip-rule="evenodd"/><path fill="#84b2fe" fill-rule="evenodd" d="M1518.3,1269.3c5.4,6.9,9.2,16.2,9.2,26.2v587.3c0,24.7-20,43.9-44.7,43.9H536.4     c-23.9,0-43.9-19.3-43.9-43.9v-587.3c0-10,3.1-19.3,8.5-26.2l186.5,137.2l322.2,238.2l322.2-238.2L1518.3,1269.3z" clip-rule="evenodd"/><path fill="#2c7efe" fill-rule="evenodd" d="M1009.6,1533.7l-322.2,237.4l-186.5,138c7.7,10.8,20.8,17.7,35.5,17.7h946.5c14.6,0,27.7-6.9,35.5-17.7     l-186.5-138L1009.6,1533.7z" clip-rule="evenodd"/><path fill="#2c7efe" d="M1153.5,1269.6c0,20.1-2.7,38.1-8.2,53.9c-5.5,15.8-13,29.1-22.5,40.1c-9.6,10.9-20.9,19.3-34.2,25      c-13.2,5.8-27.6,8.6-43,8.6c-10.4,0-18.5-2.7-24.4-8.2c-5.9-5.5-9.2-12.7-9.9-21.7c-14,19.9-32.4,29.9-55.1,29.9      c-9.3,0-18-1.7-25.9-5.2c-7.9-3.5-14.8-8.3-20.5-14.7c-5.8-6.3-10.2-14-13.5-23c-3.2-9-4.8-19.1-4.8-30.3      c0-15.7,2.7-30.7,8.2-45.2c5.5-14.5,12.6-27.3,21.4-38.5c8.8-11.2,18.7-20.1,29.7-26.9c11-6.8,22.2-10.2,33.6-10.2      c25.7,0,44.4,7.7,56.3,23l4.1-17.8h31.9l-27.6,120c-1.7,6.7-2.9,12.4-3.5,17.3c-0.6,4.8-0.9,9.1-0.9,12.9      c0,8.4,3.2,12.6,9.7,12.6c10,0,19.4-2.4,28.3-7.2c8.9-4.8,16.6-11.6,23.2-20.5c6.6-8.9,11.8-19.7,15.6-32.2      c3.8-12.5,5.7-26.8,5.7-42.6c0-16.2-3.1-31.2-9.3-45.1c-6.2-13.8-14.9-25.8-26-36.1c-11.1-10.2-24.5-18.2-40.1-24      c-15.6-5.8-32.9-8.6-51.9-8.6c-22,0-42.2,4.2-60.7,12.6c-18.5,8.4-34.3,19.8-47.6,34.2c-13.2,14.4-23.5,31.2-30.8,50.5      c-7.3,19.3-11,39.7-11,61.2c0,21.6,3.5,40.8,10.4,57.6c7,16.7,17.1,30.9,30.3,42.6c13.2,11.6,29.4,20.4,48.4,26.4      c19,6,40.7,9,64.8,9c30.3,0,55.4-4.6,75.3-13.8l13.1,21.9c-26,11.4-55.4,17.1-88.2,17.1c-28.1,0-53.3-3.7-75.6-11.1      c-22.3-7.4-41.3-18.1-56.8-31.9c-15.5-13.9-27.4-30.7-35.7-50.6c-8.3-19.9-12.4-42.2-12.4-67.1c0-52.4,16.7-96.2,50.1-131.4      c33.7-34.6,76-52,126.9-52c23.4,0,44.5,3.5,63.4,10.6c18.9,7.1,35,16.9,48.2,29.3c13.3,12.5,23.5,27.2,30.7,44.3      C1149.9,1231.2,1153.5,1249.7,1153.5,1269.6z M1034.4,1252.2c-9.8-14.8-25.7-22.3-47.6-22.3c-8.2,0-16,2.8-23.5,8.3      c-7.5,5.5-14.1,12.7-19.9,21.5c-5.8,8.8-10.4,18.8-13.8,29.9c-3.5,11.1-5.2,22.2-5.2,33.4c0,32.1,12.7,48.2,38.2,48.2      c6.3,0,12.5-1.4,18.6-4.2c6-2.8,11.7-6.7,16.8-11.7c5.2-5,9.8-11,13.7-18.1c4-7.1,6.9-15,8.9-23.7L1034.4,1252.2z"/><g><path fill="#0643a3" fill-rule="evenodd" d="M571.7,1347.1l-44,43.3c-34.7,24-133.1-2.9-106.8,63.7l177.3,18.9l-10.8-78.1L571.7,1347.1z" clip-rule="evenodd"/><path fill="#022459" fill-rule="evenodd" d="M596.5,1461.5l-179.8-22.4c0.6,4.3,1.8,9.3,4.1,15l177.3,18.9L596.5,1461.5z" clip-rule="evenodd"/><path fill="#fff" fill-rule="evenodd" d="M470.1,1407.8c3,0.4,5.1,3.1,4.8,6.1c-0.4,3-3.1,5.1-6.1,4.8c-3-0.4-5.1-3.1-4.8-6.1      C464.3,1409.6,467.1,1407.5,470.1,1407.8L470.1,1407.8z" clip-rule="evenodd"/><path fill="#fff" fill-rule="evenodd" d="M492.9,1406.2c3,0.4,5.1,3.1,4.8,6.1c-0.4,3-3.1,5.1-6.1,4.8c-3-0.4-5.1-3.1-4.8-6.2      C487.2,1407.9,490,1405.8,492.9,1406.2L492.9,1406.2z" clip-rule="evenodd"/><path fill="#fff" fill-rule="evenodd" d="M514.6,1403.3c3,0.4,5.1,3.1,4.8,6.1c-0.4,3-3.1,5.1-6.2,4.8c-3-0.4-5.1-3.1-4.7-6.2      C508.8,1405.1,511.5,1402.9,514.6,1403.3L514.6,1403.3z" clip-rule="evenodd"/><path fill="#2c7efe" fill-rule="evenodd" d="M710.4,1346.4l-14.7,60c-16.9,38.6-114.8,67.5-57.3,110.3l160.6-77.3l-50.2-60.8L710.4,1346.4z" clip-rule="evenodd"/><path fill="#0d4391" fill-rule="evenodd" d="M791.7,1430.7L627,1506.2c2.8,3.5,6.5,7,11.5,10.7l160.6-77.3L791.7,1430.7z" clip-rule="evenodd"/><path fill="#fff" fill-rule="evenodd" d="M655.9,1451.5c2.7-1.3,6-0.1,7.3,2.7c1.3,2.7,0.1,6-2.7,7.3c-2.8,1.3-6,0.1-7.3-2.7      C652,1456,653.2,1452.7,655.9,1451.5L655.9,1451.5z" clip-rule="evenodd"/><path fill="#fff" fill-rule="evenodd" d="M674.4,1438.1c2.8-1.3,6-0.1,7.3,2.7c1.3,2.8,0.1,6-2.7,7.3c-2.7,1.3-6,0.1-7.3-2.7      C670.5,1442.5,671.7,1439.3,674.4,1438.1L674.4,1438.1z" clip-rule="evenodd"/><path fill="#fff" fill-rule="evenodd" d="M691.3,1424.3c2.8-1.3,6-0.1,7.3,2.7c1.3,2.8,0.1,6-2.6,7.3c-2.8,1.3-6,0.1-7.3-2.7      C687.4,1428.8,688.6,1425.5,691.3,1424.3L691.3,1424.3z" clip-rule="evenodd"/><polygon fill="#022459" fill-rule="evenodd" points="635.7 1141.9 536.9 1090.1 526.7 1386.1 588.7 1391.3" clip-rule="evenodd"/><path fill="#0d4391" fill-rule="evenodd" d="M795.2,846.4l-81.6,85.7c-30.1,14.2-60.3,28.3-90.4,42.5c-122.8,65.6-110.7,85.4-68.7,174.5l140.2,250.5      l56.8-23.8c-29.1-89.4-69.9-182.8-99-272.3c77.4-76.9,260.1,2.4,216.1-192.8L795.2,846.4z" clip-rule="evenodd"/><path fill="#ffcdad" fill-rule="evenodd" d="M636.3,587.6l-23-10.9c4.2-10.9,8.4-21.6,12.7-32.5c-6.8-21.1,1.1-52.1,9.2-58.4     c15.9-11.8,48.2-4.4,42.2,19.6C673.5,535.7,648.4,548.4,636.3,587.6L636.3,587.6z" clip-rule="evenodd"/><path fill="#2c7efe" fill-rule="evenodd" d="M670.7,453.1c6.3,3.4,12.7,7,19,10.4c6.3,3.4,12.7,6.8,18.8,10.2c2.1,1.1,2.9,3.9,1.6,6     c-6.5,11-13.1,22.1-19.8,33.3c-6.7,11.4-13.5,22.7-20.3,34.4c-1.3,2.1-4.2,3.1-6.5,1.9c-6.7-3.4-13.1-6.7-19.8-10.1     c-6.7-3.2-13.3-6.7-20.1-10.1c-2.3-1.3-3.1-4.1-1.8-6.3c7.3-11.5,14.4-23.2,21.6-34.6c7-11.4,14-22.6,20.8-33.6     C665.6,452.6,668.5,451.8,670.7,453.1L670.7,453.1z" clip-rule="evenodd"/><linearGradient id="a" x1="-837.452" x2="-656.451" y1="635.093" y2="635.093" gradientTransform="matrix(-1 0 0 1 -72.113 0)" gradientUnits="userSpaceOnUse"><stop offset="0" stop-color="#8183f1"/><stop offset=".216" stop-color="#8988f2"/><stop offset=".548" stop-color="#9e97f4"/><stop offset=".954" stop-color="#c2aff8"/><stop offset="1" stop-color="#c6b2f9"/></linearGradient><path fill="url(#a)" fill-rule="evenodd" d="M765.3,705.1l-3.1-108.5L636,649.9l16.2-93.5l-33.6-7.8l-32.9,123.5c-7.3,45.1,14.9,53.5,49.2,47.7     L765.3,705.1z" clip-rule="evenodd"/><path fill="#8183f1" fill-rule="evenodd" d="M784.2,566.7l-45.6,24.5c-11.5,12.5-28.9,24.5-26.9,58.6v282.3l157-21.2c-20.6-103.5,4.7-296.2-21.2-312.2     C831.6,588.9,806.7,573.8,784.2,566.7L784.2,566.7z" clip-rule="evenodd"/><path fill="#f8a780" fill-rule="evenodd" d="M726.1,567.8l42.3-27.4l20.1,31.2c-15.9,10.4-27.9,78.2-47.5,31.2L726.1,567.8z" clip-rule="evenodd"/><path fill="#ffcdad" fill-rule="evenodd" d="M768.1,444.8l-111.8,23.9c3.2,46.6,40.1,126.1,68.8,113.4C786.6,549.2,786.6,522.6,768.1,444.8L768.1,444.8     z" clip-rule="evenodd"/><path fill="#060352" fill-rule="evenodd" d="M684.6,553.7c-1.3-15.3,41-10.9,49-24l18.5-75.3c-0.6,52.4,24.5,75.9,6.8,104.7c-8.3,8-19.3,15.3-33.7,23     C712,588,697.2,574.5,684.6,553.7L684.6,553.7z" clip-rule="evenodd"/><path fill="#fff" fill-rule="evenodd" d="M739.1,532.6c0.8,1.6,1.5,3.4,1.9,5.2c3.4,13.8-5,27.9-18.8,31.3c-7,1.6-13.8,0.5-19.5-2.9     C725,559.7,740.5,545.4,739.1,532.6L739.1,532.6z" clip-rule="evenodd"/><path fill="#060352" fill-rule="evenodd" d="M745.7,465.5l-88.3,13.6c-15.9,6.5-55.2-23.5-32.8-63.1c24.5-33.3,69.8,4.2,123.6-1.1     c45.1,6.3,52.1,55.2,30.5,100.6C752.5,520.8,762.4,462.7,745.7,465.5L745.7,465.5z" clip-rule="evenodd"/><path fill="#ffcdad" fill-rule="evenodd" d="M758.5,502.1c-1.5-7.8-2.9-15.6-4.2-23.4c-1.6-19.3,14.6-20.8,16.5-6.2     C772.7,492.4,765.4,491.1,758.5,502.1L758.5,502.1z" clip-rule="evenodd"/><path fill="#ffcdad" fill-rule="evenodd" d="M677.2,854.5l-26.4-4.1c-15.6-0.6-31-1.3-46.6-1.9c-29.9-2.9,0,7.3,20.1,15.4     c-9.7,25.6-46.9,45.1-42.8,63.6c5.8,15.6,36.2-5,42-9.7c29.5-21.7,29.2-28.9,39.4-51.1L677.2,854.5z" clip-rule="evenodd"/><linearGradient id="b" x1="-928.331" x2="-709.761" y1="729.783" y2="729.783" gradientTransform="matrix(-1 0 0 1 -72.113 0)" gradientUnits="userSpaceOnUse"><stop offset="0" stop-color="#8183f1"/><stop offset=".216" stop-color="#8988f2"/><stop offset=".548" stop-color="#9e97f4"/><stop offset=".954" stop-color="#c2aff8"/><stop offset="1" stop-color="#c6b2f9"/></linearGradient><path fill="url(#b)" fill-rule="evenodd" d="M781.7,634.7c21.6-74.3,81.4-48.8,73.8-1.9l-26.1,98.6c-6.7,16.9-13.5,25.6-25,34.7L663.8,871.7l-26.1-27.6     L771,722.3C774.7,694.6,777.2,663.1,781.7,634.7L781.7,634.7z" clip-rule="evenodd"/></g><g><linearGradient id="c" x1="2840.345" x2="3424.226" y1="366.303" y2="366.303" gradientTransform="matrix(-1 0 0 1 4490.488 0)" gradientUnits="userSpaceOnUse"><stop offset="0" stop-color="#dd4a71"/><stop offset="1" stop-color="#ea718b"/></linearGradient><path fill="url(#c)" d="M1358.2,658.5c-160.8,0-291.9-131.3-291.9-292.3c0-160.9,131.1-292.2,291.9-292.2     c160.8,0,291.9,131.3,291.9,292.2C1650.1,527.2,1519,658.5,1358.2,658.5L1358.2,658.5z"/><linearGradient id="d" x1="3331.481" x2="3474.96" y1="648.473" y2="648.473" gradientTransform="matrix(-1 0 0 1 4490.488 0)" gradientUnits="userSpaceOnUse"><stop offset="0" stop-color="#dd4a71"/><stop offset="1" stop-color="#ea718b"/></linearGradient><path fill="url(#d)" d="M1087.3,709c-39.5,0-71.8-27.2-71.8-60.6c0-33.4,32.2-60.6,71.8-60.6c39.5,0,71.7,27.2,71.7,60.6     C1159,681.8,1126.8,709,1087.3,709L1087.3,709z"/><linearGradient id="e" x1="3470.832" x2="3547.323" y1="738.482" y2="738.482" gradientTransform="matrix(-1 0 0 1 4490.488 0)" gradientUnits="userSpaceOnUse"><stop offset="0" stop-color="#dd4a71"/><stop offset="1" stop-color="#ea718b"/></linearGradient><path fill="url(#e)" d="M981.4,768.8c-21.1,0-38.2-13.6-38.2-30.3c0-16.7,17.1-30.3,38.2-30.3c21,0,38.2,13.6,38.2,30.3     C1019.7,755.1,1002.5,768.8,981.4,768.8L981.4,768.8z"/><path fill="#fff" fill-rule="evenodd" d="M1486.2,183.9c-19.5-16.2-76.5,0-101,25.6l-8,66.7c6.4,31.1,26.1,38,44.9,46.5l-81.5,118.2     c-11.5-13.3-34-30.2-53.7-28.8l-65.4,29.2c-23.4,32.4-7,94.6,10.4,108.1C1338.4,583.1,1577.3,347.4,1486.2,183.9L1486.2,183.9z" clip-rule="evenodd"/></g><g><path fill="#65b646" fill-rule="evenodd" d="M1689.3,1770c-0.1,0.2-0.1,0.5-0.2,0.7c-0.1,0.4-0.2,0.7-0.3,1.1c0,0,0,0,0,0c-0.1,0.2-0.1,0.4-0.2,0.5     c-0.1,0.4-0.3,0.7-0.4,1c-0.1,0.2-0.1,0.3-0.2,0.5c-0.1,0.2-0.2,0.4-0.3,0.6c-0.1,0.3-0.3,0.5-0.4,0.7c-0.1,0.2-0.3,0.5-0.4,0.7     c-0.1,0.2-0.3,0.5-0.4,0.7c-0.1,0.2-0.3,0.4-0.4,0.6c-0.6,0.9-1.3,1.7-2.1,2.5c-0.1,0.1-0.2,0.2-0.2,0.3c0,0-0.1,0.1-0.1,0.1     c-0.1,0.1-0.3,0.3-0.4,0.4c-0.8,0.8-1.6,1.5-2.5,2.2c-0.9,0.7-1.8,1.3-2.7,1.9c0,0,0,0,0,0c-0.4,0.3-0.8,0.5-1.2,0.7     c-0.4,0.2-0.8,0.5-1.2,0.7c0,0,0,0,0,0c-3.4,1.9-7.2,3.5-10.8,4.8c-0.7,0.3-1.4,0.5-2.2,0.8c-0.4,0.1-0.7,0.2-1.1,0.4     c-0.7,0.2-1.4,0.5-2.1,0.7c-2.6,0.9-4.9,1.6-7,2.4c-0.4,0.2-0.8,0.3-1.2,0.5c-0.1,0.1-0.3,0.1-0.4,0.2c-0.2,0.1-0.5,0.2-0.7,0.3     c-0.2,0.1-0.5,0.2-0.7,0.3c-0.2,0.1-0.4,0.2-0.6,0.3c-0.3,0.2-0.6,0.3-0.9,0.5c-0.5,0.3-1,0.7-1.4,1c-0.1,0.1-0.2,0.2-0.3,0.3     c-0.6,0.7-0.9,1.4-0.8,2.2c2.9,10.4,38.2-2.2,33.5,19.9c-13.5,23.6-74.1,0-76.7,8.2c-2.3,5.9,31.5,17.6,17.6,28.1     c-20.2,15.2-66-15.6-73.7-6.9c-19.5,19.9,42.2,28.5,21.8,42.9c-14.4,11.1-48.3-0.9-59.6,6.5c-5.1,3.8,21.4,8.9,13.7,19.9     c-5.9,6.8-15.4,12.3-25.1,18.2h-59.3c-0.9-1.2-1.9-2.5-2.9-3.8c0.5-2.9,0.8-5.9,1-9c1.6-21.4-1-48.5,4.3-64.9     c1.8-5.5,4.4-9.8,8.4-12.3c1.4-0.7,2.7-1,3.9-1c5-0.1,7.6,5.7,9.5,12c2.7,9,4,19.2,8.5,16.4c2-0.9,3.5-2.4,4.6-4.4     c4.3-7.9,2.2-23.7,1.8-37.8c-0.3-8.4,0.1-16.3,2.8-21.6c1.9-3.7,4.9-6.1,9.6-6.7c2.8-0.2,5,0,6.9,0.6c10.5,3.4,7.8,18,9.1,26.3     c0.6,3.6,1.9,6,5.4,5.8c0,0,0.1,0,0.2,0c12.6-5.4,4.5-25.9,4.6-41.2c0-6.8,1.8-12.6,7.7-15.5c2.2-1.1,4.1-1.8,5.8-2.1     c14.7-2.5,10.9,24.3,23.6,22.6c11.3,1.4,2.4-62.3,41.6-58.4c38,9.9-9.1,33.2,3.6,44.7c11.6,6.5,74.1-66.3,90.4-33.6     C1690.3,1760.1,1690.5,1765.5,1689.3,1770z" clip-rule="evenodd"/><path fill="#65b646" fill-rule="evenodd" d="M1497.6,1769.1c1.7,5.7,32.6-4.6,31.6,9c0,0.7-0.2,1.4-0.4,2.2c-1.7,6.4-6.7,11.4-13.2,15.5     c-5.7,3.6-12.5,6.5-19.3,9.1c-5.8,2.2-11.6,4.2-16.5,6.1c-7.6,3-13.1,5.9-13.3,9.5c-1,8.8,3.8,11.6,10.5,12.2     c8.9,0.7,21.4-2.6,28.4-1.4c3.4,0.6,5.5,2.2,5.4,5.8c0,1-0.2,2.3-0.6,3.7c-3.3,13.1-23,22.9-34.7,32.3c-4,3.2-7,6.4-8.1,9.6     c-0.7,2.6,3.1,1.9,7.9,1.2c6.5-0.9,14.8-1.8,15.2,5.9c0,0.3,0,0.6-0.1,0.9c-1,13.8-10.2,30.2-14.2,46.9h-57.2     c-9.5-12.7-20.6-25.7-26.8-37.5c-1.9-3.5-3.3-6.9-4.1-10.2c-1-4-1.1-7.7,0.1-11.1c6-12.6,21.1,4.6,29.2,8.8     c2.4,1.2,4.2,1.3,4.9-0.8c9.6-17.4-47.2-48.7-28.8-67.1c6.4-5.8,11.6-5.2,16-2.2c4,2.7,7.4,7.2,10.6,10.8c3.7,4.2,7.1,7,10.5,3.8     c3.4-6.3-0.1-12.3-5.5-18.3c-3.1-3.4-6.9-6.9-10.4-10.3c-7.4-7.4-13.5-15.1-9.4-23.6c1.5-3.2,3.1-5.4,4.8-6.6     c9.8-7.4,22.5,13.3,31.1,4.6c9.7-5.9-36.6-50.5-3.4-71.6c36-15.7,13.4,31.7,30.4,32.9c13.2-2.1,17.3-97.9,50.3-82.2     c1.1,0.8,2.2,1.6,3.2,2.4c0.9,0.8,1.8,1.6,2.6,2.4c0.1,0.1,0.3,0.3,0.4,0.4c0.6,0.6,1.1,1.2,1.6,1.8c0.2,0.2,0.3,0.4,0.5,0.6     c0.2,0.2,0.3,0.4,0.5,0.7c0,0,0,0,0,0c0.1,0.2,0.3,0.4,0.4,0.6c0,0,0.1,0.1,0.1,0.1c0.1,0.2,0.3,0.4,0.4,0.6     c0.1,0.2,0.2,0.4,0.3,0.5c0.2,0.3,0.3,0.5,0.4,0.8c0.1,0.2,0.2,0.4,0.3,0.6c0.2,0.5,0.5,1,0.7,1.5c0.1,0.2,0.2,0.4,0.2,0.6     c0.1,0.2,0.1,0.4,0.2,0.5c0.1,0.3,0.2,0.5,0.3,0.8c0.1,0.2,0.1,0.4,0.2,0.7c0,0,0,0,0,0c0.1,0.2,0.1,0.4,0.1,0.6     c0,0.2,0.1,0.5,0.1,0.7c0,0,0,0,0,0c0,0.2,0.1,0.4,0.1,0.7c0,0,0,0,0,0c0,0.2,0.1,0.4,0.1,0.7c0,0.2,0,0.4,0.1,0.6     c0,0,0,0.1,0,0.2c0,0.2,0,0.4,0,0.6c0,0.2,0,0.3,0,0.5c0.1,1.9-0.1,3.8-0.4,5.6c-0.4,2.3-1.1,4.7-2,6.9c-0.2,0.4-0.3,0.8-0.5,1.2     c0,0,0,0,0,0c-0.2,0.4-0.4,0.8-0.5,1.2c0,0,0,0,0,0c-0.4,0.8-0.8,1.6-1.2,2.4c0,0,0,0,0,0c-0.3,0.6-0.6,1.2-0.9,1.8     c-0.2,0.4-0.4,0.8-0.7,1.2c0,0,0,0,0,0c-2.8,5-6.1,9.6-8.5,13.4c0,0,0,0,0,0c-0.6,1-1.2,2-1.7,2.9c0,0,0,0,0,0     c-0.2,0.4-0.4,0.8-0.6,1.1c-0.1,0.2-0.2,0.5-0.3,0.7c-0.1,0.2-0.2,0.5-0.3,0.7c0,0,0,0,0,0c0,0.1-0.1,0.3-0.1,0.4     c-0.3,1.1-0.4,2.1-0.1,2.9c0.1,0.2,0.1,0.3,0.2,0.5c0.1,0.1,0.2,0.3,0.3,0.4c8.7,6.4,28.6-25.3,38.6-5.1     C1556.7,1742.1,1494.5,1761,1497.6,1769.1z" clip-rule="evenodd"/><path fill="#65b646" fill-rule="evenodd" d="M1475.3,1883.7c-1,9.7-3.8,20.8-6.5,31.9c-1.8,7.4-3.6,14.9-4.8,21.8h-60.2c-8.7-9-17.8-17.3-22.2-26.2     c-2.6-6.9,4.4-9.5,10.5-11.3c5-1.5,9.4-2.4,7.6-4.6c-2.4-2.6-6.6-4.3-11.7-5.6c-14.5-3.8-36.2-4.7-44.5-15.3     c-16.2-18.9,45.7-12.2,31.6-36.2c-5.3-10.4-57.3,8.4-73.1-11.3c-10.9-13.5,24.7-16.7,24-22.9c-0.5-8.6-65-0.5-72.4-26.7     c0.9-22.6,32-1.7,37.4-11.1c0.5-1.3-0.1-2.6-1.5-4c-0.1-0.1-0.1-0.1-0.2-0.2c-1.1-1.1-2.7-2.3-4.6-3.5c-0.2-0.1-0.4-0.3-0.7-0.5     c-0.4-0.3-0.9-0.6-1.4-0.9c0,0,0,0,0,0c-0.2-0.1-0.4-0.2-0.5-0.4c-0.3-0.2-0.7-0.4-1-0.7c-0.2-0.1-0.4-0.3-0.7-0.4     c-0.1-0.1-0.3-0.2-0.4-0.2c-0.3-0.2-0.5-0.3-0.8-0.5c-0.8-0.5-1.6-1-2.4-1.6c-0.3-0.2-0.5-0.4-0.8-0.5c-0.3-0.2-0.5-0.4-0.8-0.6     c-0.3-0.2-0.5-0.4-0.8-0.6c-3.4-2.3-6.9-5-9.9-8c-0.4-0.4-0.7-0.7-1-1.1c-0.5-0.5-0.9-1-1.3-1.5c-0.5-0.6-1-1.3-1.5-2     c-0.2-0.3-0.4-0.5-0.6-0.8c-0.2-0.3-0.4-0.6-0.5-0.8c0,0,0,0,0,0c-0.1-0.2-0.2-0.4-0.4-0.6c-0.1-0.2-0.2-0.4-0.3-0.6     c-0.1-0.1-0.1-0.2-0.2-0.4l-0.1-0.2c0,0,0,0,0-0.1c0,0,0-0.1-0.1-0.2c-0.1-0.2-0.2-0.3-0.2-0.5l0,0c0-0.1-0.1-0.2-0.1-0.2     c-0.1-0.2-0.2-0.5-0.3-0.7c-0.2-0.5-0.4-0.9-0.5-1.4c0,0,0,0,0-0.1c-0.1-0.2-0.2-0.5-0.2-0.7c-0.1-0.3-0.2-0.7-0.3-1     c-0.1-0.3-0.1-0.5-0.2-0.8c0-0.1,0-0.2-0.1-0.2c-0.1-0.3-0.1-0.6-0.2-0.9c0,0,0-0.1,0-0.1c-0.8-5.4,0.4-11.7,4.8-18.9     c23.8-27.7,66.6,58.1,79.4,54.6c15.1-8-24.9-42.1,14.4-42.4c39,5.7,14.8,65.3,26.1,66.7c12.2,4.9,14.9-23.2,29.2-15.8     c1.4,0.7,2.8,1.7,4.4,3.1c7.6,6.4,4.4,16.7,0.3,27.1c-1.9,4.8-3.9,9.6-5.2,14c-2,6.8-2.1,12.9,3,16.8c4,1.4,6-1.6,7.5-6     c1.5-4.3,2.7-10,5-14.5c2.8-5.4,7.4-8.9,16.3-5.9c16.5,6.3,3.8,32.2-1.1,51.9c-2.3,9.3-2.9,17.3,2.2,21.1c1.9,2,3.8,0.4,5.9-2.8     c3.8-5.7,8.1-16.4,13.7-19.6c2.5-1.5,5.3-1.4,8.3,1.2c2.6,2.8,4.1,6.5,4.8,10.8c0.1,0.8,0.2,1.7,0.3,2.5     C1475.8,1876.2,1475.7,1879.8,1475.3,1883.7z" clip-rule="evenodd"/><path fill="#97cb69" fill-rule="evenodd" d="M1689.1,1770.8c-0.1,0.4-0.2,0.7-0.3,1.1c0,0,0,0,0,0c-0.1,0.2-0.1,0.4-0.2,0.5c-0.1,0.4-0.3,0.7-0.4,1     c-0.1,0.2-0.1,0.3-0.2,0.5c-0.1,0.2-0.2,0.4-0.3,0.6c-0.1,0.3-0.3,0.5-0.4,0.7c-0.1,0.2-0.3,0.5-0.4,0.7     c-0.1,0.2-0.3,0.5-0.4,0.7c-0.1,0.2-0.3,0.4-0.4,0.6c-0.6,0.9-1.3,1.7-2.1,2.5c-0.1,0.1-0.3,0.3-0.4,0.4     c-0.1,0.1-0.3,0.3-0.4,0.4c-0.8,0.8-1.6,1.5-2.5,2.2c-0.9,0.7-1.8,1.3-2.7,1.9c0,0,0,0,0,0c-0.4,0.3-0.8,0.5-1.2,0.7     c-0.4,0.2-0.8,0.5-1.2,0.7c0,0,0,0,0,0c-3.4,1.9-7.2,3.5-10.8,4.8c-0.7,0.3-1.4,0.5-2.2,0.8c-0.4,0.1-0.7,0.2-1.1,0.4     c-0.7,0.2-1.4,0.5-2.1,0.7c-2.6,0.9-4.9,1.6-7,2.4c-0.4,0.2-0.8,0.3-1.2,0.5c-0.1,0.1-0.3,0.1-0.4,0.2c-0.2,0.1-0.5,0.2-0.7,0.3     c-0.2,0.1-0.5,0.2-0.7,0.3c-0.2,0.1-0.4,0.2-0.6,0.3c-0.3,0.2-0.6,0.3-0.9,0.5c-0.5,0.3-1,0.7-1.4,1c-0.1,0.1-0.2,0.2-0.3,0.3     c-0.6,0.7-0.9,1.4-0.8,2.2c2.9,10.4,38.2-2.2,33.5,19.9c-13.5,23.6-74.1,0-76.7,8.2c-2.3,5.9,31.5,17.6,17.6,28.1     c-20.2,15.2-66-15.6-73.7-6.9c-19.5,19.9,42.2,28.5,21.8,42.9c-14.4,11.1-48.3-0.9-59.6,6.5c-5.1,3.8,21.4,8.9,13.7,19.9     c-5.9,6.8-15.4,12.3-25.1,18.2h-44.6c4.9-7.2,10.3-14.5,16.2-21.8c6.6-8.3,13.8-16.7,21.6-25.1c16.6-17.9,35.7-35.8,56.9-52.8     c49.1-39.6,99.9-67.4,142.1-80.3C1690.4,1762.6,1690.2,1767,1689.1,1770.8z" clip-rule="evenodd"/><path fill="#97cb69" fill-rule="evenodd" d="M1497.6,1769.1c1.7,5.7,32.6-4.6,31.6,9c0,0.7-0.2,1.4-0.4,2.2c-1.7,6.4-6.7,11.4-13.2,15.5     c-5.7,3.6-12.5,6.5-19.3,9.1c-5.8,2.2-11.6,4.2-16.5,6.1c-7.6,3-13.1,5.9-13.3,9.5c-1,8.8,3.8,11.6,10.5,12.2     c8.9,0.7,21.4-2.6,28.4-1.4c3.4,0.6,5.5,2.2,5.4,5.8c0,1-0.2,2.3-0.6,3.7c-3.3,13.1-23,22.9-34.7,32.3c-4,3.2-7,6.4-8.1,9.6     c-0.7,2.6,3.1,1.9,7.9,1.2c6.5-0.9,14.8-1.8,15.2,5.9c0,0.3,0,0.6-0.1,0.9c-1,13.8-10.2,30.2-14.2,46.9h-29.8     c-0.7-18.4-0.1-38.4,2.1-59.5c1-10.3,2.4-20.9,4.2-31.7c1.9-11.8,4.3-23.9,7.1-36.1c14.1-61.5,36.8-114.7,62.1-150.9     c0.9,0.8,1.8,1.6,2.6,2.4c0.1,0.1,0.3,0.3,0.4,0.4c0.6,0.6,1.1,1.2,1.6,1.8c0.2,0.2,0.3,0.4,0.5,0.6c0.2,0.2,0.3,0.4,0.5,0.7     c0,0,0,0,0,0c0.1,0.2,0.3,0.4,0.4,0.6c0,0,0.1,0.1,0.1,0.1c0.1,0.2,0.3,0.4,0.4,0.6c0.1,0.2,0.2,0.4,0.3,0.5     c0.2,0.3,0.3,0.5,0.4,0.8c0.1,0.2,0.2,0.4,0.3,0.6c0.2,0.5,0.5,1,0.7,1.5c0.1,0.2,0.2,0.4,0.2,0.6c0.1,0.2,0.1,0.4,0.2,0.5     c0.1,0.3,0.2,0.5,0.3,0.8c0.1,0.2,0.1,0.4,0.2,0.7c0,0,0,0,0,0c0.1,0.2,0.1,0.4,0.1,0.6c0,0.2,0.1,0.5,0.1,0.7c0,0,0,0,0,0     c0,0.2,0.1,0.4,0.1,0.7c0,0,0,0,0,0c0,0.2,0.1,0.4,0.1,0.7c0,0.2,0,0.4,0.1,0.6c0,0,0,0.1,0,0.2c0,0.2,0,0.4,0,0.6     c0,0.2,0,0.3,0,0.5c0.1,1.9-0.1,3.8-0.4,5.6c-0.4,2.3-1.1,4.7-2,6.9c-0.2,0.4-0.3,0.8-0.5,1.2c0,0,0,0,0,0     c-0.2,0.4-0.4,0.8-0.5,1.2c0,0,0,0,0,0c-0.4,0.8-0.8,1.6-1.2,2.4c0,0,0,0,0,0c-0.3,0.6-0.6,1.2-0.9,1.8c-0.2,0.4-0.4,0.8-0.7,1.2     c0,0,0,0,0,0c-2.9,5-6.1,9.6-8.5,13.4c0,0,0,0,0,0c-0.6,1-1.2,2-1.7,2.9c0,0,0,0,0,0c-0.2,0.4-0.4,0.8-0.6,1.1     c-0.1,0.2-0.2,0.5-0.3,0.7c-0.1,0.2-0.2,0.5-0.3,0.7c0,0,0,0,0,0c0,0.1-0.1,0.3-0.1,0.4c-0.3,1.1-0.4,2.1-0.1,2.9     c0.1,0.2,0.1,0.3,0.2,0.5c0.1,0.1,0.2,0.3,0.3,0.4c8.7,6.4,28.6-25.3,38.6-5.1C1556.7,1742.1,1494.5,1761,1497.6,1769.1z" clip-rule="evenodd"/><path fill="#97cb69" fill-rule="evenodd" d="M1441.4,1937.4h-37.7c-8.7-9-17.8-17.3-22.2-26.2c-2.6-6.9,4.4-9.5,10.5-11.3c5-1.5,9.4-2.4,7.6-4.6     c-2.4-2.6-6.6-4.3-11.7-5.6c-14.5-3.8-36.2-4.7-44.5-15.3c-16.2-18.9,45.7-12.2,31.6-36.2c-5.3-10.4-57.3,8.4-73.1-11.3     c-10.9-13.5,24.7-16.7,24-22.9c-0.5-8.6-65-0.5-72.4-26.7c0.9-22.6,32-1.7,37.4-11.1c0.5-1.3-0.1-2.6-1.5-4     c-0.1-0.1-0.1-0.1-0.2-0.2c-1.1-1.1-2.7-2.3-4.6-3.5c-0.2-0.1-0.4-0.3-0.7-0.5c-0.4-0.3-0.9-0.6-1.4-0.9c0,0,0,0,0,0     c-0.2-0.1-0.4-0.2-0.5-0.4c-0.3-0.2-0.7-0.4-1-0.7c-0.2-0.1-0.4-0.3-0.7-0.4c-0.1-0.1-0.3-0.2-0.4-0.2c-0.3-0.2-0.5-0.3-0.8-0.5     c-0.8-0.5-1.6-1-2.4-1.6c-0.3-0.2-0.5-0.4-0.8-0.5c-0.3-0.2-0.5-0.4-0.8-0.6c-0.3-0.2-0.5-0.4-0.8-0.6c-3.4-2.3-6.9-5-9.9-8     c-0.4-0.4-0.7-0.7-1-1.1c-0.5-0.5-0.9-1-1.3-1.5c-0.5-0.6-1-1.3-1.5-2c-0.2-0.3-0.4-0.5-0.6-0.8c-0.2-0.3-0.4-0.6-0.5-0.8     c0,0,0,0,0,0c-0.1-0.2-0.2-0.4-0.4-0.6c-0.1-0.2-0.2-0.4-0.3-0.6c-0.1-0.1-0.1-0.2-0.2-0.4l-0.1-0.2c0-0.1-0.1-0.2-0.1-0.2     c-0.1-0.2-0.2-0.3-0.2-0.5c0-0.1-0.1-0.2-0.1-0.2c-0.1-0.2-0.2-0.5-0.3-0.7c-0.2-0.5-0.4-0.9-0.5-1.4c0,0,0,0,0-0.1     c-0.1-0.2-0.2-0.5-0.2-0.7c-1.6-5.3-1.3-11.4,2.2-18.5c37.8,22.8,80.3,62.1,118.2,112.5c15.4,20.4,28.8,41.1,40.1,61.3     c7.1,12.6,13.3,25.1,18.6,37.1C1437.9,1928.8,1439.7,1933.1,1441.4,1937.4z" clip-rule="evenodd"/></g><g><path fill="#65b646" fill-rule="evenodd" d="M787.7,1739.2c-0.1,0.3-0.1,0.5-0.2,0.8c-0.1,0.4-0.3,0.8-0.4,1.2c0,0,0,0,0,0.1c-0.1,0.2-0.1,0.4-0.2,0.6     c-0.2,0.4-0.3,0.8-0.5,1.2c-0.1,0.2-0.2,0.4-0.2,0.5c-0.1,0.2-0.2,0.5-0.3,0.7c-0.1,0.3-0.3,0.6-0.5,0.8     c-0.2,0.3-0.3,0.5-0.5,0.8c-0.2,0.3-0.3,0.5-0.5,0.8c-0.2,0.2-0.3,0.4-0.5,0.7c-0.7,1-1.5,1.9-2.3,2.8c-0.1,0.1-0.2,0.2-0.3,0.3     c-0.1,0.1-0.1,0.1-0.2,0.2c-0.1,0.1-0.3,0.3-0.4,0.4c-0.9,0.9-1.8,1.7-2.8,2.4c-1,0.8-2,1.5-3.1,2.2c0,0,0,0,0,0     c-0.4,0.3-0.9,0.6-1.3,0.8c-0.5,0.3-0.9,0.5-1.4,0.8c0,0,0,0,0,0c-3.9,2.2-8.1,3.9-12.2,5.4c-0.8,0.3-1.6,0.6-2.4,0.9     c-0.4,0.1-0.8,0.3-1.2,0.4c-0.8,0.3-1.6,0.5-2.3,0.8c-2.9,1-5.6,1.8-7.9,2.7c-0.5,0.2-0.9,0.4-1.3,0.5c-0.1,0.1-0.3,0.1-0.4,0.2     c-0.3,0.1-0.6,0.2-0.8,0.4c-0.3,0.1-0.5,0.2-0.8,0.4c-0.3,0.1-0.5,0.2-0.7,0.4c-0.3,0.2-0.7,0.4-1,0.6c-0.6,0.4-1.1,0.8-1.5,1.2     c-0.1,0.1-0.3,0.3-0.4,0.4c-0.7,0.8-1,1.6-0.9,2.5c3.3,11.8,43.1-2.5,37.8,22.4c-15.3,26.7-83.6,0-86.5,9.3     c-2.6,6.6,35.5,19.9,19.9,31.7c-22.8,17.2-74.5-17.6-83.2-7.8c-22,22.4,47.6,32.2,24.6,48.4c-16.2,12.6-54.5-1-67.2,7.3     c-5.8,4.2,24.2,10,15.5,22.4c-6.7,7.7-17.4,13.9-28.4,20.5H504c-1.1-1.4-2.2-2.8-3.3-4.3c0.5-3.2,0.9-6.6,1.1-10.2     c1.8-24.2-1.1-54.7,4.9-73.3c2-6.2,5-11,9.5-13.9c1.6-0.8,3.1-1.2,4.4-1.2c5.6-0.1,8.6,6.4,10.8,13.6c3.1,10.1,4.5,21.7,9.6,18.5     c2.3-1,4-2.7,5.2-4.9c4.9-9,2.4-26.7,2-42.6c-0.3-9.5,0.1-18.4,3.2-24.4c2.1-4.2,5.5-6.9,10.8-7.6c3.1-0.2,5.7,0,7.7,0.7     c11.8,3.8,8.8,20.3,10.3,29.7c0.7,4.1,2.2,6.8,6.1,6.5c0.1,0,0.1,0,0.2,0c14.3-6.1,5-29.2,5.2-46.4c0.1-7.7,2-14.2,8.7-17.5     c2.5-1.3,4.7-2,6.5-2.4c16.6-2.9,12.3,27.4,26.7,25.6c12.8,1.6,2.7-70.3,46.9-65.9c42.9,11.2-10.2,37.5,4.1,50.4     c13.1,7.3,83.6-74.8,102-37.9C788.8,1727.9,789,1734.1,787.7,1739.2z" clip-rule="evenodd"/><path fill="#65b646" fill-rule="evenodd" d="M571.3,1738.1c1.9,6.5,36.7-5.1,35.6,10.2c-0.1,0.7-0.2,1.6-0.4,2.4c-1.9,7.2-7.5,12.8-14.8,17.4     c-6.4,4.1-14.2,7.4-21.8,10.2c-6.6,2.5-13.1,4.7-18.6,6.9c-8.6,3.4-14.8,6.6-15,10.7c-1.1,9.9,4.2,13.1,11.8,13.7     c10.1,0.8,24.1-2.9,32.1-1.6c3.8,0.6,6.2,2.5,6.1,6.5c0,1.2-0.3,2.5-0.7,4.1c-3.7,14.8-26,25.8-39.1,36.4     c-4.5,3.6-7.9,7.2-9.2,10.9c-0.8,2.9,3.5,2.1,8.9,1.4c7.4-1,16.6-2,17.1,6.7c0,0.3,0,0.7-0.1,1c-1.1,15.6-11.5,34.1-16.1,52.9     h-64.6c-10.8-14.3-23.3-29-30.3-42.3c-2.1-4-3.7-7.8-4.6-11.5c-1.1-4.5-1.2-8.7,0.2-12.5c6.8-14.3,23.8,5.1,33,9.9     c2.7,1.4,4.7,1.5,5.6-0.9c10.9-19.6-53.3-54.9-32.5-75.7c7.2-6.6,13-5.9,18.1-2.5c4.5,3,8.4,8.2,11.9,12.2     c4.2,4.8,8,7.9,11.9,4.2c3.8-7.1-0.1-13.8-6.2-20.6c-3.5-3.9-7.8-7.7-11.7-11.7c-8.4-8.4-15.3-17-10.7-26.6     c1.7-3.7,3.5-6,5.4-7.5c11.1-8.4,25.4,15,35.1,5.2c11-6.7-41.3-57-3.8-80.8c40.6-17.7,15.1,35.8,34.4,37.1     c14.9-2.4,19.6-110.4,56.8-92.8c1.3,0.9,2.5,1.8,3.6,2.7c1.1,0.9,2,1.8,2.9,2.7c0.2,0.2,0.3,0.3,0.5,0.5c0.6,0.7,1.2,1.4,1.8,2.1     c0.2,0.2,0.4,0.5,0.5,0.7c0.2,0.2,0.4,0.5,0.5,0.7c0,0,0,0,0,0c0.2,0.2,0.3,0.4,0.4,0.6c0,0.1,0.1,0.1,0.1,0.2     c0.2,0.2,0.3,0.5,0.4,0.7c0.1,0.2,0.2,0.4,0.4,0.6c0.2,0.3,0.3,0.6,0.5,0.9c0.1,0.2,0.2,0.5,0.4,0.7c0.3,0.6,0.5,1.1,0.7,1.7     c0.1,0.2,0.2,0.4,0.3,0.7c0.1,0.2,0.1,0.4,0.2,0.6c0.1,0.3,0.2,0.6,0.3,0.9c0.1,0.3,0.1,0.5,0.2,0.8c0,0,0,0,0,0.1     c0.1,0.2,0.1,0.5,0.2,0.7c0.1,0.3,0.1,0.5,0.2,0.8c0,0,0,0,0,0c0,0.3,0.1,0.5,0.1,0.7c0,0,0,0,0,0c0,0.3,0.1,0.5,0.1,0.7     c0,0.2,0.1,0.5,0.1,0.7c0,0.1,0,0.1,0,0.2c0,0.2,0,0.5,0.1,0.7c0,0.2,0,0.4,0,0.5c0.1,2.1-0.1,4.2-0.5,6.3     c-0.5,2.6-1.3,5.3-2.3,7.8c-0.2,0.5-0.4,0.9-0.6,1.4c0,0,0,0,0,0c-0.2,0.5-0.4,0.9-0.6,1.4c0,0,0,0,0,0c-0.4,0.9-0.9,1.8-1.3,2.7     c0,0,0,0,0,0c-0.3,0.7-0.7,1.3-1.1,2c-0.2,0.4-0.5,0.9-0.7,1.3c0,0,0,0,0,0c-3.2,5.6-6.9,10.8-9.5,15.1c0,0,0,0,0,0     c-0.7,1.1-1.4,2.2-1.9,3.2c0,0,0,0,0,0c-0.2,0.4-0.4,0.9-0.6,1.3c-0.1,0.3-0.2,0.5-0.4,0.8c-0.1,0.3-0.2,0.5-0.3,0.8c0,0,0,0,0,0     c-0.1,0.2-0.1,0.3-0.2,0.5c-0.4,1.3-0.5,2.4-0.1,3.2c0.1,0.2,0.2,0.4,0.3,0.5c0.1,0.2,0.2,0.3,0.4,0.5     c9.8,7.2,32.3-28.6,43.6-5.8C638,1707.7,567.8,1729,571.3,1738.1z" clip-rule="evenodd"/><path fill="#65b646" fill-rule="evenodd" d="M546.1,1867.4c-1.2,10.9-4.3,23.5-7.3,36c-2.1,8.4-4.1,16.8-5.5,24.6h-67.9c-9.8-10.2-20-19.5-25.1-29.5     c-3-7.8,4.9-10.8,11.9-12.8c5.6-1.7,10.6-2.7,8.6-5.2c-2.7-2.9-7.4-4.8-13.2-6.3c-16.3-4.3-40.9-5.3-50.2-17.2     c-18.3-21.3,51.6-13.8,35.7-40.9c-6-11.7-64.6,9.5-82.5-12.8c-12.3-15.2,27.9-18.8,27-25.8c-0.5-9.7-73.4-0.6-81.7-30.1     c1-25.4,36.1-1.9,42.2-12.5c0.6-1.5-0.2-3-1.7-4.6c-0.1-0.1-0.1-0.2-0.2-0.2c-1.3-1.3-3-2.6-5.1-4c-0.3-0.2-0.5-0.3-0.8-0.5     c-0.5-0.3-1-0.7-1.6-1c0,0,0,0,0,0c-0.2-0.1-0.4-0.3-0.6-0.4c-0.4-0.2-0.8-0.5-1.2-0.7c-0.2-0.2-0.5-0.3-0.7-0.5     c-0.1-0.1-0.3-0.2-0.4-0.3c-0.3-0.2-0.6-0.4-0.9-0.6c-0.9-0.6-1.8-1.2-2.7-1.8c-0.3-0.2-0.6-0.4-0.9-0.6     c-0.3-0.2-0.6-0.4-0.9-0.6c-0.3-0.2-0.6-0.4-0.9-0.6c-3.9-2.6-7.8-5.6-11.2-9c-0.4-0.4-0.8-0.8-1.2-1.2c-0.5-0.6-1-1.1-1.5-1.7     c-0.6-0.7-1.2-1.5-1.7-2.2c-0.2-0.3-0.4-0.6-0.6-0.9c-0.2-0.3-0.4-0.6-0.6-0.9c0,0,0,0,0,0c-0.1-0.2-0.3-0.5-0.4-0.7     c-0.1-0.2-0.3-0.5-0.4-0.7c-0.1-0.1-0.1-0.3-0.2-0.4l-0.1-0.2c0,0,0-0.1,0-0.1c0-0.1-0.1-0.1-0.1-0.2c-0.1-0.2-0.2-0.3-0.3-0.5     l0,0c0-0.1-0.1-0.2-0.1-0.3c-0.1-0.3-0.2-0.5-0.4-0.8c-0.2-0.5-0.4-1.1-0.6-1.6c0,0,0,0,0-0.1c-0.1-0.3-0.2-0.5-0.3-0.8     c-0.1-0.4-0.2-0.8-0.3-1.2c-0.1-0.3-0.1-0.6-0.2-0.9c0-0.1,0-0.2-0.1-0.3c-0.1-0.3-0.1-0.7-0.2-1c0,0,0-0.1,0-0.1     c-0.9-6.1,0.4-13.2,5.4-21.4c26.8-31.3,75.1,65.5,89.7,61.6c17-9.1-28.1-47.5,16.3-47.9c44,6.5,16.7,73.7,29.4,75.3     c13.7,5.5,16.8-26.2,32.9-17.8c1.5,0.8,3.2,1.9,4.9,3.5c8.6,7.2,4.9,18.8,0.3,30.6c-2.1,5.4-4.4,10.8-5.9,15.8     c-2.2,7.7-2.4,14.5,3.4,19c4.5,1.6,6.7-1.8,8.5-6.8c1.7-4.9,3-11.3,5.7-16.4c3.2-6.1,8.3-10.1,18.4-6.7     c18.6,7.1,4.2,36.3-1.3,58.5c-2.6,10.5-3.3,19.5,2.5,23.8c2.1,2.2,4.3,0.4,6.6-3.1c4.3-6.4,9.1-18.5,15.4-22.2     c2.8-1.6,5.9-1.6,9.4,1.4c2.9,3.1,4.6,7.3,5.4,12.2c0.1,0.9,0.3,1.9,0.3,2.9C546.8,1858.9,546.6,1863,546.1,1867.4z" clip-rule="evenodd"/><path fill="#97cb69" fill-rule="evenodd" d="M787.4,1740c-0.1,0.4-0.3,0.8-0.4,1.2c0,0,0,0,0,0.1c-0.1,0.2-0.1,0.4-0.2,0.6c-0.2,0.4-0.3,0.8-0.5,1.2     c-0.1,0.2-0.2,0.4-0.2,0.5c-0.1,0.2-0.2,0.5-0.3,0.7c-0.1,0.3-0.3,0.6-0.5,0.8c-0.2,0.3-0.3,0.5-0.5,0.8     c-0.2,0.3-0.3,0.5-0.5,0.8c-0.2,0.2-0.3,0.4-0.5,0.7c-0.7,1-1.5,1.9-2.3,2.8c-0.1,0.2-0.3,0.3-0.4,0.4c-0.1,0.1-0.3,0.3-0.4,0.4     c-0.9,0.9-1.8,1.7-2.8,2.4c-1,0.8-2,1.5-3.1,2.2c0,0,0,0,0,0c-0.4,0.3-0.9,0.6-1.3,0.8c-0.5,0.3-0.9,0.5-1.4,0.8c0,0,0,0,0,0     c-3.9,2.2-8.1,3.9-12.2,5.4c-0.8,0.3-1.6,0.6-2.4,0.9c-0.4,0.1-0.8,0.3-1.2,0.4c-0.8,0.3-1.6,0.5-2.3,0.8c-2.9,1-5.6,1.8-7.9,2.7     c-0.5,0.2-0.9,0.3-1.3,0.5c-0.1,0.1-0.3,0.1-0.4,0.2c-0.3,0.1-0.6,0.2-0.8,0.4c-0.3,0.1-0.5,0.2-0.8,0.4     c-0.3,0.1-0.5,0.2-0.7,0.4c-0.3,0.2-0.7,0.4-1,0.6c-0.6,0.4-1.1,0.8-1.5,1.2c-0.1,0.1-0.3,0.3-0.4,0.4c-0.7,0.8-1,1.6-0.9,2.5     c3.3,11.8,43.1-2.5,37.8,22.4c-15.3,26.7-83.6,0-86.5,9.3c-2.6,6.6,35.5,19.9,19.9,31.7c-22.8,17.2-74.5-17.6-83.2-7.8     c-22,22.4,47.6,32.2,24.6,48.4c-16.2,12.6-54.5-1-67.2,7.3c-5.8,4.2,24.2,10,15.5,22.4c-6.7,7.7-17.4,13.9-28.4,20.5h-50.3     c5.5-8.1,11.6-16.3,18.2-24.6c7.5-9.4,15.6-18.8,24.4-28.3c18.7-20.2,40.3-40.3,64.2-59.6c55.4-44.7,112.7-76.1,160.3-90.6     C788.9,1730.8,788.7,1735.7,787.4,1740z" clip-rule="evenodd"/><path fill="#97cb69" fill-rule="evenodd" d="M571.3,1738.1c1.9,6.5,36.7-5.1,35.6,10.2c-0.1,0.7-0.2,1.6-0.4,2.4c-1.9,7.2-7.5,12.8-14.8,17.4     c-6.4,4.1-14.2,7.4-21.8,10.2c-6.6,2.5-13.1,4.7-18.6,6.9c-8.6,3.4-14.8,6.6-15,10.7c-1.1,9.9,4.2,13.1,11.8,13.7     c10.1,0.8,24.1-2.9,32.1-1.6c3.8,0.6,6.2,2.5,6.1,6.5c0,1.2-0.3,2.5-0.7,4.1c-3.7,14.8-26,25.8-39.1,36.4     c-4.5,3.6-7.9,7.2-9.2,10.9c-0.8,2.9,3.5,2.1,8.9,1.4c7.4-1,16.6-2,17.1,6.7c0,0.3,0,0.7-0.1,1c-1.1,15.6-11.5,34.1-16.1,52.9     h-33.6c-0.8-20.8-0.1-43.4,2.3-67.1c1.2-11.7,2.7-23.6,4.7-35.7c2.2-13.4,4.8-27,8-40.7c15.9-69.3,41.5-129.4,70-170.3     c1.1,0.9,2,1.8,2.9,2.7c0.2,0.2,0.3,0.3,0.5,0.5c0.6,0.7,1.2,1.4,1.8,2.1c0.2,0.2,0.4,0.5,0.5,0.7c0.2,0.2,0.4,0.5,0.5,0.7     c0,0,0,0,0,0c0.2,0.2,0.3,0.4,0.4,0.6c0,0.1,0.1,0.1,0.1,0.2c0.2,0.2,0.3,0.5,0.4,0.7c0.1,0.2,0.2,0.4,0.4,0.6     c0.2,0.3,0.3,0.6,0.5,0.9c0.1,0.2,0.2,0.5,0.4,0.7c0.3,0.6,0.5,1.1,0.7,1.7c0.1,0.2,0.2,0.4,0.3,0.7c0.1,0.2,0.1,0.4,0.2,0.6     c0.1,0.3,0.2,0.6,0.3,0.9c0.1,0.3,0.1,0.5,0.2,0.8c0,0,0,0,0,0.1c0.1,0.2,0.1,0.5,0.2,0.7c0.1,0.3,0.1,0.5,0.2,0.8c0,0,0,0,0,0     c0,0.3,0.1,0.5,0.1,0.7c0,0,0,0,0,0c0,0.3,0.1,0.5,0.1,0.7c0,0.2,0.1,0.5,0.1,0.7c0,0.1,0,0.1,0,0.2c0,0.2,0,0.5,0.1,0.7     c0,0.2,0,0.4,0,0.5c0.1,2.1-0.1,4.2-0.5,6.3c-0.5,2.6-1.3,5.3-2.3,7.8c-0.2,0.5-0.4,0.9-0.6,1.4c0,0,0,0,0,0     c-0.2,0.5-0.4,0.9-0.6,1.4c0,0,0,0,0,0c-0.4,0.9-0.9,1.8-1.3,2.7c0,0,0,0,0,0c-0.4,0.7-0.7,1.3-1.1,2c-0.2,0.4-0.5,0.9-0.7,1.3     c0,0,0,0,0,0c-3.2,5.6-6.9,10.8-9.5,15.1c0,0,0,0,0,0c-0.7,1.2-1.4,2.2-1.9,3.2c0,0,0,0,0,0c-0.2,0.4-0.4,0.9-0.6,1.3     c-0.1,0.3-0.3,0.5-0.4,0.8c-0.1,0.3-0.2,0.5-0.3,0.8c0,0,0,0,0,0c-0.1,0.2-0.1,0.3-0.2,0.5c-0.4,1.3-0.5,2.4-0.1,3.2     c0.1,0.2,0.2,0.4,0.3,0.5c0.1,0.2,0.2,0.3,0.4,0.5c9.8,7.2,32.3-28.6,43.6-5.8C638,1707.7,567.8,1729,571.3,1738.1z" clip-rule="evenodd"/><path fill="#97cb69" fill-rule="evenodd" d="M508,1928h-42.5c-9.8-10.2-20-19.5-25.1-29.5c-3-7.8,4.9-10.8,11.9-12.8c5.6-1.7,10.6-2.7,8.6-5.2     c-2.7-2.9-7.4-4.8-13.2-6.3c-16.3-4.3-40.9-5.3-50.2-17.2c-18.3-21.3,51.6-13.8,35.7-40.9c-6-11.7-64.6,9.5-82.5-12.8     c-12.3-15.2,27.9-18.8,27-25.8c-0.5-9.7-73.4-0.6-81.7-30.1c1-25.4,36.1-1.9,42.2-12.5c0.6-1.5-0.2-3-1.7-4.6     c-0.1-0.1-0.1-0.2-0.2-0.2c-1.3-1.3-3-2.6-5.1-4c-0.3-0.2-0.5-0.3-0.8-0.5c-0.5-0.3-1-0.7-1.6-1c0,0,0,0,0,0     c-0.2-0.1-0.4-0.3-0.6-0.4c-0.4-0.2-0.8-0.5-1.2-0.7c-0.2-0.2-0.5-0.3-0.7-0.5c-0.1-0.1-0.3-0.2-0.4-0.3     c-0.3-0.2-0.6-0.4-0.9-0.6c-0.9-0.6-1.8-1.2-2.7-1.8c-0.3-0.2-0.6-0.4-0.9-0.6c-0.3-0.2-0.6-0.4-0.9-0.6     c-0.3-0.2-0.6-0.4-0.9-0.6c-3.9-2.6-7.8-5.6-11.2-9c-0.4-0.4-0.8-0.8-1.2-1.2c-0.5-0.6-1-1.1-1.5-1.7c-0.6-0.7-1.2-1.5-1.7-2.2     c-0.2-0.3-0.4-0.6-0.6-0.9c-0.2-0.3-0.4-0.6-0.6-0.9c0,0,0,0,0,0c-0.1-0.2-0.3-0.5-0.4-0.7c-0.1-0.2-0.3-0.5-0.4-0.7     c-0.1-0.1-0.1-0.3-0.2-0.4l-0.1-0.2c0-0.1-0.1-0.2-0.1-0.3c-0.1-0.2-0.2-0.3-0.3-0.5c0-0.1-0.1-0.2-0.1-0.3     c-0.1-0.3-0.2-0.5-0.4-0.8c-0.2-0.5-0.4-1.1-0.6-1.6c0,0,0,0,0-0.1c-0.1-0.3-0.2-0.5-0.3-0.8c-1.8-5.9-1.5-12.8,2.4-20.9     c42.7,25.7,90.6,70.1,133.3,127c17.4,23.1,32.5,46.4,45.3,69.2c8,14.2,15,28.3,21,41.9C504,1918.4,506.1,1923.2,508,1928z" clip-rule="evenodd"/></g><path fill="#0ebaa0" fill-rule="evenodd" d="M1115.2,1929.2c0.7-4.1,1.7-8,2.9-11.9c1.4,8.6,2.2,17.4,2.5,26.2    C1119.1,1938.6,1117.3,1933.9,1115.2,1929.2L1115.2,1929.2z M231.4,1929.2c0.8-4.1,1.8-8,2.9-11.9c1.4,8.6,2.2,17.4,2.7,26.2    C235.5,1938.6,233.7,1933.9,231.4,1929.2L231.4,1929.2z M686.4,1929.2c0.8-4.1,1.8-8,2.9-11.9c1.4,8.6,2.2,17.4,2.7,26.2    C690.5,1938.6,688.7,1933.9,686.4,1929.2L686.4,1929.2z M904.8,1929.2c-0.7-4.1-1.7-8-2.9-11.9c-1.4,8.6-2.2,17.4-2.5,26.2    C900.7,1938.6,902.6,1933.9,904.8,1929.2L904.8,1929.2z M891.6,1893.1c-3.1-5.5-6.7-11.1-11.1-16.6c-2.9,9.7-5.1,19.4-6.6,29.3    c2.5,4.9,4.8,9.9,6.6,15.1C883.6,1911.5,887.3,1902.2,891.6,1893.1L891.6,1893.1z M880.9,1875.3c4.8,4.1,9.1,8.5,13.1,13    c4.2-8.2,8.8-16,14.3-23.5c-2.2-3-4.5-6-7-8.8c2.9,2.2,5.8,4.5,8.3,6.9c8-10.8,17.4-21.2,28.5-30.4c2.5-4.9,5.2-9.7,8.1-14.6    c-1.4,3.8-2.7,7.4-3.8,11c0.4-0.3,0.7-0.5,1-0.8c-0.4,0.5-0.7,0.9-1.1,1.4c-6.9,22-9.7,42-9.4,60.8c4.2,6.4,7.7,13,10.8,19.6    c2.7-14.7,6.9-29.6,13.1-44.2c-2.4-3.1-4.9-6.4-7.7-9.7c3.1,2.4,6,4.9,8.8,7.4c3.5-8,7.6-15.8,12.5-23.5    c-2.9-3.9-5.9-7.8-9.3-11.8c3.8,3,7.4,6.1,10.9,9.3c3.9-6,8.1-11.8,13.1-17.6c-3.8,7.1-7.2,13.8-9.8,20.5    c5.1,5,9.8,10.2,14.2,15.4c4.6-7.7,10-15.2,15.7-22.6c-5.9-10.2-12.9-20.5-21.3-31c9.8,8,18.4,16.5,26.1,25.4    c7.7-8.9,16.4-17.4,26.2-25.4c-8.4,10.5-15.4,20.9-21.5,31c5.9,7.4,11.2,14.9,15.9,22.6c4.4-5.2,9.1-10.3,14.2-15.4    c-2.8-6.7-6-13.5-9.8-20.5c4.8,5.8,9.1,11.6,13.1,17.6c3.5-3.1,7.2-6.3,10.9-9.3c-3.4,3.9-6.5,7.8-9.3,11.8    c4.9,7.7,9,15.5,12.5,23.5c2.8-2.5,5.8-5,8.8-7.4c-2.8,3.3-5.3,6.6-7.7,9.7c6.2,14.6,10.4,29.5,13.1,44.2    c3.1-6.6,6.6-13.2,10.8-19.6c0.3-18.8-2.5-38.9-9.4-60.8c-0.4-0.5-0.8-0.9-1.1-1.4c0.3,0.3,0.6,0.5,1,0.8c-1.3-3.6-2.5-7.2-3.8-11    c2.9,4.9,5.6,9.7,8.1,14.6c11.1,9.3,20.5,19.6,28.4,30.4c2.7-2.4,5.5-4.7,8.4-6.9c-2.5,2.8-4.9,5.8-7,8.8    c5.5,7.5,10.1,15.4,14.2,23.5c3.9-4.5,8.3-8.9,13.2-13c-7.6-24.3-19.9-48.6-39.7-73.2c28.5,23.2,47.7,51.3,60.8,80.8    c3.1-4.1,6.3-8,9.8-11.9c-3.6-16.3-9.8-33.2-19.5-51.1c11.6,14,20.5,28.5,27.2,43.6c2.8-2.5,5.6-5,8.7-7.4    c-2.7,3.3-5.3,6.6-7.7,9.7c6.3,14.6,10.4,29.5,13.1,44.2c3.1-6.6,6.7-13.2,10.8-19.6c0-0.3,0-0.8,0-1.1    c-3.5-5.8-7.7-11.6-12.5-17.6c4.5,3.6,8.7,7.4,12.5,11.3c-0.6-20.1-4.5-41.6-13.3-65.1c11.8,19.1,19.5,38.7,24,58.2    c2.9-3.4,6-6.7,9.3-10c-2.4-3.3-5.1-6.7-7.9-10c3.5,2.7,6.7,5.3,9.8,8.3c2.9-3,6.3-5.6,9.7-8.3c-2.8,3.3-5.5,6.7-7.9,10    c3.4,3.3,6.5,6.6,9.3,10c4.6-19.4,12.2-39,24-58.2c-8.7,23.5-12.8,45-13.3,65.1c3.9-3.9,8-7.7,12.6-11.3    c-4.9,6-9.1,11.8-12.6,17.6c0,0.3,0,0.8,0,1.1c4.2,6.4,7.7,13,10.8,19.6c2.7-14.7,6.7-29.6,13.1-44.2c-2.4-3.1-4.9-6.4-7.7-9.7    c3.1,2.4,6,4.9,8.7,7.4c6.7-15.1,15.6-29.6,27.4-43.6c-9.8,17.9-16,34.8-19.6,51.1c3.5,3.9,6.9,7.8,9.8,11.9    c13.1-29.5,32.3-57.5,60.9-80.8c-19.8,24.6-32.3,48.9-39.7,73.2c4.8,4.1,9.1,8.5,13.1,13c4.1-8.2,8.8-16,14.2-23.5    c-2.1-3-4.5-6-6.9-8.8c2.8,2.2,5.6,4.5,8.3,6.9c7.9-10.8,17.3-21.2,28.5-30.4c2.4-4.9,5.2-9.7,8.1-14.6c-1.4,3.8-2.7,7.4-3.8,11    c0.3-0.3,0.6-0.5,1-0.8c-0.4,0.5-0.8,0.9-1.3,1.4c-6.9,22-9.5,42-9.3,60.8c4.1,6.4,7.7,13,10.8,19.6c2.5-14.7,6.7-29.6,12.9-44.2    c-2.4-3.1-4.9-6.4-7.6-9.7c2.9,2.4,5.9,4.9,8.7,7.4c6.6-15.1,15.6-29.6,27.2-43.6c-9.7,17.9-16,34.8-19.5,51.1    c3.5,3.9,6.7,7.8,9.8,11.9c6.2-14,13.6-27.6,23-40.6c-3.4-4.7-7-9.4-10.9-14.1c4.6,3.6,9,7.4,13.1,11.3c6-8.2,12.8-16,20.2-23.4    c-3.2-4.7-6.7-9.3-10.5-14c4.6,3.8,8.8,7.5,13.1,11.4c4.1-3.9,8.4-7.7,12.9-11.4c-3.8,4.7-7.2,9.3-10.4,14    c7.4,7.4,14,15.2,20.1,23.4c4.1-3.9,8.4-7.7,13.1-11.3c-3.9,4.7-7.6,9.4-10.9,14.1c9.4,13,17,26.7,23.2,40.6    c2.9-4.1,6.2-8,9.8-11.9c-3.6-16.3-10-33.2-19.6-51.1c11.8,14,20.6,28.5,27.2,43.6c2.8-2.5,5.8-5,8.8-7.4    c-2.8,3.3-5.3,6.6-7.7,9.7c6.2,14.6,10.4,29.5,13.1,44.2c3.1-6.6,6.6-13.2,10.8-19.6c0.3-18.8-2.5-38.9-9.4-60.8    c-0.4-0.5-0.8-0.9-1.1-1.4c0.3,0.3,0.6,0.5,1,0.8c-1.3-3.6-2.5-7.2-3.8-11c2.9,4.9,5.6,9.7,8.1,14.6c11.1,9.3,20.5,19.6,28.4,30.4    c2.7-2.4,5.5-4.7,8.4-6.9c-2.5,2.8-4.8,5.8-7,8.8c5.5,7.5,10.1,15.4,14.3,23.5c3.8-4.5,8.1-8.9,13.1-13    c-7.6-24.3-19.9-48.6-39.7-73.2c28.5,23.2,47.7,51.3,60.8,80.8c3.1-4.1,6.3-8,9.8-11.9c-3.6-16.3-9.8-33.2-19.5-51.1    c11.6,14,20.5,28.5,27.2,43.6c2.8-2.5,5.6-5,8.7-7.4c-2.7,3.3-5.3,6.6-7.7,9.7c6.3,14.6,10.4,29.5,13.1,44.2    c3.1-6.6,6.7-13.2,10.8-19.6c0-0.3,0-0.8,0-1.1c-3.5-5.8-7.7-11.6-12.5-17.6c4.5,3.6,8.7,7.4,12.5,11.3    c-0.6-20.1-4.5-41.6-13.3-65.1c11.8,19.1,19.5,38.7,24,58.2c2.9-3.4,6-6.7,9.3-10c-2.4-3.3-5.1-6.7-7.9-10    c3.5,2.7,6.7,5.3,9.8,8.3c3.1-3,6.3-5.6,9.7-8.3c-2.8,3.3-5.5,6.7-7.9,10c3.4,3.3,6.5,6.6,9.3,10c4.6-19.4,12.2-39,24-58.2    c-8.7,23.5-12.8,45-13.3,65.1c3.9-3.9,8-7.7,12.6-11.3c-4.9,6-9.1,11.8-12.6,17.6c0,0.3,0,0.8,0,1.1c4.2,6.4,7.7,13,10.8,19.6    c2.7-14.7,6.9-29.6,13.1-44.2c-2.4-3.1-4.9-6.4-7.7-9.7c3.1,2.4,6,4.9,8.7,7.4c6.7-15.1,15.6-29.6,27.4-43.6    c-9.8,17.9-16,34.8-19.6,51.1c3.5,3.9,6.9,7.8,9.8,11.9c13.1-29.5,32.3-57.5,60.9-80.8c-19.8,24.6-32.3,48.9-39.7,73.2    c4.8,4.1,9.1,8.5,13.1,13c4.1-8.2,8.8-16,14.2-23.5c-2.1-3-4.5-6-6.9-8.8c2.8,2.2,5.6,4.5,8.3,6.9c7.9-10.8,17.3-21.2,28.5-30.4    c2.4-4.9,5.2-9.7,8.1-14.6c-1.4,3.8-2.7,7.4-3.8,11c0.3-0.3,0.6-0.5,1-0.8c-0.4,0.5-0.8,0.9-1.3,1.4c-6.9,22-9.5,42-9.3,60.8    c4.1,6.4,7.7,13,10.8,19.6c2.5-14.7,6.7-29.6,12.9-44.2c-2.4-3.1-4.9-6.4-7.6-9.7c2.9,2.4,5.9,4.9,8.7,7.4    c6.6-15.1,15.6-29.6,27.2-43.6c-9.7,17.9-16,34.8-19.5,51.1c3.5,3.9,6.7,7.8,9.8,11.9c12.9-29.5,32.3-57.5,60.8-80.8    c-28.1,35-41.4,69.2-46.7,103.8c2.5,4.9,4.6,9.9,6.6,15.1c10.9-33.9,29.9-67.1,62.9-92.8c-32.3,38.4-42.5,76.4-44.2,115.4    c5.8-17.9,15.6-35.6,33.1-49.2c-13.9,16.5-19.9,32.9-22.2,49.7H110.7c-2.2-16.8-8.3-33.2-22.2-49.7c17.4,13.6,27.4,31.4,33,49.2    c-1.7-39-11.9-77-44.1-115.4c33,25.7,51.8,59,62.9,92.8c1.8-5.2,4.1-10.2,6.6-15.1c-5.3-34.7-18.7-68.8-46.7-103.8    c28.5,23.2,47.9,51.3,60.8,80.8c3.1-4.1,6.3-8,9.8-11.9c-3.6-16.3-9.8-33.2-19.5-51.1c11.6,14,20.5,28.5,27.2,43.6    c2.8-2.5,5.6-5,8.7-7.4c-2.7,3.3-5.3,6.6-7.7,9.7c6.3,14.6,10.4,29.5,13.1,44.2c3.1-6.6,6.7-13.2,10.8-19.6    c0.3-18.8-2.4-38.9-9.3-60.8c-0.4-0.5-0.8-0.9-1.3-1.4c0.4,0.3,0.7,0.5,1,0.8c-1.1-3.6-2.4-7.2-3.8-11c2.9,4.9,5.8,9.7,8.1,14.6    c11.1,9.3,20.5,19.6,28.5,30.4c2.7-2.4,5.5-4.7,8.3-6.9c-2.4,2.8-4.8,5.8-6.9,8.8c5.3,7.5,10.1,15.4,14.2,23.5    c3.9-4.5,8.3-8.9,13.1-13c-7.4-24.3-19.9-48.6-39.7-73.2c28.6,23.2,47.9,51.3,60.9,80.8c2.9-4.1,6.2-8,9.8-11.9    c-3.6-16.3-9.8-33.2-19.6-51.1c11.8,14,20.6,28.5,27.2,43.6c2.8-2.5,5.8-5,8.8-7.4c-2.8,3.3-5.3,6.6-7.7,9.7    c6.2,14.6,10.4,29.5,13.1,44.2c3.1-6.6,6.6-13.2,10.8-19.6c0-0.3,0-0.8,0-1.1c-3.5-5.8-7.7-11.6-12.6-17.6    c4.6,3.6,8.7,7.4,12.5,11.3c-0.6-20.1-4.5-41.6-13.2-65.1c11.8,19.1,19.4,38.7,24,58.2c2.8-3.4,5.9-6.7,9.3-10    c-2.4-3.3-5.1-6.7-7.9-10c3.4,2.7,6.6,5.3,9.7,8.3c3.1-3,6.3-5.6,9.8-8.3c-2.8,3.3-5.5,6.7-7.9,10c3.2,3.3,6.3,6.6,9.3,10    c4.5-19.4,12.2-39,24-58.2c-8.8,23.5-12.8,45-13.3,65.1c3.8-3.9,8-7.7,12.5-11.3c-4.9,6-9,11.8-12.5,17.6c0,0.3,0,0.8,0,1.1    c4.1,6.4,7.7,13,10.8,19.6c2.5-14.7,6.7-29.6,12.9-44.2c-2.2-3.1-4.9-6.4-7.6-9.7c3.1,2.4,5.9,4.9,8.7,7.4    c6.7-15.1,15.6-29.6,27.2-43.6c-9.7,17.9-16,34.8-19.5,51.1c3.5,3.9,6.7,7.8,9.8,11.9c12.9-29.5,32.3-57.5,60.8-80.8    c-19.8,24.6-32.3,48.9-39.7,73.2c4.8,4.1,9.1,8.5,13.1,13c4.2-8.2,8.8-16,14.3-23.5c-2.2-3-4.5-6-7-8.8c2.9,2.2,5.8,4.5,8.3,6.9    c8-10.8,17.4-21.2,28.5-30.4c2.5-4.9,5.2-9.7,8.1-14.6c-1.4,3.8-2.7,7.4-3.8,11c0.4-0.3,0.7-0.5,1-0.8c-0.4,0.5-0.7,0.9-1.1,1.4    c-6.9,22-9.7,42-9.4,60.8c4.2,6.4,7.7,13,10.8,19.6c2.7-14.7,6.9-29.6,13.1-44.2c-2.4-3.1-4.9-6.4-7.7-9.7c3.1,2.4,6,4.9,8.8,7.4    c6.6-15.1,15.4-29.6,27.2-43.6c-9.8,17.9-16,34.8-19.6,51.1c3.5,3.9,6.9,7.8,9.8,11.9c6.2-14,13.8-27.6,23-40.6    c-3.2-4.7-6.9-9.4-10.8-14.1c4.6,3.6,9,7.4,13.1,11.3c5.9-8.2,12.6-16,20.1-23.4c-3.2-4.7-6.7-9.3-10.4-14    c4.5,3.8,8.8,7.5,12.9,11.4c4.1-3.9,8.4-7.7,13.1-11.4c-3.8,4.7-7.3,9.3-10.5,14c7.4,7.4,14.2,15.2,20.2,23.4    c4.1-3.9,8.4-7.7,13.1-11.3c-3.9,4.7-7.6,9.4-10.9,14.1c9.3,13,16.8,26.7,23,40.6c3.1-4.1,6.3-8,9.8-11.9    c-3.5-16.3-9.8-33.2-19.5-51.1c11.6,14,20.5,28.5,27.2,43.6c2.8-2.5,5.6-5,8.7-7.4c-2.7,3.3-5.3,6.6-7.7,9.7    c6.3,14.6,10.4,29.5,13.1,44.2c3.1-6.6,6.7-13.2,10.8-19.6c0.3-18.8-2.4-38.9-9.3-60.8c-0.4-0.5-0.8-0.9-1.3-1.4    c0.4,0.3,0.7,0.5,1,0.8c-1.1-3.6-2.4-7.2-3.8-11c2.9,4.9,5.8,9.7,8.1,14.6c11.1,9.3,20.5,19.6,28.5,30.4c2.7-2.4,5.5-4.7,8.3-6.9    c-2.4,2.8-4.8,5.8-6.9,8.8c5.3,7.5,10.1,15.4,14.2,23.5c3.9-4.5,8.3-8.9,13.1-13c-7.4-24.3-19.9-48.6-39.7-73.2    c28.6,23.2,47.9,51.3,60.9,80.8c2.9-4.1,6.3-8,9.8-11.9c-3.6-16.3-9.8-33.2-19.6-51.1c11.8,14,20.6,28.5,27.2,43.6    c2.8-2.5,5.8-5,8.8-7.4c-2.8,3.3-5.3,6.6-7.7,9.7c6.2,14.6,10.4,29.5,13.1,44.2c3.1-6.6,6.6-13.2,10.8-19.6c0-0.3,0-0.8,0-1.1    c-3.5-5.8-7.7-11.6-12.6-17.6c4.6,3.6,8.7,7.4,12.5,11.3c-0.6-20.1-4.5-41.6-13.2-65.1c11.8,19.1,19.4,38.7,24,58.2    c2.8-3.4,5.9-6.7,9.3-10c-2.4-3.3-5.1-6.7-7.9-10c3.4,2.7,6.6,5.3,9.7,8.3c3.1-3,6.3-5.6,9.8-8.3c-2.8,3.3-5.5,6.7-7.9,10    c3.2,3.3,6.3,6.6,9.3,10c4.5-19.4,12.2-39,24-58.2c-8.8,23.5-12.8,45-13.3,65.1c3.8-3.9,8-7.7,12.5-11.3c-4.9,6-9,11.8-12.5,17.6    c0,0.3,0,0.8,0,1.1c4.1,6.4,7.7,13,10.8,19.6c2.7-14.7,6.7-29.6,13.1-44.2c-2.4-3.1-5.1-6.4-7.7-9.7c3.1,2.4,5.9,4.9,8.7,7.4    c6.7-15.1,15.6-29.6,27.2-43.6c-9.7,17.9-16,34.8-19.5,51.1c3.5,3.9,6.7,7.8,9.8,11.9c12.9-29.5,32.3-57.5,60.8-80.8    C900.9,1826.6,888.4,1850.9,880.9,1875.3L880.9,1875.3z M973.6,1844.4c-3.5,9.1-6.2,17.9-8.1,26.5c3.5,3.9,6.9,7.8,9.8,11.9    c2.9-6.6,6.2-13,9.7-19.4C981.6,1857.1,977.9,1850.8,973.6,1844.4L973.6,1844.4z M1009.9,1841.9c-4.5,8.8-8.1,17.6-11.2,26.3    c4.2,6.3,7.9,12.5,11.2,19c3.4-6.4,7.2-12.7,11.4-19C1018.2,1859.4,1014.6,1850.6,1009.9,1841.9L1009.9,1841.9z M993.9,1883.7    c-1.8,7.4-3.4,14.7-4.5,22.1c2.5,4.9,4.6,9.9,6.6,15.1c1.4-4.5,3.1-9.1,4.8-13.5C999.1,1899.6,996.9,1891.6,993.9,1883.7    L993.9,1883.7z M1046.4,1844.4c-4.4,6.4-8.1,12.7-11.4,19c3.5,6.4,6.7,12.9,9.7,19.4c2.9-4.1,6.2-8,9.8-11.9    C1052.6,1862.2,1049.9,1853.5,1046.4,1844.4L1046.4,1844.4z M1025.9,1883.7c-2.8,7.8-5.1,15.8-6.7,23.7c1.7,4.4,3.4,8.9,4.8,13.5    c2-5.2,4.1-10.2,6.6-15.1C1029.4,1898.5,1027.9,1891.1,1025.9,1883.7L1025.9,1883.7z M563.6,1932.8c-0.7-2.7-1.4-5.3-2.4-8    c-0.7,6.1-1.3,12.4-1.5,18.7C560.8,1939.9,562.1,1936.4,563.6,1932.8L563.6,1932.8z M548.6,1900.7c-1.5-2.2-3.2-4.4-5.1-6.4    c2,1.6,3.9,3.1,5.8,4.9c3.6-8.2,7.7-16.2,12.5-24c-3.2-7.7-7.2-15.2-11.8-22.7c-8,17.7-12.8,35.6-15.6,53.5    c2.5,4.9,4.6,9.9,6.6,15.1C543.1,1914.1,545.7,1907.4,548.6,1900.7L548.6,1900.7z M562.8,1914.6c2,2.8,3.8,5.8,5.3,8.8    c1.7-3,3.5-6,5.5-8.8c-1.4-7.5-3.1-15.1-5.5-22.6C565.9,1899.6,564,1907.1,562.8,1914.6L562.8,1914.6z M572.7,1932.8    c1.4,3.6,2.7,7.1,3.8,10.7c-0.3-6.3-0.7-12.5-1.4-18.7C574.1,1927.5,573.3,1930.1,572.7,1932.8L572.7,1932.8z M552.7,1846.6    c5.8,6.1,10.8,12.4,15.4,19c4.6-6.6,9.8-12.9,15.4-19c-4.2-8.9-9.4-17.9-15.4-27C562.1,1828.7,557,1837.6,552.7,1846.6    L552.7,1846.6z M574.4,1875.1c4.8,7.8,9,15.8,12.6,24c1.8-1.7,3.6-3.3,5.8-4.9c-1.8,2-3.5,4.2-5.1,6.4c2.8,6.7,5.3,13.5,7.6,20.2    c1.8-5.2,4.1-10.2,6.6-15.1c-2.8-17.9-7.7-35.8-15.6-53.5C581.6,1859.9,577.7,1867.4,574.4,1875.1L574.4,1875.1z M788.9,1901.9    c2.5,3.8,4.8,7.7,6.7,11.6c2.1-3.9,4.4-7.8,6.9-11.6c0.6-5.8,1.4-11.8,2.5-17.6c-2.7-5.3-5.8-10.5-9.4-15.7    c-3.5,5.2-6.6,10.3-9.4,15.7C787.3,1890.1,788.2,1896.1,788.9,1901.9L788.9,1901.9z M904.8,1902.7c2.8,4.2,5.2,8.6,7.4,13.2    c1.5-2.4,3.2-4.5,4.9-6.7c0.7-8.2,1.7-16.5,3.4-24.8c-1.8-3.4-3.8-7.1-6-10.5C910.3,1883.4,907.2,1893,904.8,1902.7L904.8,1902.7z     M915.3,1922.8c0.4,0.9,0.8,1.9,1.3,2.7c0-1.9,0-3.9,0.1-6C916.2,1920.6,915.8,1921.7,915.3,1922.8L915.3,1922.8z M916.5,1869.6    c2.1,2,3.9,4.2,5.8,6.4c2.9-12.4,7.2-24.9,12.9-37.3C927.4,1849.1,921.4,1859.3,916.5,1869.6L916.5,1869.6z M848.8,1877.1    c-2.8,14.9-3.4,29.5-2.4,43.7c2.7-9.9,5.9-19.8,9.8-29.5C854,1886.7,851.6,1881.8,848.8,1877.1L848.8,1877.1z M964.2,1877.1    c-2.7,14.9-3.2,29.5-2.4,43.7c2.7-9.9,5.9-19.8,9.8-29.5C969.5,1886.7,967,1881.8,964.2,1877.1L964.2,1877.1z M699.8,1893.1    c3.1-5.5,6.7-11.1,10.9-16.6c2.9,9.7,5.1,19.4,6.6,29.3c-2.5,4.9-4.6,9.9-6.6,15.1C707.8,1911.5,704.1,1902.2,699.8,1893.1    L699.8,1893.1z M686.4,1902.7c-2.7,4.2-5.2,8.6-7.3,13.2c-1.5-2.4-3.2-4.5-5.1-6.7c-0.6-8.2-1.7-16.5-3.2-24.8    c1.8-3.4,3.8-7.1,5.9-10.5C681,1883.4,684.2,1893,686.4,1902.7L686.4,1902.7z M675.9,1922.8c-0.4,0.9-0.8,1.9-1.1,2.7    c0-1.9-0.1-3.9-0.1-6C675.1,1920.6,675.5,1921.7,675.9,1922.8L675.9,1922.8z M674.8,1869.6c-2,2-3.9,4.2-5.8,6.4    c-2.9-12.4-7-24.9-12.8-37.3C663.8,1849.1,670,1859.3,674.8,1869.6L674.8,1869.6z M742.6,1877.1c2.7,14.9,3.2,29.5,2.4,43.7    c-2.7-9.9-5.9-19.8-9.8-29.5C737.2,1886.7,739.8,1881.8,742.6,1877.1L742.6,1877.1z M627.1,1877.1c2.8,14.9,3.4,29.5,2.4,43.7    c-2.7-9.9-5.9-19.8-9.8-29.5C621.9,1886.7,624.3,1881.8,627.1,1877.1L627.1,1877.1z M449.8,1929.2c-0.7-4.1-1.7-8-2.9-11.9    c-1.4,8.6-2.2,17.4-2.5,26.2C445.7,1938.6,447.6,1933.9,449.8,1929.2L449.8,1929.2z M436.6,1893.1c-3.1-5.5-6.7-11.1-11.1-16.6    c-2.9,9.7-5.1,19.4-6.6,29.3c2.5,4.9,4.8,9.9,6.6,15.1C428.6,1911.5,432.3,1902.2,436.6,1893.1L436.6,1893.1z M333.9,1901.9    c2.5,3.8,4.8,7.7,6.7,11.6c2.1-3.9,4.4-7.8,6.9-11.6c0.6-5.8,1.4-11.8,2.5-17.6c-2.7-5.3-5.8-10.5-9.4-15.7    c-3.5,5.2-6.6,10.3-9.4,15.7C332.3,1890.1,333.2,1896.1,333.9,1901.9L333.9,1901.9z M449.8,1902.7c2.8,4.2,5.2,8.6,7.4,13.2    c1.5-2.4,3.2-4.5,4.9-6.7c0.7-8.2,1.7-16.5,3.4-24.8c-1.8-3.4-3.8-7.1-6-10.5C455.3,1883.4,452.2,1893,449.8,1902.7L449.8,1902.7z     M460.3,1922.8c0.4,0.9,0.8,1.9,1.3,2.7c0-1.9,0-3.9,0.1-6C461.2,1920.6,460.7,1921.7,460.3,1922.8L460.3,1922.8z M461.4,1869.6    c2.1,2,3.9,4.2,5.8,6.4c2.9-12.4,7.2-24.9,12.9-37.3C472.4,1849.1,466.4,1859.3,461.4,1869.6L461.4,1869.6z M393.8,1877.1    c-2.8,14.9-3.4,29.5-2.4,43.7c2.7-9.9,5.9-19.8,9.8-29.5C399,1886.7,396.6,1881.8,393.8,1877.1L393.8,1877.1z M509.2,1877.1    c-2.7,14.9-3.2,29.5-2.4,43.7c2.7-9.9,5.9-19.8,9.8-29.5C514.5,1886.7,512,1881.8,509.2,1877.1L509.2,1877.1z M244.7,1893.1    c3.1-5.5,6.7-11.1,10.9-16.6c2.9,9.7,5.1,19.4,6.6,29.3c-2.5,4.9-4.6,9.9-6.6,15.1C252.7,1911.5,249.1,1902.2,244.7,1893.1    L244.7,1893.1z M231.4,1902.7c-2.7,4.2-5.2,8.6-7.4,13.2c-1.4-2.4-3.1-4.5-4.9-6.7c-0.6-8.2-1.7-16.5-3.2-24.8    c1.8-3.4,3.8-7.1,5.9-10.5C225.9,1883.4,229.2,1893,231.4,1902.7L231.4,1902.7z M220.9,1922.8c-0.4,0.9-0.8,1.9-1.1,2.7    c0-1.9-0.1-3.9-0.1-6C220,1920.6,220.5,1921.7,220.9,1922.8L220.9,1922.8z M219.8,1869.6c-2,2-3.9,4.2-5.8,6.4    c-2.9-12.4-7-24.9-12.8-37.3C208.8,1849.1,215,1859.3,219.8,1869.6L219.8,1869.6z M287.6,1877.1c2.7,14.9,3.2,29.5,2.4,43.7    c-2.7-9.9-5.9-19.8-9.8-29.5C282.2,1886.7,284.7,1881.8,287.6,1877.1L287.6,1877.1z M172,1877.1c2.8,14.9,3.4,29.5,2.4,43.7    c-2.7-9.9-5.9-19.8-9.8-29.5C166.7,1886.7,169.2,1881.8,172,1877.1L172,1877.1z M1570.2,1929.2c0.7-4.1,1.7-8,2.9-11.9    c1.4,8.6,2.2,17.4,2.5,26.2C1574.1,1938.6,1572.3,1933.9,1570.2,1929.2L1570.2,1929.2z M1788.4,1929.2c-0.7-4.1-1.7-8-2.9-11.9    c-1.4,8.6-2.1,17.4-2.5,26.2C1784.5,1938.6,1786.3,1933.9,1788.4,1929.2L1788.4,1929.2z M1775.3,1893.1    c-3.1-5.5-6.7-11.1-10.9-16.6c-2.9,9.7-5.1,19.4-6.6,29.3c2.4,4.9,4.6,9.9,6.6,15.1C1767.3,1911.5,1770.9,1902.2,1775.3,1893.1    L1775.3,1893.1z M1447.3,1932.8c-0.6-2.7-1.4-5.3-2.4-8c-0.7,6.1-1.3,12.4-1.5,18.7C1444.5,1939.9,1445.9,1936.4,1447.3,1932.8    L1447.3,1932.8z M1432.2,1900.7c-1.5-2.2-3.2-4.4-5.1-6.4c2.1,1.6,3.9,3.1,5.8,4.9c3.6-8.2,7.9-16.2,12.6-24    c-3.2-7.7-7.2-15.2-11.9-22.7c-7.9,17.7-12.8,35.6-15.6,53.5c2.5,4.9,4.6,9.9,6.6,15.1C1426.9,1914.1,1429.4,1907.4,1432.2,1900.7    L1432.2,1900.7z M1446.4,1914.6c2,2.8,3.8,5.8,5.5,8.8c1.5-3,3.4-6,5.3-8.8c-1.3-7.5-3.1-15.1-5.3-22.6    C1449.5,1899.6,1447.8,1907.1,1446.4,1914.6L1446.4,1914.6z M1456.4,1932.8c1.5,3.6,2.8,7.1,3.9,10.7c-0.3-6.3-0.8-12.5-1.5-18.7    C1457.8,1927.5,1457.1,1930.1,1456.4,1932.8L1456.4,1932.8z M1436.3,1846.6c5.8,6.1,10.9,12.4,15.6,19c4.6-6.6,9.7-12.9,15.4-19    c-4.4-8.9-9.4-17.9-15.4-27C1445.9,1828.7,1440.7,1837.6,1436.3,1846.6L1436.3,1846.6z M1458.1,1875.1c4.9,7.8,9,15.8,12.6,24    c1.8-1.7,3.8-3.3,5.8-4.9c-1.8,2-3.5,4.2-5.1,6.4c2.8,6.7,5.3,13.5,7.6,20.2c2-5.2,4.1-10.2,6.6-15.1    c-2.8-17.9-7.6-35.8-15.6-53.5C1465.4,1859.9,1461.4,1867.4,1458.1,1875.1L1458.1,1875.1z M1672.5,1901.9    c2.5,3.8,4.8,7.7,6.9,11.6c2-3.9,4.2-7.8,6.7-11.6c0.6-5.8,1.5-11.8,2.7-17.6c-2.8-5.3-5.9-10.5-9.4-15.7    c-3.6,5.2-6.7,10.3-9.4,15.7C1671.1,1890.1,1672,1896.1,1672.5,1901.9L1672.5,1901.9z M1788.4,1902.7c2.8,4.2,5.3,8.6,7.4,13.2    c1.5-2.4,3.2-4.5,5.1-6.7c0.6-8.2,1.7-16.5,3.2-24.8c-1.8-3.4-3.8-7.1-5.9-10.5C1794.1,1883.4,1790.8,1893,1788.4,1902.7    L1788.4,1902.7z M1799.1,1922.8c0.4,0.9,0.7,1.9,1.1,2.7c0-1.9,0-3.9,0.1-6C1800,1920.6,1799.5,1921.7,1799.1,1922.8    L1799.1,1922.8z M1800.2,1869.6c2,2,3.9,4.2,5.8,6.4c2.9-12.4,7-24.9,12.8-37.3C1811.2,1849.1,1805,1859.3,1800.2,1869.6    L1800.2,1869.6z M1732.4,1877.1c-2.7,14.9-3.2,29.5-2.4,43.7c2.7-9.9,5.9-19.8,9.8-29.5    C1737.8,1886.7,1735.3,1881.8,1732.4,1877.1L1732.4,1877.1z M1848,1877.1c-2.8,14.9-3.4,29.5-2.5,43.7c2.8-9.9,6-19.8,10-29.5    C1853.1,1886.7,1850.8,1881.8,1848,1877.1L1848,1877.1z M1583.4,1893.1c3.1-5.5,6.7-11.1,11.1-16.6c2.8,9.7,5.1,19.4,6.5,29.3    c-2.4,4.9-4.6,9.9-6.5,15.1C1591.4,1911.5,1587.7,1902.2,1583.4,1893.1L1583.4,1893.1z M1570.2,1902.7c-2.8,4.2-5.2,8.6-7.4,13.2    c-1.5-2.4-3.2-4.5-5.1-6.7c-0.6-8.2-1.5-16.5-3.2-24.8c1.8-3.4,3.8-7.1,6-10.5C1564.7,1883.4,1567.8,1893,1570.2,1902.7    L1570.2,1902.7z M1559.7,1922.8c-0.4,0.9-0.8,1.9-1.3,2.7c0-1.9,0-3.9-0.1-6C1558.8,1920.6,1559.3,1921.7,1559.7,1922.8    L1559.7,1922.8z M1558.6,1869.6c-2.1,2-3.9,4.2-5.8,6.4c-2.9-12.4-7.2-24.9-12.9-37.3C1547.5,1849.1,1553.6,1859.3,1558.6,1869.6    L1558.6,1869.6z M1626.2,1877.1c2.8,14.9,3.4,29.5,2.4,43.7c-2.7-9.9-5.9-19.8-9.8-29.5    C1620.9,1886.7,1623.4,1881.8,1626.2,1877.1L1626.2,1877.1z M1510.8,1877.1c2.7,14.9,3.2,29.5,2.4,43.7c-2.7-9.9-6-19.8-9.8-29.5    C1505.5,1886.7,1507.9,1881.8,1510.8,1877.1L1510.8,1877.1z M1333.4,1929.2c-0.7-4.1-1.7-8-2.9-11.9c-1.4,8.6-2.1,17.4-2.5,26.2    C1329.5,1938.6,1331.3,1933.9,1333.4,1929.2L1333.4,1929.2z M1320.2,1893.1c-3.1-5.5-6.7-11.1-10.9-16.6    c-2.9,9.7-5.1,19.4-6.6,29.3c2.4,4.9,4.6,9.9,6.6,15.1C1312.2,1911.5,1315.9,1902.2,1320.2,1893.1L1320.2,1893.1z M1217.5,1901.9    c2.5,3.8,4.8,7.7,6.9,11.6c2-3.9,4.2-7.8,6.7-11.6c0.6-5.8,1.5-11.8,2.7-17.6c-2.8-5.3-5.9-10.5-9.4-15.7    c-3.6,5.2-6.7,10.3-9.4,15.7C1216.1,1890.1,1216.9,1896.1,1217.5,1901.9L1217.5,1901.9z M1333.4,1902.7c2.8,4.2,5.3,8.6,7.4,13.2    c1.5-2.4,3.2-4.5,5.1-6.7c0.6-8.2,1.7-16.5,3.2-24.8c-1.8-3.4-3.8-7.1-5.9-10.5C1339,1883.4,1335.8,1893,1333.4,1902.7    L1333.4,1902.7z M1344.1,1922.8c0.4,0.9,0.7,1.9,1.1,2.7c0-1.9,0-3.9,0.1-6C1344.9,1920.6,1344.5,1921.7,1344.1,1922.8    L1344.1,1922.8z M1345.2,1869.6c2,2,3.9,4.2,5.8,6.4c2.8-12.4,7-24.9,12.8-37.3C1356.2,1849.1,1350,1859.3,1345.2,1869.6    L1345.2,1869.6z M1277.4,1877.1c-2.7,14.9-3.2,29.5-2.4,43.7c2.7-9.9,5.9-19.8,9.8-29.5    C1282.8,1886.7,1280.2,1881.8,1277.4,1877.1L1277.4,1877.1z M1392.9,1877.1c-2.8,14.9-3.4,29.5-2.5,43.7c2.8-9.9,6-19.8,10-29.5    C1398.1,1886.7,1395.7,1881.8,1392.9,1877.1L1392.9,1877.1z M1128.4,1893.1c3.1-5.5,6.7-11.1,11.1-16.6c2.8,9.7,5.1,19.4,6.5,29.3    c-2.4,4.9-4.6,9.9-6.5,15.1C1136.4,1911.5,1132.7,1902.2,1128.4,1893.1L1128.4,1893.1z M1115.2,1902.7c-2.8,4.2-5.2,8.6-7.4,13.2    c-1.5-2.4-3.2-4.5-5.1-6.7c-0.6-8.2-1.5-16.5-3.2-24.8c1.8-3.4,3.8-7.1,6-10.5C1109.7,1883.4,1112.8,1893,1115.2,1902.7    L1115.2,1902.7z M1104.7,1922.8c-0.4,0.9-0.8,1.9-1.3,2.7c0-1.9,0-3.9-0.1-6C1103.8,1920.6,1104.2,1921.7,1104.7,1922.8    L1104.7,1922.8z M1103.5,1869.6c-2.1,2-3.9,4.2-5.8,6.4c-2.9-12.4-7.2-24.9-12.9-37.3C1092.5,1849.1,1098.6,1859.3,1103.5,1869.6    L1103.5,1869.6z M1171.2,1877.1c2.7,14.9,3.4,29.5,2.4,43.7c-2.7-9.9-5.9-19.8-9.8-29.5    C1165.9,1886.7,1168.4,1881.8,1171.2,1877.1L1171.2,1877.1z M1055.8,1877.1c2.7,14.9,3.2,29.5,2.4,43.7c-2.7-9.9-6-19.8-9.8-29.5    C1050.5,1886.7,1052.9,1881.8,1055.8,1877.1L1055.8,1877.1z" clip-rule="evenodd"/><g><path fill="#feb542" fill-rule="evenodd" d="M1670,1178.5c91.4,0,165.9-74.5,165.9-165.9c0-91.3-74.5-165.9-165.9-165.9c-91.3,0-165.9,74.5-165.9,165.9     C1504.1,1104,1578.6,1178.5,1670,1178.5L1670,1178.5z" clip-rule="evenodd"/><path fill="#fff" d="M1671,1140.8c-68.5,0-124.3-55.7-124.3-124.3c0-68.5,55.7-124.3,124.3-124.3       c68.5,0,124.3,55.7,124.3,124.3C1795.3,1085,1739.6,1140.8,1671,1140.8z M1671,901.2c-63.6,0-115.4,51.7-115.4,115.4       c0,63.6,51.7,115.4,115.4,115.4c63.6,0,115.4-51.7,115.4-115.4C1786.4,952.9,1734.7,901.2,1671,901.2z"/><path fill="#fff" d="M1671,1140.8c-19.8,0-38.2-13.3-51.9-37.4c-13.2-23.3-20.5-54.2-20.5-86.8       c0-32.7,7.3-63.5,20.5-86.8c13.7-24.1,32.1-37.4,51.9-37.4c19.8,0,38.2,13.3,51.9,37.4c13.2,23.3,20.5,54.2,20.5,86.8       c0,32.7-7.3,63.5-20.5,86.8C1709.2,1127.5,1690.8,1140.8,1671,1140.8z M1671,901.2c-16.4,0-32.1,11.7-44.2,32.9       c-12.5,22-19.4,51.3-19.4,82.4s6.9,60.4,19.4,82.4c12,21.2,27.7,32.9,44.2,32.9c16.4,0,32.1-11.7,44.2-32.9       c12.5-22,19.4-51.3,19.4-82.4s-6.9-60.4-19.4-82.4C1703.2,912.8,1687.5,901.2,1671,901.2z"/><rect width="8.9" height="239.6" x="1666.6" y="896.7" fill="#fff"/><rect width="239.6" height="8.9" x="1551.2" y="1012.1" fill="#fff"/><path fill="#fff" d="M1671,961.6c-31,0-60.1-10.2-84.2-29.4l-4-3.2l3.8-3.5c23-21.4,53-33.2,84.5-33.2       c31.4,0,61.4,11.8,84.5,33.2l3.8,3.5l-4,3.2C1731.5,951.1,1701.6,961.6,1671,961.6z M1596.6,928.4       c21.6,15.9,47.3,24.3,74.4,24.3c26.8,0,53-8.6,74.4-24.3c-20.8-17.6-47.1-27.3-74.4-27.3       C1643.6,901.2,1617.4,910.8,1596.6,928.4z"/><path fill="#fff" d="M1671,1140.8c-31.4,0-61.4-11.7-84.5-33.1l-3.8-3.5l4-3.2       c24.2-19.3,53.3-29.5,84.2-29.5c30.5,0,60.4,10.5,84.2,29.5l4.1,3.2l-3.8,3.5C1732.4,1129,1702.4,1140.8,1671,1140.8z        M1596.6,1104.7c20.8,17.6,47,27.2,74.4,27.2c27.3,0,53.5-9.6,74.4-27.2c-21.5-15.7-47.7-24.3-74.4-24.3       C1643.9,1080.3,1618.3,1088.7,1596.6,1104.7z"/></g></svg>