<svg xmlns="http://www.w3.org/2000/svg" enable-background="new 0 0 1364 960" viewBox="0 0 1364 960"><path fill="#CEC6FE" d="M61.38,795.254c-0.614-3.994,3.097-7.651,7.088-8.23c3.99-0.58,7.976,1.159,11.38,3.346
	c5.507,3.538,9.762,7.93,14.007,12.716c-1.796-5.798-3.382-11.661-4.778-17.553c-0.923-3.897-1.761-7.817-2.514-11.756
	c-8.991,1.322-18.374-0.102-26.558-4.059c-3.102-1.5-6.327-3.776-6.842-7.182c-0.602-3.98,3.11-7.637,7.092-8.226
	c3.982-0.589,7.952,1.133,11.341,3.305c5.69,3.646,10.034,8.214,14.416,13.184c-2.184-12.163-3.513-24.486-3.762-36.832
	c-8.952-0.2-17.836-3.078-25.179-8.207c-2.825-1.972-5.649-4.731-5.618-8.176c0.037-4.024,4.282-7.047,8.307-6.997
	c4.024,0.049,7.671,2.379,10.673,5.061c4.864,4.345,8.354,9.338,11.772,14.717c-0.058-13.018,1.074-26.526,5.819-38.689
	c0.098-0.253,0.209-0.502,0.309-0.755c-8.94-1.432-17.436-5.577-24.044-11.77c-2.514-2.356-4.916-5.489-4.393-8.894
	c0.611-3.978,5.245-6.364,9.221-5.74c3.976,0.624,7.252,3.45,9.841,6.532c4.561,5.431,7.404,11.389,10.234,17.779
	c5.863-13.901,14.315-26.781,19.692-40.862c-9.109-1.362-17.783-5.537-24.506-11.837c-2.514-2.355-4.916-5.489-4.393-8.894
	c0.611-3.978,5.244-6.363,9.22-5.739c3.976,0.624,7.253,3.45,9.841,6.532c4.684,5.577,7.555,11.71,10.462,18.295
	c1.281-3.543,2.358-7.164,3.135-10.904c1.573-7.572,1.509-15.408,0.156-23.087c-9.348,1.188-19.055-0.591-27.36-5.047
	c-3.035-1.629-6.163-4.038-6.535-7.463c-0.434-4.001,3.429-7.5,7.431-7.921c4.003-0.421,7.897,1.466,11.191,3.778
	c6.042,4.239,10.434,9.509,15.003,15.211c-2.442-12.347-8.193-24.212-15.862-33.826c-8.55,0.037-17.106-2.357-24.371-6.871
	c-2.926-1.819-5.894-4.422-6.047-7.863c-0.179-4.021,3.899-7.267,7.92-7.432c4.021-0.165,7.788,1.966,10.929,4.483
	c5.011,4.015,8.725,8.728,12.37,13.824c0.214,0.093,0.419,0.237,0.602,0.456c6.711,8.036,11.736,17.422,15.011,27.354
	c0.722,2.19,1.368,4.417,1.93,6.668c1.181-8.233,4.627-16.14,9.907-22.57c2.186-2.663,5.156-5.264,8.588-4.965
	c4.01,0.349,6.693,4.817,6.33,8.825c-0.362,4.009-2.969,7.463-5.875,10.248c-5.421,5.193-11.557,8.505-18.164,11.945
	c0.97,4.771,1.496,9.627,1.322,14.486c-0.263,7.358-1.928,14.359-4.356,21.136c4.838-7.085,11.693-12.788,19.566-16.204
	c3.161-1.371,6.99-2.331,9.908-0.498c3.408,2.141,3.756,7.341,1.604,10.742c-2.152,3.401-6.047,5.285-9.904,6.436
	c-7.391,2.205-14.548,2.299-22.227,2.341c-4.328,11.061-10.494,21.565-15.681,32.109c-1.633,3.319-3.16,6.659-4.499,10.065
	c4.858-7.95,12.195-14.364,20.738-18.084c3.159-1.375,6.987-2.34,9.907-0.511c3.411,2.137,3.766,7.336,1.618,10.74
	c-2.147,3.404-6.04,5.293-9.896,6.449c-7.556,2.266-14.87,2.322-22.749,2.374c-1.387,3.646-2.542,7.374-3.341,11.248
	c-1.46,7.086-2.113,14.329-2.317,21.554c-0.055,1.921-0.073,3.844-0.066,5.767c3.699-7.596,9.527-14.152,16.67-18.669
	c2.912-1.842,6.548-3.379,9.712-2.018c3.698,1.591,4.843,6.675,3.24,10.366c-1.602,3.692-5.161,6.154-8.795,7.885
	c-6.714,3.199-13.514,4.424-20.788,5.605c0.245,12.061,1.628,24.122,3.779,35.992c1.795-8.632,6.123-16.731,12.345-22.981
	c2.431-2.441,5.636-4.747,9.023-4.121c3.958,0.731,6.202,5.435,5.458,9.39c-0.744,3.956-3.668,7.145-6.827,9.639
	c-5.996,4.732-12.542,7.455-19.585,10.3c0.298,1.571,0.604,3.141,0.927,4.704c1.773,8.583,3.941,17.118,6.576,25.503
	c1.877-8.38,6.143-16.222,12.205-22.31c2.431-2.442,5.635-4.747,9.023-4.122c3.958,0.732,6.202,5.435,5.458,9.391
	c-0.744,3.955-3.668,7.145-6.828,9.638c-5.831,4.603-12.182,7.304-19.003,10.066c3.118,9.523,6.854,18.839,11.329,27.791
	c0.932,1.865-2.024,3.182-2.954,1.321c-4.518-9.04-8.272-18.456-11.414-28.073c-9.034,1.318-18.475-0.132-26.714-4.136
	C65.148,800.964,61.907,798.672,61.38,795.254z"/><path fill="#FDC4FF" d="M117.692,798.239c7.206,6.327,27.32,7.888,31.248,16.752c-8.91,6.871-16.578-7.57-25.167-10.169
	c-8.304-1.557-0.938,21.687,9.873,27.956c8.617,5.479,18.202-3.414,39.166-3.328c17.92-0.183,20.978,4.811,29.911,1.094
	c16.342-6.804,22.571-30.344,20.673-31.578c-0.766-0.498-2.484,2.849-9.166,7.245c-0.272,0.915-28.299,14.775-22.71,2.954
	c9.108-10.849,24.303-1.91,33.088-17.325c6.583-11.56-2.252-28.492-3.661-28.248c2.308,9.673-17.186,26.272-28.002,26.995
	c-6.522-0.101-3.234-4.424,1.62-7.794c14.498-13.203,23.055-19.156,23.611-34.957c0.681-19.368-19.8-24.082-32.722-41.666
	c0,0-25.759,7.274-33.999,23.24c-7.931,15.366,10.244,22.138,12.323,33.672c1.388,4.905-3.777,8.918-7.956,7.538
	c-7.621-1.041-12.697-9.83-16.288-16.208c-5.944-10.57-5.583-15.583-8.207-15.795c-6.93-0.791-12.785,23.307-4.877,30.79
	c4.947,12.006,30.963,14.995,31.826,29.167c-9.03,4.939-30.881-12.848-36.539-22.372c-2.406-5.352-1.852-10.088-2.911-10.174
	C114.985,771.075,111.602,792.122,117.692,798.239z"/><path fill="#FFF" d="M129.279,816.777c1.67,2.485,3.941,4.524,6.571,5.948c2.551,1.385,5.365,2.077,8.25,2.246
	c3.163,0.179,6.315-0.176,9.463-0.442c3.411-0.282,6.84-0.389,10.262-0.266c1.545,0.06,3.114,0.097,4.643,0.327
	c1.274,0.191,2.608,0.607,3.337,1.752c0.008,0.013,0.021,0.011,0.03,0.024c-0.014,0.239-0.015,0.476-0.036,0.716
	c-0.061,0.799-0.142,1.601-0.257,2.399c0.114-0.013,0.223-0.011,0.338-0.01c0.193-1.444,0.309-2.907,0.338-4.367
	c0.006-0.008,0.012-0.015,0.011-0.022c0.177-0.602,0.486-1.178,0.835-1.705c0.325-0.496,0.725-1.042,1.272-1.306
	c0.818-0.388,1.791-0.469,2.684-0.54c0.894-0.065,1.797-0.11,2.695-0.135c6.322-0.176,12.698,0.502,18.978-0.483
	c5.161-0.813,10.325-2.766,13.922-6.693c0.145-0.158-0.116-0.373-0.267-0.208c-2.098,2.285-4.784,3.922-7.678,5.014
	c-5.665,2.136-11.774,2.154-17.754,2.062c-3.312-0.054-6.628-0.142-9.934,0.107c-1.216,0.094-2.64,0.204-3.526,1.135
	c-0.499,0.516-0.922,1.165-1.233,1.844c-0.026-4.103-0.698-8.168-1.355-12.208c-0.027-0.187-0.062-0.379-0.09-0.566
	c0,0,0,0,0.006-0.007c1.044-2.812,2.97-5.192,5.281-7.081c4.71-3.854,10.637-5.273,16.477-6.44c1.597-0.319,3.203-0.632,4.797-0.977
	c1.496-0.321,3.01-0.658,4.455-1.19c2.453-0.914,4.818-2.571,5.67-5.159c0.066-0.203-0.242-0.346-0.306-0.136
	c-1.07,3.255-4.391,4.781-7.472,5.595c-6.123,1.611-12.588,2.088-18.422,4.717c-4.479,2.019-8.676,5.423-10.592,10.045
	c-0.608-3.788-1.158-7.609-1.082-11.459c0.045-2.105,0.311-4.181,0.721-6.231c0.005-0.014,0.018-0.022,0.022-0.043
	c-0.002-0.02,0.002-0.041-0.001-0.068c0.377-1.857,0.866-3.693,1.418-5.509c0.92-3.022,1.98-5.998,2.935-9.009
	c2.123-2.559,4.864-4.542,7.666-6.294c5.025-3.15,10.703-5.471,14.949-9.726c3.775-3.791,6.268-9.744,3.92-14.932
	c-0.09-0.2-0.402-0.078-0.312,0.123c1.308,2.884,1.047,6.172-0.124,9.065c-2.268,5.596-7.596,8.942-12.651,11.763
	c-4.653,2.594-9.611,5.181-13.204,9.209c0.12-0.386,0.247-0.773,0.366-1.165c1.143-3.886,1.878-7.843,2.15-11.883
	c0.556-8.28-0.54-16.553-1.647-24.737c-0.024-0.214-0.358-0.177-0.335,0.037c0.138,1.001,0.275,2.002,0.406,3.004
	c1.033,7.887,1.892,15.909,1.049,23.854c-0.556-2.087-2.012-3.863-3.339-5.512c-1.664-2.065-3.509-4.538-3.014-7.357
	c0.037-0.214-0.293-0.266-0.331-0.052c-0.468,2.64,1.061,5.073,2.628,7.054c1.63,2.063,3.629,4.213,3.917,6.939
	c0.002,0.013,0.015,0.012,0.016,0.025c0,0,0,0,0.001,0.007c-0.509,3.979-1.555,7.821-2.794,11.63
	c-1.19,3.647-2.499,7.254-3.449,10.977c-0.09,0.355-0.172,0.717-0.255,1.072c-0.339-3.066-2.282-5.819-4.583-7.821
	c-2.661-2.315-5.989-3.675-9.206-5.02c-3.196-1.334-6.28-2.816-9.149-4.755c-5.522-3.74-10.165-8.735-13.48-14.521
	c-0.103-0.192-0.378,0.015-0.27,0.199c1.805,3.155,4.004,6.076,6.529,8.69c2.264,2.345,4.785,4.438,7.51,6.23
	c2.819,1.844,5.827,3.252,8.924,4.55c3.232,1.351,6.556,2.739,9.189,5.117c2.431,2.198,4.443,5.322,4.242,8.719
	c-0.59,3.005-0.851,6.042-0.707,9.122c0.209,4.225,1.001,8.393,1.658,12.561c0.053,0.36,0.106,0.714,0.158,1.067
	c-1.341-1.898-3.24-3.389-5.285-4.477c-2.196-1.174-4.621-1.847-7.011-2.505c-2.48-0.675-4.942-1.378-7.341-2.306
	c-4.656-1.796-9.061-4.203-13.086-7.146c-0.177-0.13-0.391,0.138-0.215,0.261c2.211,1.612,4.533,3.077,6.944,4.355
	c2.166,1.15,4.406,2.162,6.696,3.021c2.353,0.878,4.758,1.548,7.175,2.209c2.418,0.668,4.867,1.373,7.063,2.615
	c2.038,1.15,3.911,2.712,5.155,4.715c0.007,0.006,0.014-0.002,0.014,0.005c0.447,3.128,0.747,6.272,0.634,9.422
	c-0.753-0.933-1.932-1.358-3.099-1.555c-1.706-0.299-3.484-0.32-5.211-0.38c-3.345-0.105-6.688-0.007-10.024,0.273
	c-3.215,0.273-6.446,0.651-9.675,0.425c-2.936-0.204-5.765-0.976-8.312-2.449c-2.388-1.383-4.45-3.303-5.99-5.592
	C129.427,816.401,129.157,816.6,129.279,816.777z"/><path fill="#CEC6FE" d="M1307.308,788.76c0.614-3.994-3.097-7.651-7.088-8.23c-3.99-0.58-7.976,1.159-11.38,3.346
	c-5.507,3.538-9.762,7.93-14.006,12.716c1.796-5.798,3.381-11.661,4.778-17.553c0.923-3.897,1.761-7.817,2.514-11.756
	c8.991,1.322,18.374-0.102,26.558-4.059c3.102-1.5,6.327-3.776,6.842-7.182c0.602-3.98-3.11-7.637-7.091-8.226
	c-3.982-0.589-7.952,1.133-11.341,3.305c-5.69,3.646-10.034,8.214-14.416,13.184c2.184-12.163,3.513-24.486,3.762-36.832
	c8.953-0.2,17.836-3.078,25.178-8.207c2.825-1.972,5.649-4.731,5.618-8.176c-0.037-4.024-4.282-7.047-8.307-6.997
	c-4.025,0.049-7.671,2.379-10.673,5.061c-4.864,4.345-8.354,9.338-11.772,14.717c0.058-13.018-1.074-26.526-5.819-38.689
	c-0.098-0.253-0.209-0.502-0.309-0.754c8.94-1.432,17.436-5.577,24.044-11.77c2.514-2.356,4.916-5.489,4.393-8.894
	c-0.611-3.979-5.245-6.364-9.221-5.74c-3.976,0.624-7.252,3.45-9.841,6.532c-4.561,5.431-7.404,11.389-10.234,17.779
	c-5.863-13.901-14.315-26.781-19.692-40.862c9.109-1.362,17.783-5.537,24.505-11.837c2.514-2.355,4.916-5.489,4.393-8.894
	c-0.611-3.978-5.244-6.363-9.22-5.739c-3.976,0.624-7.253,3.45-9.841,6.532c-4.683,5.577-7.555,11.71-10.462,18.295
	c-1.281-3.543-2.358-7.164-3.135-10.904c-1.573-7.572-1.509-15.408-0.156-23.087c9.348,1.188,19.055-0.591,27.36-5.047
	c3.036-1.629,6.163-4.038,6.535-7.463c0.434-4.001-3.429-7.5-7.431-7.921c-4.003-0.421-7.897,1.466-11.191,3.778
	c-6.042,4.239-10.434,9.509-15.003,15.211c2.442-12.347,8.193-24.212,15.862-33.826c8.55,0.037,17.106-2.357,24.37-6.871
	c2.926-1.819,5.894-4.422,6.047-7.863c0.179-4.021-3.899-7.267-7.92-7.432c-4.021-0.165-7.788,1.966-10.929,4.483
	c-5.01,4.015-8.725,8.728-12.37,13.824c-0.214,0.093-0.419,0.237-0.602,0.456c-6.711,8.036-11.736,17.422-15.01,27.354
	c-0.722,2.19-1.368,4.417-1.93,6.668c-1.181-8.233-4.627-16.14-9.907-22.57c-2.186-2.663-5.156-5.264-8.588-4.965
	c-4.01,0.349-6.693,4.817-6.33,8.825c0.362,4.009,2.969,7.463,5.875,10.248c5.422,5.193,11.557,8.505,18.164,11.945
	c-0.97,4.771-1.496,9.627-1.322,14.486c0.263,7.358,1.928,14.359,4.356,21.136c-4.837-7.085-11.693-12.788-19.566-16.204
	c-3.161-1.371-6.99-2.331-9.907-0.498c-3.408,2.141-3.756,7.341-1.604,10.742c2.152,3.401,6.047,5.285,9.904,6.436
	c7.391,2.205,14.547,2.299,22.227,2.341c4.328,11.061,10.494,21.565,15.681,32.109c1.632,3.319,3.16,6.659,4.499,10.065
	c-4.858-7.95-12.195-14.364-20.738-18.084c-3.159-1.375-6.987-2.34-9.907-0.511c-3.411,2.137-3.766,7.336-1.618,10.74
	c2.147,3.404,6.041,5.293,9.896,6.449c7.556,2.266,14.87,2.322,22.749,2.374c1.388,3.646,2.542,7.374,3.341,11.248
	c1.46,7.086,2.113,14.329,2.317,21.554c0.055,1.921,0.073,3.844,0.066,5.767c-3.698-7.596-9.527-14.152-16.67-18.669
	c-2.911-1.842-6.547-3.379-9.712-2.018c-3.698,1.591-4.843,6.675-3.24,10.366c1.603,3.692,5.161,6.154,8.795,7.885
	c6.714,3.199,13.514,4.424,20.788,5.605c-0.245,12.061-1.628,24.122-3.779,35.992c-1.795-8.633-6.123-16.731-12.345-22.981
	c-2.431-2.441-5.636-4.747-9.023-4.121c-3.958,0.731-6.202,5.435-5.457,9.39c0.743,3.956,3.667,7.145,6.827,9.639
	c5.995,4.732,12.542,7.455,19.585,10.3c-0.298,1.571-0.604,3.141-0.927,4.704c-1.773,8.583-3.941,17.117-6.576,25.503
	c-1.876-8.38-6.143-16.222-12.205-22.31c-2.431-2.442-5.635-4.747-9.023-4.122c-3.958,0.732-6.202,5.435-5.458,9.391
	c0.744,3.955,3.668,7.145,6.828,9.639c5.831,4.603,12.182,7.304,19.003,10.066c-3.118,9.523-6.855,18.839-11.329,27.791
	c-0.932,1.865,2.024,3.182,2.954,1.321c4.518-9.04,8.272-18.456,11.414-28.073c9.035,1.318,18.475-0.132,26.714-4.136
	C1303.541,794.47,1306.781,792.178,1307.308,788.76z"/><path fill="#FDC4FF" d="M1250.996,791.745c-7.206,6.327-27.319,7.887-31.247,16.752c8.91,6.871,16.578-7.57,25.167-10.169
	c8.304-1.557,0.938,21.687-9.873,27.956c-8.617,5.479-18.202-3.414-39.166-3.328c-17.92-0.183-20.978,4.811-29.911,1.094
	c-16.342-6.804-22.571-30.344-20.673-31.578c0.766-0.498,2.484,2.849,9.166,7.245c0.272,0.915,28.299,14.775,22.71,2.954
	c-9.108-10.849-24.303-1.91-33.088-17.325c-6.583-11.56,2.252-28.492,3.661-28.248c-2.309,9.673,17.186,26.272,28.002,26.995
	c6.522-0.101,3.234-4.424-1.62-7.794c-14.498-13.203-23.055-19.156-23.61-34.957c-0.681-19.368,19.8-24.082,32.722-41.666
	c0,0,25.759,7.274,33.999,23.24c7.931,15.366-10.244,22.138-12.323,33.672c-1.388,4.905,3.777,8.918,7.956,7.538
	c7.621-1.041,12.697-9.83,16.288-16.208c5.944-10.57,5.583-15.583,8.208-15.795c6.93-0.791,12.785,23.307,4.877,30.79
	c-4.947,12.006-30.963,14.995-31.826,29.167c9.03,4.939,30.881-12.848,36.539-22.372c2.406-5.352,1.852-10.088,2.911-10.174
	C1253.703,764.581,1257.087,785.628,1250.996,791.745z"/><path fill="#FFF" d="M1239.41,810.283c-1.67,2.485-3.941,4.524-6.571,5.948c-2.551,1.385-5.365,2.077-8.25,2.246
	c-3.163,0.179-6.315-0.176-9.463-0.442c-3.411-0.282-6.84-0.389-10.262-0.266c-1.545,0.06-3.114,0.097-4.643,0.327
	c-1.275,0.191-2.608,0.607-3.337,1.752c-0.008,0.013-0.021,0.011-0.03,0.024c0.014,0.239,0.015,0.476,0.036,0.716
	c0.061,0.799,0.142,1.601,0.257,2.399c-0.114-0.012-0.223-0.011-0.338-0.01c-0.193-1.444-0.309-2.907-0.338-4.367
	c-0.006-0.008-0.012-0.015-0.011-0.022c-0.177-0.602-0.486-1.178-0.835-1.705c-0.325-0.496-0.725-1.042-1.272-1.306
	c-0.818-0.388-1.791-0.469-2.684-0.54c-0.894-0.065-1.797-0.11-2.695-0.135c-6.322-0.176-12.698,0.502-18.978-0.483
	c-5.161-0.813-10.325-2.766-13.922-6.693c-0.145-0.158,0.116-0.373,0.267-0.207c2.099,2.285,4.784,3.922,7.678,5.014
	c5.665,2.136,11.774,2.154,17.753,2.062c3.312-0.054,6.628-0.142,9.934,0.108c1.216,0.094,2.64,0.204,3.526,1.135
	c0.499,0.516,0.922,1.165,1.233,1.844c0.026-4.103,0.699-8.168,1.355-12.208c0.027-0.187,0.062-0.38,0.09-0.566c0,0,0,0-0.006-0.007
	c-1.044-2.812-2.97-5.192-5.281-7.08c-4.71-3.854-10.637-5.273-16.478-6.44c-1.597-0.319-3.203-0.632-4.797-0.977
	c-1.495-0.321-3.01-0.658-4.455-1.19c-2.453-0.914-4.818-2.571-5.67-5.158c-0.066-0.203,0.242-0.346,0.306-0.136
	c1.07,3.255,4.391,4.781,7.472,5.595c6.123,1.611,12.588,2.088,18.422,4.717c4.479,2.019,8.676,5.423,10.592,10.045
	c0.608-3.788,1.158-7.609,1.082-11.459c-0.046-2.105-0.311-4.181-0.721-6.231c-0.005-0.014-0.018-0.022-0.022-0.043
	c0.002-0.02-0.002-0.041,0.001-0.068c-0.377-1.857-0.866-3.693-1.417-5.509c-0.92-3.022-1.98-5.998-2.935-9.009
	c-2.123-2.559-4.865-4.542-7.666-6.294c-5.025-3.15-10.703-5.471-14.949-9.726c-3.775-3.791-6.268-9.744-3.92-14.932
	c0.09-0.2,0.402-0.078,0.312,0.123c-1.308,2.884-1.047,6.172,0.124,9.065c2.268,5.596,7.597,8.942,12.651,11.763
	c4.653,2.594,9.611,5.181,13.204,9.209c-0.12-0.386-0.247-0.773-0.366-1.165c-1.143-3.886-1.878-7.843-2.15-11.883
	c-0.556-8.28,0.54-16.553,1.647-24.737c0.024-0.214,0.358-0.177,0.335,0.037c-0.138,1.001-0.275,2.002-0.406,3.004
	c-1.033,7.887-1.892,15.909-1.049,23.854c0.556-2.087,2.012-3.863,3.339-5.512c1.664-2.065,3.509-4.538,3.014-7.357
	c-0.037-0.214,0.293-0.266,0.331-0.051c0.468,2.639-1.061,5.072-2.628,7.054c-1.63,2.063-3.629,4.213-3.917,6.939
	c-0.001,0.013-0.015,0.012-0.016,0.025c0,0,0,0-0.001,0.007c0.509,3.979,1.555,7.821,2.794,11.63
	c1.19,3.647,2.499,7.254,3.449,10.977c0.09,0.355,0.172,0.717,0.255,1.072c0.339-3.066,2.282-5.819,4.583-7.821
	c2.661-2.315,5.989-3.675,9.206-5.02c3.196-1.334,6.28-2.816,9.149-4.755c5.522-3.74,10.165-8.735,13.48-14.521
	c0.103-0.192,0.378,0.015,0.269,0.199c-1.805,3.155-4.004,6.076-6.529,8.69c-2.264,2.345-4.785,4.438-7.51,6.23
	c-2.819,1.844-5.827,3.252-8.924,4.55c-3.232,1.351-6.556,2.738-9.189,5.117c-2.431,2.198-4.443,5.322-4.242,8.719
	c0.59,3.005,0.851,6.042,0.707,9.122c-0.209,4.225-1.001,8.393-1.658,12.561c-0.053,0.36-0.106,0.714-0.158,1.067
	c1.341-1.898,3.24-3.389,5.285-4.477c2.196-1.174,4.621-1.848,7.011-2.505c2.48-0.675,4.942-1.378,7.341-2.306
	c4.656-1.796,9.061-4.203,13.086-7.146c0.177-0.129,0.391,0.138,0.215,0.261c-2.211,1.612-4.533,3.077-6.944,4.355
	c-2.166,1.15-4.406,2.162-6.696,3.021c-2.353,0.878-4.758,1.547-7.175,2.209c-2.418,0.668-4.867,1.374-7.063,2.615
	c-2.038,1.15-3.911,2.712-5.155,4.715c-0.007,0.006-0.014-0.002-0.014,0.005c-0.447,3.128-0.747,6.272-0.634,9.422
	c0.753-0.933,1.932-1.358,3.099-1.555c1.706-0.299,3.484-0.32,5.211-0.38c3.345-0.105,6.688-0.007,10.024,0.273
	c3.215,0.273,6.446,0.651,9.675,0.425c2.936-0.204,5.765-0.976,8.313-2.449c2.388-1.383,4.45-3.303,5.99-5.592
	C1239.262,809.907,1239.531,810.106,1239.41,810.283z"/><path fill="#E2E1FF" d="M1314.391,841.678c-7.104-1.739-30.974-2.981-41.268-3.939c20.318-2.64,63.976-2.649,63.976-11.591
	c0-6.454-46.886-6.145-46.886-6.145l-1058.988-0.763c-18.239,0.33-48.213,0.13-50.984,3.659c-2.496,3.177,11.76,3.921,5.483,5.199
	c-9.572,1.949-93.597,3.233-138.615,6.169c-7.966,0.519-16.877,1.255-19.491,2.81c-4.602,2.739,13.916,4.793,28.698,4.874
	c14.781,0.081,32.343-0.347,41.682,1.887c4.95,1.184,5.995,2.84,10.705,4.06c7.664,1.987,22.203,2.241,34.954,2.322
	c79.48,0.509,158.96,1.018,238.44,1.527c-5.962,0.523-6.012,2.319-1.615,3.261c4.398,0.943,11.28,1.24,17.72,1.459
	c46.611,1.581,94.202,1.587,141.514,1.588c140.862,0.004,281.726,0.008,422.589,0.011c30.839,0.001,66.526-0.454,84.596-5.324
	c3.897-1.05,6.929-2.3,12.641-2.964c5.703-0.663,12.799-0.59,19.424-0.504c69.499,0.904,139.256,1.053,208.84,0.448
	c10.452-0.091,22.187-0.319,28.82-1.896C1323.858,846.108,1321.495,843.417,1314.391,841.678z"/><path fill="#F1CCCD" d="M1125.078,664.297c0,0-2.191,11.174-6.696,18.884c-0.992,1.688-2.091,3.22-3.307,4.417
	c-7.65,7.592-34.422,8.316-34.422,8.316c-3.951,5.218-11.275,6.136-14.338,2.722c-1.795-2.009,7.379-2.841,8.715-5.532
	c0,0-4.551-1.527-3.299-3.281c0.717-1.002,5.001-1.03,9.005,0.253c9.849-4.468,15.502-5.013,25.211-9.367
	c4.29-7.505,12.57-15.579,13.541-19.442L1125.078,664.297z"/><path fill="#EBBB6A" d="M1127.381,665.542c0,0-5.338,16.565-9.844,24.274l-11.228-10.883c8.845-15.488,12.365-17.219,16.131-19.532
	L1127.381,665.542z"/><path fill="#4642B8" d="M972.032,662.591c9.885-1.977,19.836-0.055,29.084,3.673c8.407,3.388,15.429,9.181,23.047,13.997
	c11.139,7.041,22.784,13.304,35.063,18.123c17.759,6.97,36.63,9.956,55.591,7.341c15.986-2.205,31.044-8.011,46.246-13.15
	c17.145-5.796,34.581-10.218,52.776-10.521c30.913-0.515,61.002,9.482,88.77,22.288c4.998,2.305,9.378-5.114,4.346-7.435
	c-26.05-12.014-53.709-21.617-82.563-23.249c-19.375-1.096-38.489,2.061-56.958,7.792c-15.678,4.865-30.923,11.316-47.051,14.632
	c-18.093,3.72-36.216,1.996-53.618-4.056c-14.231-4.949-27.561-12.309-40.2-20.44c-8.225-5.291-15.683-10.875-24.941-14.314
	c-10.276-3.816-21.091-5.143-31.88-2.985C964.314,655.375,966.612,663.676,972.032,662.591L972.032,662.591z"/><path fill="#4642B8" d="M1116.816,632.963c0.713-4.091,5.366-6.97,9.334-4.728c1.514,0.856,3.03,1.696,4.655,2.314
	c1.693,0.643,3.584,0.497,5.335,0.96c4.053,1.072,6.715,5.816,5.516,9.834c-0.666,2.232-2.337,4.398-1.7,6.638
	c0.65,2.287,3.28,3.222,5.315,4.45c1.643,0.992,3.092,2.425,3.728,4.236c0.635,1.811,0.314,4.021-1.089,5.33
	c-1.005,0.937-2.503,1.411-3.104,2.647c-0.744,1.528,0.274,3.28,1.162,4.729c0.888,1.449,1.64,3.44,0.52,4.718
	c-0.913,1.041-2.558,0.946-3.89,0.569c-1.333-0.377-2.718-0.955-4.055-0.591c-1.434,0.391-2.367,1.748-3.627,2.537
	c-1.44,0.902-3.288,1.012-4.918,0.533c-1.63-0.479-3.06-1.5-4.258-2.704c-2.702-2.716-1.891-7.475-4.484-10.294
	c-4.711-5.122-3.528-14.395,2.173-18.898C1123.429,645.241,1115.508,640.463,1116.816,632.963z"/><path fill="#F1CCCD" d="M1127.962,783.182c0.593,6.214,0.78,11.728,0.648,16.8c-0.329,12.957-1.921,21.278-5.049,33.379
	l-1.795,5.841l-5.105,2.386l0.964-8.198c0,0-3.34-25.18-4.855-42.966c-0.395-4.515-0.648-8.529-0.681-11.529
	c-0.23-17.129,12.382-63.245,13.194-66.231l0.033-0.114l0.011-0.043l18.207-0.573
	C1150.714,747.193,1139.488,753.823,1127.962,783.182z"/><path fill="#F1CCCD" d="M1163.908,841.152l-0.132-10.35c0,0-9.994-18.87-18.468-30.265c-2.014-2.728-3.896-5.103-5.478-6.843
	c-11.312-12.415-22.745-79.167-22.745-79.167l16.681-1.529c14.485,14.148,13.128,35.58,15.428,56.419
	c0.797,7.224,3.259,14.033,6.879,19.844c0.729,1.171,1.423,2.36,2.088,3.584c4.63,8.539,7.536,19.001,11.193,35.932l2.797,4.799
	L1163.908,841.152z"/><path fill="#4642B8" d="M1118.252,710.626l23.625-4.494c24.167,24.335,8.548,52.483,16.024,75.858
	c-14.741,2.422-25.305,8.423-52.365,1.965C1106.583,751.176,1112.777,741.301,1118.252,710.626z"/><path fill="#4642B8" d="M1173.008,834.447c0.202,1.8,1.646,8.801,1.998,9.416l-1.696,0.842l-2.516-5.417
	c0,0-2.143,1.392-2.707,3.664c-0.564,2.272-0.81,4.195-3.515,5.371c-2.706,1.176-6.669,3.139-7.015,1.295
	c-0.347-1.844,4.583-7.262,5.417-10.785c0.927-3.911,0.803-8.032,0.803-8.032c2.416,0.143,3.875-0.362,5.578-2.026
	C1169.355,828.776,1172.807,832.647,1173.008,834.447z"/><path fill="#4642B8" d="M1125.091,839.93c-0.416,1.763-1.413,8.841-1.287,9.539l-1.881,0.222l-0.546-5.947
	c0,0-2.486,0.589-3.782,2.539c-1.296,1.949-2.174,3.678-5.118,3.875c-2.944,0.197-7.336,0.712-7.042-1.142
	c0.294-1.853,6.76-5.296,8.732-8.332c2.189-3.371,3.459-7.293,3.459-7.293c2.227,0.948,3.771,0.964,5.935-0.03
	C1123.56,833.361,1125.507,838.168,1125.091,839.93z"/><path fill="#FFD182" d="M1115.374,719.54c6.662-26.526-5.896-40.713,2.981-56.807c0,0,0.002-0.041,0.042-0.039
	c0.725-0.861,1.592-1.57,2.485-2.285c0.002-0.041,0.042-0.039,0.042-0.039c0.882-0.875,3.809-2.735,3.809-2.735l6.224-1.099
	c0,0,9.731,2.091,13.274,7.157c9.127,13.05-1,38.256,5.58,52.541C1143.152,721.206,1122.203,724.436,1115.374,719.54z"/><path fill="#F1CCCD" d="M1130.956,656.536c-3.512,2.693-5.847,3.481-6.224,1.099l-0.311-4.379l-0.463-6.65l5.674,0.238l0.758,5.509
	L1130.956,656.536z"/><path fill="#F0B4B4" d="M1130.39,652.352c-0.675,0.384-1.511,0.679-2.428,0.928c-1.249,0.319-2.441,0.269-3.541-0.024l-0.463-6.65
	l5.674,0.238L1130.39,652.352z"/><path fill="#F1CCCD" d="M1120.73,636.695c0,0-2.213,14.073,4.088,14.621c6.301,0.547,7.027-6.711,7.027-6.711
	s3.152-2.313,2.035-4.397c-1.116-2.084-3.998,0.388-3.998,0.388C1126.612,641.628,1123.543,640.527,1120.73,636.695z"/><path fill="#F1CCCD" d="M1143.215,679.567c0,0-6.23,9.977-12.32,15.826c-1.459,1.389-2.898,2.539-4.246,3.273
	c-9.343,5.075-32.493,5.033-32.493,5.033c-7.889,3.776-15.198,2.665-17.35,0.209c-3.816-4.396,8.941-0.536,9.683-3.575
	c0,0-5.55-0.859-4.063-3.05c1.086-1.599,9.94-0.294,9.94-0.294c14.695-3.498,18.006-7.461,26.975-9.306
	c0.587-1.117,1.175-2.234,1.788-3.34c4.448-7.941,9.85-15.353,17.816-20.871C1143.825,668.333,1144.444,673.822,1143.215,679.567z"/><path fill="#EBBB6A" d="M1133.037,695.345l-13.538-11.544c4.448-7.942,12.697-25.144,20.797-19.825
	C1151.082,671.058,1139.128,689.496,1133.037,695.345z"/><path fill="#4642B8" d="M250.843,623.201c0,0,2.594-4.644,0.974-9.663c-1.62-5.019-8.192-9.506-14.681-6.254
	c-2.205,1.105-3.048,3.436-3.048,3.436s-2.935,0.126-5.117,3.005c-1.645,2.171-4.224,6.608-1.461,15.351
	c3.333,10.547-12.172,17.307-8.951,25.022c3.221,7.715,11.568,2.676,13.033,6.217c1.465,3.541,12.649,2.72,19.775,0
	C259.432,657.237,253.338,625.353,250.843,623.201z"/><path fill="#F1CCCD" d="M249.306,648.006c0,0,1.336,11.308,5.243,19.338c0.861,1.758,1.841,3.369,2.962,4.655
	c7.051,8.151,33.692,10.904,33.692,10.904c3.544,5.503,10.776,6.974,14.09,3.802c1.942-1.867-7.142-3.393-8.27-6.177
	c0,0,4.654-1.177,3.538-3.021c-0.639-1.053-4.909-1.407-8.998-0.432c-9.481-5.203-15.076-6.176-24.428-11.253
	c-3.708-7.809-11.351-16.488-12.026-20.414L249.306,648.006z"/><path fill="#E761EB" d="M246.915,649.072c0,0,4.066,16.922,7.973,24.952l12.022-10c-7.644-16.114-11.022-18.108-14.602-20.7
	L246.915,649.072z"/><path fill="#4642B8" d="M452.999,567.06c-14.79,1.721-28.295,7.058-39.949,16.38c-10.878,8.702-19.36,19.982-27.083,31.471
	c-15.139,22.523-28.464,49.383-53.792,62.113c-16.054,8.07-33.165,7.359-50.565,5.814c-25.226-2.24-50.543-3.838-75.876-3.945
	c-33.814-0.143-68.329,2.217-100.755,12.455c-27.648,8.729-52.241,23.581-76.131,39.693c-4.57,3.082-0.265,10.545,4.346,7.435
	c20.885-14.085,42.323-27.562,66.139-36.145c30.263-10.906,62.54-14.229,94.527-14.758c23.366-0.386,46.744,0.693,70.041,2.426
	c20.29,1.51,40.962,5.305,60.868-0.804c27.607-8.473,44.274-32.209,59.152-55.355c16.948-26.368,35.186-54.227,69.077-58.17
	C458.439,575.038,458.503,566.42,452.999,567.06L452.999,567.06z"/><path fill="#FFCBC7" d="M241.619,821.938c0.184,2.417-2.521,4.951-2.667,7.436c10.282,2.197,20.65,3.986,31.016,5.802
	c-1.762-8.378-12.15-7.905-18.999-10.605c0-41.734,17.583-90.253,7.899-131.41c-3.236-0.073-3.469,0.895-7.27,0.739
	c-3.801-0.156-10.304-0.608-14.668-0.879C235.643,731.111,241.364,818.596,241.619,821.938z"/><path fill="#FFCBC7" d="M181.307,783.446c-2.306-0.802-4.993,1.704-7.316,1.114c2.083,9.524,5.149,15.375,9.509,24.132
	c2.663-5.437,1.798-10.797,2.8-16.606c6.954-1.685,43.464-14.165,48.454-25.125c9.249-20.316,21.855-43.528,17.134-73.058
	c-6.111-0.19-12.222-0.72-18.309-1.007c-11.397,16.405-14.324,60.452-17.179,65.293
	C210.863,767.578,183.892,780.155,181.307,783.446z"/><path fill="#4642B8" d="M263.072,827.442c2.545,1.239,10.868,3.019,8.835,7.833c-2.034,4.814-26.793,0.046-31.15-2.487
	c-4.356-2.532-0.325-7.536,0.996-10.468c3.914,7.818,15.382,12.027,22.991,8.76C267.604,829.852,263.568,827.952,263.072,827.442z"/><path fill="#4642B8" d="M185.195,802.118c-0.129,1.754,1.525,11.126-2.784,10.239c-4.31-0.887-11.79-24.172-9.979-28.597
	c2.069-5.055,7.136-1.015,8.805-0.339c-6.182,4.307-2.933,17.59,1.914,20.862C184.837,805.421,185.234,802.922,185.195,802.118z"/><path fill="#4642B8" d="M203.113,755.132c0,0,5.806,6.416,11.263,5.088c0,0,6.046,9.161,15.542,2.834
	c7.196,4.452,14.383,4.452,21.579,0c9.487,6.326,15.542-2.834,15.542-2.834c5.457,1.328,11.263-5.088,11.263-5.088
	c-5.21-24.522-16.473-45.466-19.204-62.889l-26.137,0.865C224.883,701.149,219.71,734.707,203.113,755.132z"/><path fill="#FB78FF" d="M230.577,695.358c-0.071,0.531,7.565,3.977,16.221,1.737c9.262-2.397,14.068,2.597,13.745-1.835
	c-1.123-15.393-1.276-21.813-0.094-28.377c2.087-11.585-1.432-23.72-11.842-24.949l-8.419-0.075
	c-9.424,2.015-11.608,11.307-12.268,15.459C226.26,667.773,232.824,678.617,230.577,695.358z"/><path fill="#F1CCCD" d="M240.234,641.88c3.005,3.005,5.839,3.58,8.374,0.053l-0.714-5.796l-0.298-2.44h-6.649l-0.128,1.513
	L240.234,641.88z"/><path fill="#F0B4B4" d="M240.82,635.211c1.022,1.247,2.099,1.863,3.601,1.906c1.31,0.043,2.653-0.116,3.473-0.979l-0.298-2.44
	h-6.649L240.82,635.211z"/><path fill="#F1CCCD" d="M249.414,616.939c0.65,2.375,1.29,5.795,1.435,9.044c0.175,4.092-0.443,7.923-2.835,9.113
	c-2.628,1.3-7.18,0.58-10.659-3.636c0,0-0.034-0.023-0.1-0.064c-0.558-0.371-3.267-2.251-3.055-3.948
	c0.321-2.53,2.688-1.202,2.688-1.202s-4.647-8.709,3.096-12.335C242.885,612.55,249.414,616.939,249.414,616.939z"/><path fill="#4642B8" d="M251.355,621.896c0,0-0.911-0.188-1.77-5.422c-2.609,4.525-5.091,6.068-7.957,7.134
	c0.127-1.89-0.697-4.767-1.354-4.786c0,0,0.33,2.656-1.593,4.922c-1.607,1.895-0.103,5.333-0.103,5.333s-3.048-2.12-4.733-5.546
	c-1.694-3.445-0.898-3.174-0.898-3.174s1.454-4.864,1.23-5.245c-0.779-1.329,8.071-5.261,8.431-4.865l5.363-0.279l2.871,2.567
	l1.466,4.255L251.355,621.896z"/><path fill="#F1CCCD" d="M234.59,670.068c0,0,6.466,9.825,12.695,15.527c1.491,1.354,2.958,2.469,4.323,3.171
	c9.462,4.85,32.604,4.255,32.604,4.255c7.977,3.586,15.257,2.301,17.35-0.205c3.71-4.486-8.951-0.322-9.766-3.343
	c0,0,5.528-0.991,3.989-3.146c-1.124-1.573-9.944-0.056-9.944-0.056c-14.774-3.146-18.179-7.029-27.19-8.658
	c-0.614-1.103-1.228-2.205-1.867-3.296c-4.637-7.832-10.214-15.113-18.309-20.439C233.713,658.852,233.224,664.354,234.59,670.068z"/><path fill="#E761EB" d="M245.142,685.598l13.259-11.864c-4.637-7.833-13.294-24.833-21.265-19.322
	C226.523,661.75,238.914,679.896,245.142,685.598z"/><path fill="#F9CBCB" d="M559.612,623.785c0,0-5.972,33.628-14.694,35.949c-3.948,1.05-9.019,0.169-13.861-1.47
	c-8.188-2.771-15.714-7.698-15.975-9.043l-8.307-25.215c4.781,2.06,32.021,17.588,34.246,19.076
	c3.604-5.41,11.42-19.487,11.676-20.521c0,0-1.686-7.586-0.197-9.721c1.324-1.89,1.811,4.308,2.37,3.556
	c0.609-0.827,4.217-9.599,6.617-7.036C566.817,615.071,559.612,623.785,559.612,623.785z"/><path fill="#EBBB6A" d="M536.425,639.511c-0.624,6.58-4.44,15.476-4.838,19.599c-8.188-2.77-18.06-3.698-18.32-5.043l-6.492-30.061
	C511.557,626.066,526.921,633.871,536.425,639.511z"/><path fill="#A294FE" d="M483.258,537.911h-7.42c-20.089,0-36.375,16.285-36.375,36.375c0,20.09,16.286,36.376,36.375,36.376h7.42
	c6.089,0,11.025-4.936,11.025-11.025v-50.701C494.283,542.846,489.347,537.911,483.258,537.911z"/><path fill="#897AEB" d="M483.258,537.911h-7.42c-1.034,0-2.055,0.053-3.068,0.138c0.245,0.914,0.387,1.869,0.387,2.859v50.701
	c0,6.089-4.936,11.025-11.025,11.025h-7.42c-0.574,0-1.145-0.017-1.713-0.044c6.244,5.045,14.186,8.07,22.838,8.07h7.42
	c6.089,0,11.025-4.936,11.025-11.024v-50.701C494.283,542.846,489.347,537.911,483.258,537.911z"/><path fill="#A294FE" d="M597.058,503.464h-54.503c-27.535,0-49.856,22.321-49.856,49.855v35.491
	c0,27.535,22.321,49.856,49.856,49.856h54.503c5.834,0,10.563-4.729,10.563-10.563V514.026
	C607.62,508.193,602.891,503.464,597.058,503.464z"/><path fill="#897AEB" d="M607.198,629.476h-54.504c-27.534,0-49.856-22.321-49.856-49.856v-35.491c0-12.188,4.38-23.349,11.643-32.01
	c-13.148,8.977-21.783,24.078-21.783,41.2v35.491c0,27.535,22.321,49.856,49.856,49.856h54.503c5.372,0,9.799-4.014,10.466-9.206
	C607.414,629.462,607.308,629.476,607.198,629.476z"/><path fill="#A294FE" d="M497.135,509.801c-8.867,0-16.055,7.188-16.055,16.055v90.417c0,8.868,7.188,16.055,16.055,16.055
	c8.867,0,16.055-7.188,16.055-16.055v-90.417C513.19,516.989,506.002,509.801,497.135,509.801z"/><path fill="#897AEB" d="M501.674,510.462c1.765,2.578,2.802,5.696,2.802,9.057v90.417c0,8.867-7.189,16.055-16.055,16.055
	c-1.578,0-3.099-0.237-4.539-0.661c2.892,4.224,7.747,6.999,13.253,6.999c8.867,0,16.055-7.189,16.055-16.055v-90.417
	C513.19,518.567,508.329,512.422,501.674,510.462z"/><ellipse cx="600.174" cy="571.064" fill="#897AEB" rx="26.882" ry="67.225"/><ellipse cx="607.092" cy="571.408" fill="#E0DBFF" rx="24.083" ry="66.882"/><path fill="#A294FE" d="M659.69,548.883h-47.101c-2.278,0-4.124-1.846-4.124-4.124v-4.163c0-2.278,1.846-4.124,4.124-4.124h47.101
	c2.278,0,4.124,1.846,4.124,4.124v4.163C663.814,547.036,661.967,548.883,659.69,548.883z"/><path fill="#897AEB" d="M657.608,545.239h-42.938c-2.789,0-5.12-1.852-5.902-4.384c-0.179,0.58-0.303,1.183-0.303,1.822
	c0,3.427,2.779,6.206,6.206,6.206h42.938c3.427,0,6.206-2.779,6.206-6.206c0-0.639-0.125-1.242-0.304-1.822
	C662.728,543.387,660.397,545.239,657.608,545.239z"/><path fill="#A294FE" d="M659.69,604.654h-47.101c-2.278,0-4.124-1.846-4.124-4.124v-4.163c0-2.278,1.846-4.124,4.124-4.124h47.101
	c2.278,0,4.124,1.846,4.124,4.124v4.163C663.814,602.807,661.967,604.654,659.69,604.654z"/><path fill="#897AEB" d="M657.608,601.01h-42.938c-2.789,0-5.12-1.852-5.902-4.384c-0.179,0.58-0.303,1.183-0.303,1.822
	c0,3.427,2.779,6.206,6.206,6.206h42.938c3.427,0,6.206-2.779,6.206-6.206c0-0.639-0.125-1.242-0.304-1.822
	C662.728,599.158,660.397,601.01,657.608,601.01z"/><path fill="#F1CCCD" d="M504.582,767.388c-1.72,6.407-2.783,12.156-3.346,17.502c-1.449,13.657-1.04,34.685,1.458,47.977
	l7.003-0.688c0,0,9.893-35.924,14.567-54.294c1.202-4.661,2.134-8.825,2.619-11.966c2.825-17.926-7.638-68.713-8.309-72.001
	l-0.028-0.126l-0.009-0.047l-28.177-3.936C475.39,725.43,493.148,734.39,504.582,767.388z"/><path fill="#4642B8" d="M491.297,738.119c3.976,8.181,9.059,17.081,13.285,29.269c-1.559,5.803-3.334,11.835-5.386,18.868
	l24.37,3.404c1.201-4.661,2.832-20.6,3.317-23.741c2.825-17.926-7.638-68.713-8.309-72.001l-0.028-0.126l-0.009-0.047l-28.177-3.936
	C480.91,712.28,484.495,724.135,491.297,738.119z"/><path fill="#3732A8" d="M491.297,738.119c3.976,8.181,9.059,17.081,13.285,29.269c-1.559,5.803-3.334,11.835-5.386,18.868
	l4.497,0.628c0.771-6.958,6.918-18.397,8.982-18.029c-1.828-0.452-14.191-13.608-5.962-51.732L491.297,738.119z"/><path fill="#F1CCCD" d="M475.083,841.067l-17.168-19.9c0,0,12.606-19.688,22.806-32.779c2.421-3.133,4.706-5.872,6.658-7.9
	c13.968-14.468,21.263-87.38,21.263-87.38h-23.094c-18.105,16.643-13.545,39.558-14.079,62.196
	c-0.185,7.846-2.708,15.412-6.946,22.018c-0.853,1.331-1.657,2.679-2.416,4.06c-5.282,9.64-8.414,20.945-11.305,39.513
	l-3.575,12.052L475.083,841.067z"/><path fill="#4642B8" d="M460.942,780.989l6.673,3.057l13.56,6.205c2.421-3.132,4.252-7.732,6.204-9.761
	c13.968-14.468,22.988-87.668,22.988-87.668l-23.835,0.272l-0.984,0.015c-17.499,16.086-13.825,38.032-14.042,59.923
	c-0.088,8.933-2.976,17.654-8.425,24.733C462.283,778.804,461.555,779.87,460.942,780.989z"/><path fill="#3732A8" d="M460.942,780.989l6.673,3.057c2.164-3.39,5.417-9.829,7.136-14.178c4.54-11.492,1.748-27.098,2.837-49.042
	c0.803-16.168,14.468-24.024,14.468-24.024l-5.524-3.708l-0.984,0.015c-17.499,16.086-13.825,38.032-14.042,59.923
	c-0.088,8.933-2.976,17.654-8.425,24.733C462.283,778.804,461.555,779.87,460.942,780.989z"/><path fill="#FFD182" d="M473.82,646.044c0.197,14.559,3.784,39.801,5.145,48.881c0.197,1.316,0.923,2.451,1.952,3.163
	c0.56,0.393,1.226,0.666,1.937,0.772c6.522,0.969,12.909,1.499,19.129,1.483c5.599,0,11.062-0.423,16.374-1.346
	c2.074-0.363,3.662-2.028,3.89-4.116c0.742-6.87-1.414-21.943-1.066-36.608c0.227-9.277-2.684-33.022-20.007-36.758l-10.148-0.092
	c-11.38,2.951-16.147,11.653-16.934,17.736C473.851,640.96,473.775,643.32,473.82,646.044z"/><path fill="#4642B8" d="M510.518,830.175c10.777,4.138,22.736,3.711,23.481,13.438l-33.909-1.183
	c-0.399-4.122,0.287-8.207,2.056-12.254H510.518z"/><path fill="#4642B8" d="M457.915,821.168c8.626,7.671,21.532,13.08,18.8,22.445l-31.314-10.468
	c1.08-3.998,2.529-10.418,5.611-13.582L457.915,821.168z"/><path fill="#4642B8" d="M498.012,612.564c-3.304,1.022-4.639,2.672-8.864,0.762c-6.429-2.905-11.856-14.033-3.319-19.065
	c0.59-1.762,1.185-2.448,3.435-2.937c2.249-0.488,4.556,0.491,7.657,0.438c3.101-0.053,7.488-3.246,10.192,1.264
	c2.704,4.509-4,8.016-7.36,10.237C496.393,605.484,497.484,609.315,498.012,612.564z"/><path fill="#F9CBCB" d="M490.883,621.449c3.692,3.693,7.175,4.4,10.292,0.065l-0.878-7.123l-0.366-2.999h-8.171l-0.157,1.859
	L490.883,621.449z"/><path fill="#F0B4B4" d="M491.487,614.577c2.019,2.43,7.583,3.133,9.091,2.091l-0.647-5.276l-8.217-3.449L491.487,614.577z"/><path fill="#F9CBCB" d="M504.118,597.111c1.504,4.239,2.977,13.609-0.619,17.093c-2.277,2.206-10.539,1.353-12.226-4.714
	c-1.993-1.443-3.456-4.961-1.619-6.558c1.309-1.138,2.981,1.869,5.264,1.371c0.866-0.188-1.795-5.977,0.909-6.98
	C498.531,596.322,501.392,598.495,504.118,597.111z"/><path fill="#F9CBCB" d="M492.255,652.409c0,0,12.73,6.3,22.699,8.447c2.38,0.502,4.588,0.771,6.44,0.67
	c12.819-0.712,36.675-15.244,36.675-15.244c9.782,0.523,18.787-6.368,19.441-10.256c1.132-6.938-9.68,3.937-12.371,1.285
	c0,0,4.554-5.942,1.809-7.579c-2.74-1.657-10.371,9.396-10.371,9.396c-12.525,0.347-24.254,2.683-34.64,6.478
	c-1.313-0.776-2.625-1.551-3.956-2.298c-9.608-5.338-19.86-9.528-31.546-10.145C484.504,641.253,487.348,647.286,492.255,652.409z"/><path fill="#EBBB6A" d="M512.722,662.165l6.588-20.45c-9.608-5.338-28.996-17.782-33.946-7.178
	C478.775,648.656,502.754,660.018,512.722,662.165z"/><path fill="#F9CBCB" d="M937.778,730.985c-1.052,3.156-5.615,7.968-9.914,11.979c-4.339,4.05-15.427,8.692-15.427,8.692
	l-0.128,24.891h-26.706l-2.382-25.015c0,0-8.4,1.478-12.74,1.82c-4.76,0.368-10.256,0.394-12.466-1.118
	c-7.521-5.141-13.438-33.819-13.438-33.819s-4.366-5.181,0-8.731c4.366-3.563,5.575,2.735,5.575,2.735s3.208-3.656,3.208-0.578
	c0,3.077-2.84,5.076-2.84,5.076l12.663,21.564l3.879-1.854l15.214-7.258l11.782-4.076h8.862l4.905,1.92
	c2.774,1.078,5.851,1.039,8.599-0.092c2.262-0.92,4.379-1.565,6.628-2.025c1.814-0.381,3.708-0.644,5.838-0.855
	c-1.736-8.179-1.407-16.739,0.316-25.562c0,0-5.983-4.839-2.367-5.247c0.947-0.105,2.222,2.051,2.959,1.065
	c0.894-1.237,1.118-6.917,1.973-6.193c2.327,1.959,3.721,6.745,2.183,10.243C933.952,698.546,940.316,723.464,937.778,730.985z"/><path fill="#A294FE" d="M945.974,612.4h-7.42c-6.089,0-11.025,4.936-11.025,11.025v50.701c0,6.089,4.936,11.025,11.025,11.025h7.42
	c20.089,0,36.375-16.285,36.375-36.375S966.064,612.4,945.974,612.4z"/><path fill="#897AEB" d="M938.554,612.401h7.42c1.034,0,2.055,0.053,3.068,0.138c-0.245,0.913-0.388,1.869-0.388,2.859v50.701
	c0,6.089,4.936,11.025,11.025,11.025h7.42c0.574,0,1.145-0.017,1.713-0.044c-6.244,5.045-14.186,8.07-22.838,8.07h-7.42
	c-6.089,0-11.025-4.936-11.025-11.024v-50.701C927.529,617.337,932.465,612.401,938.554,612.401z"/><path fill="#A294FE" d="M824.754,577.954h54.503c27.535,0,49.856,22.321,49.856,49.855v35.491c0,27.535-22.321,49.856-49.856,49.856
	h-54.503c-5.834,0-10.563-4.729-10.563-10.563V588.516C814.192,582.683,818.921,577.954,824.754,577.954z"/><path fill="#897AEB" d="M814.614,703.966h54.504c27.534,0,49.856-22.321,49.856-49.856V618.62c0-12.188-4.38-23.349-11.643-32.01
	c13.148,8.977,21.782,24.078,21.782,41.2v35.491c0,27.535-22.321,49.856-49.856,49.856h-54.503c-5.372,0-9.799-4.014-10.466-9.206
	C814.398,703.953,814.504,703.966,814.614,703.966z"/><path fill="#A294FE" d="M924.677,584.291c-8.867,0-16.055,7.188-16.055,16.054v90.417c0,8.867,7.188,16.055,16.055,16.055
	c8.867,0,16.055-7.189,16.055-16.055v-90.417C940.732,591.479,933.544,584.291,924.677,584.291z"/><path fill="#897AEB" d="M920.138,584.953c-1.766,2.578-2.802,5.695-2.802,9.057v90.417c0,8.867,7.189,16.055,16.055,16.055
	c1.578,0,3.099-0.237,4.539-0.661c-2.892,4.224-7.747,6.999-13.253,6.999c-8.867,0-16.055-7.189-16.055-16.055v-90.417
	C908.622,593.057,913.483,586.912,920.138,584.953z"/><ellipse cx="825.626" cy="645.555" fill="#897AEB" rx="25.403" ry="67.601"/><ellipse cx="818.839" cy="645.522" fill="#E0DBFF" rx="24.083" ry="66.882"/><path fill="#897AEB" d="M810.495,617.669c0-6.738,2.885-12.2,6.443-12.2c3.558,0,6.443,5.462,6.443,12.2
	c0,6.738-2.885,12.2-6.443,12.2C813.379,629.869,810.495,624.407,810.495,617.669z"/><path fill="#897AEB" d="M810.495,669.163c0-7.438,2.885-13.468,6.443-13.468c3.558,0,6.443,6.03,6.443,13.468
	s-2.885,13.468-6.443,13.468C813.379,682.63,810.495,676.601,810.495,669.163z"/><path fill="#4642B8" d="M892.266,698.521c0.426-0.215,0.947-0.337,1.29-0.646c0.343-0.309,0.358-0.649,0.711-0.939
	c1.071-0.878,2.448-0.645,3.736-0.344c2.071,0.483,4.155,1.036,5.569,2.702c0.591,0.696,0.795,1.456,1.631,1.86
	c0.384,0.186,0.826,0.151,1.211,0.249c3.149,0.801,5.589,3.079,4.747,6.512c-0.243,0.99-0.842,1.203-1.049,2.346
	c-0.433,2.388,1.427,4.859-1.597,6.516c-3.025,1.657-6.224,2.202-9.816,0.877c-4.149-1.53-6.141-6.968-7.432-11.043
	c-1.288-1.225-2.233-2.571-2.005-4.398C889.491,700.389,890.712,699.305,892.266,698.521z"/><polygon fill="#F9CBCB" points="902.92 725.291 894.057 725.291 894.294 721.977 894.741 715.942 902.472 715.942 902.643 719.453"/><path fill="#F0B4B4" d="M902.643,719.453c-1.274,2.512-6.048,2.956-8.349,2.524l0.447-6.036h7.732L902.643,719.453z"/><path fill="#F9CBCB" d="M899.317,776.547l-2.078,10.664l-2.919,14.964c-14.148,4.195-32.978,8.126-49.02-2.88
	c-2.525,12.571-7.653,22.459-15.542,33.176c-1.236,1.709-2.564,3.432-3.958,5.194l0.433,8.205l-29.546,2.156l21.683-12.321
	c0.802-1.96,1.512-4.01,2.143-6.115c5.483-17.922,6.114-39.842,19.066-49.033c8.415-5.97,47.153-4.011,47.153-4.011H899.317z"/><path fill="#F9CBCB" d="M933.689,845.869h-19.856c-3.406,0.184-6.798,0.408-10.151,0.631c-25.273,1.657-47.929,3.537-49.559-5.365
	c-3.734-20.447,14.293-38.961,31.479-64.589h26.706c12.742,35.74-20.342,47.6-39.053,55.858c12.084-2.524,21.328-0.407,31.229,3.564
	c1.881,0.749,3.787,1.578,5.733,2.445L933.689,845.869z"/><path fill="#4642B8" d="M873.255,832.405c12.084-2.524,21.328-0.407,31.229,3.564l-0.315,4.142l-0.487,6.39
	c-25.273,1.657-47.929,3.537-49.559-5.365c-3.734-20.447,14.293-38.961,31.479-64.589h26.706
	C925.05,812.286,891.966,824.147,873.255,832.405z"/><path fill="#4642B8" d="M897.239,787.211l-2.919,14.964c-8.652,2.564-19.04,5.023-29.48,4.05c-6.641-0.631-13.307-2.656-19.54-6.93
	c-2.525,12.571-7.653,22.459-15.542,33.176l-4.116-1.276l-5.128-1.604c5.483-17.922,6.114-39.842,19.066-49.033
	c8.415-5.97,47.153-4.011,47.153-4.011h6.785L897.239,787.211z"/><path fill="#3732A8" d="M881.868,787.776l-17.028,18.448c-6.641-0.631-13.307-2.656-19.54-6.93
	c-2.525,12.571-7.653,22.459-15.542,33.176l-4.116-1.276c8.14-12.707,13.848-25.19,16.989-37.436
	c7.626,3.701,16.029,9.628,22.058,7.945L881.868,787.776z"/><path fill="#3732A8" d="M873.255,832.405c12.084-2.524,21.328-0.407,31.229,3.564l-0.315,4.142
	c-8.665-5.762-21.894-6.931-37.107-6.101c7.776-9.498,41.387-21.519,42.419-41.183c0.446-8.493-2.709-16.279-2.709-16.279h5.536
	C925.05,812.286,891.966,824.147,873.255,832.405z"/><path fill="#FB78FF" d="M914.859,751.208l0.079,23.248c0.144,2.512-1.368,4.892-3.774,5.654c-0.027,0.013-0.053,0.013-0.079,0.026
	c-9.046,2.827-16.713-3.235-26.693-3.656l-2.393-22.406c0,0-9.48,0.316-13.82,0.657l-1.118-18.106l15.214-7.258l11.782-4.076
	c3.537,6.568,6.315,4.577,8.862,0c6.483,0.394,12.807,1.512,20.132-0.197l6.022,17.357
	C923.656,746.146,914.859,751.208,914.859,751.208z"/><path fill="#E761EB" d="M882.296,741.855c-0.746,3.976-0.937,8.036-0.297,12.22c0,0-9.48,0.316-13.82,0.657
	C881.187,751.594,875.386,746.668,882.296,741.855z"/><path fill="#E761EB" d="M914.938,774.456c0.144,2.512-1.368,4.892-3.774,5.654c-0.027,0.013-0.053,0.013-0.079,0.026
	c1.279-14.464-4.343-18.995-0.999-27.147l4.773-1.782L914.938,774.456z"/><path fill="#4642B8" d="M826.641,836.594c2.518,3.162,1.514,6.421,0.759,11.299h-32.439c0.636-9.62,11.068-7.029,21.585-11.415
	c0.802-0.335,1.695-0.364,2.505-0.049C821.049,837.202,824.585,838.534,826.641,836.594z"/><path fill="#4642B8" d="M912.696,839.201c-0.646-2.976-0.534-5.484,0.774-8.267c0.76-1.618,2.738-2.257,4.297-1.382l23.422,13.156
	c1.291,0.725,1.541,2.498,0.486,3.538c-4.909,4.841-12.303-1.182-22.396-0.377C913.505,846.33,915.888,840.11,912.696,839.201z"/><path fill="#F9CBCB" d="M891.554,705.303c-0.408,4.626-2.421,10.357,1.969,14.039c2.779,2.331,8.833-0.747,9.589-4.598
	c1.484-1.466,2.733-3.889,0.921-5.471c-1.291-1.128-2.621,2.093-4.349,1.119c-0.656-0.37,1.039-4.795-1.184-5.367
	C896.279,704.452,893.913,705.982,891.554,705.303z"/><path fill="#897AEB" d="M634.586,243.334h-53.892v-24.331l53.892-64.06h25.784v65.44h13.364v22.951H660.37v19.901h-25.784V243.334z
	 M634.586,220.383v-33.509l-28.476,33.509H634.586z"/><path fill="#897AEB" d="M682.958,209.561c0-20.239,3.643-34.402,10.931-42.489c7.287-8.086,18.387-12.129,33.301-12.129
	c7.165,0,13.048,0.884,17.649,2.651c4.6,1.768,8.352,4.067,11.258,6.9c2.905,2.832,5.193,5.81,6.864,8.933
	c1.671,3.123,3.014,6.767,4.031,10.931c1.985,7.941,2.978,16.222,2.978,24.839c0,19.32-3.268,33.459-9.805,42.417
	c-6.537,8.958-17.795,13.437-33.773,13.437c-8.959,0-16.197-1.429-21.716-4.285c-5.52-2.856-10.048-7.045-13.582-12.565
	c-2.567-3.922-4.565-9.284-5.992-16.088C683.671,225.31,682.958,217.793,682.958,209.561z M712.3,209.634
	c0,13.558,1.198,22.818,3.595,27.781c2.397,4.964,5.871,7.445,10.423,7.445c3.002,0,5.604-1.053,7.808-3.159
	c2.203-2.106,3.825-5.435,4.866-9.987c1.04-4.551,1.562-11.645,1.562-21.281c0-14.138-1.198-23.641-3.595-28.508
	c-2.397-4.866-5.992-7.299-10.786-7.299c-4.891,0-8.425,2.482-10.604,7.445C713.39,187.034,712.3,196.222,712.3,209.634z"/><path fill="#897AEB" d="M833.012,243.334H779.12v-24.331l53.892-64.06h25.784v65.44h13.364v22.951h-13.364v19.901h-25.784V243.334z
	 M833.012,220.383v-33.509l-28.476,33.509H833.012z"/><path fill="#897AEB" d="M527.551,290.114h64.756v16.696h-40.539v12.429h37.605v15.948h-37.605v15.416h41.713v17.709h-65.93V290.114z
	"/><path fill="#897AEB" d="M606.816,368.312v-78.198h40.273c7.468,0,13.175,0.64,17.123,1.92c3.947,1.28,7.129,3.654,9.548,7.121
	c2.418,3.468,3.627,7.69,3.627,12.669c0,4.339-0.925,8.081-2.775,11.228c-1.85,3.147-4.395,5.699-7.632,7.654
	c-2.063,1.246-4.892,2.277-8.486,3.094c2.878,0.962,4.975,1.922,6.29,2.883c0.888,0.64,2.176,2.011,3.864,4.111
	c1.688,2.1,2.816,3.72,3.385,4.858l11.701,22.659H656.43l-12.916-23.897c-1.636-3.094-3.094-5.103-4.374-6.028
	c-1.743-1.209-3.716-1.813-5.921-1.813h-2.134v31.738H606.816z M631.086,321.799h10.188c1.102,0,3.236-0.355,6.401-1.067
	c1.6-0.321,2.907-1.138,3.921-2.454c1.013-1.315,1.52-2.827,1.52-4.533c0-2.525-0.8-4.463-2.4-5.815
	c-1.6-1.351-4.606-2.026-9.015-2.026h-10.615V321.799z"/><path fill="#897AEB" d="M691.788,368.312v-78.198h40.273c7.468,0,13.175,0.64,17.123,1.92c3.947,1.28,7.129,3.654,9.548,7.121
	c2.418,3.468,3.627,7.69,3.627,12.669c0,4.339-0.925,8.081-2.775,11.228c-1.85,3.147-4.395,5.699-7.632,7.654
	c-2.063,1.246-4.892,2.277-8.486,3.094c2.878,0.962,4.975,1.922,6.29,2.883c0.888,0.64,2.176,2.011,3.864,4.111
	c1.688,2.1,2.816,3.72,3.385,4.858l11.701,22.659h-27.303l-12.916-23.897c-1.636-3.094-3.094-5.103-4.374-6.028
	c-1.743-1.209-3.716-1.813-5.921-1.813h-2.134v31.738H691.788z M716.058,321.799h10.188c1.102,0,3.236-0.355,6.401-1.067
	c1.6-0.321,2.907-1.138,3.92-2.454c1.013-1.315,1.52-2.827,1.52-4.533c0-2.525-0.8-4.463-2.4-5.815
	c-1.6-1.351-4.606-2.026-9.015-2.026h-10.615V321.799z"/><path fill="#897AEB" d="M771.533,329.266c0-12.766,3.556-22.705,10.668-29.817c7.112-7.112,17.016-10.669,29.711-10.669
	c13.015,0,23.043,3.494,30.084,10.482s10.561,16.776,10.561,29.364c0,9.14-1.538,16.634-4.614,22.484
	c-3.077,5.849-7.521,10.402-13.335,13.655c-5.814,3.254-13.06,4.881-21.737,4.881c-8.82,0-16.118-1.404-21.896-4.214
	c-5.779-2.81-10.464-7.255-14.056-13.335C773.329,346.015,771.533,338.406,771.533,329.266z M795.697,329.373
	c0,7.895,1.467,13.566,4.401,17.015c2.934,3.45,6.925,5.174,11.975,5.174c5.191,0,9.21-1.688,12.055-5.067
	c2.844-3.378,4.267-9.441,4.267-18.189c0-7.361-1.485-12.739-4.454-16.136c-2.969-3.395-6.997-5.094-12.081-5.094
	c-4.873,0-8.784,1.725-11.735,5.174C797.172,315.701,795.697,321.408,795.697,329.373z"/><path fill="#897AEB" d="M865.893,368.312v-78.198h40.273c7.468,0,13.175,0.64,17.123,1.92c3.947,1.28,7.129,3.654,9.548,7.121
	c2.417,3.468,3.627,7.69,3.627,12.669c0,4.339-0.925,8.081-2.775,11.228c-1.85,3.147-4.395,5.699-7.632,7.654
	c-2.063,1.246-4.892,2.277-8.486,3.094c2.878,0.962,4.975,1.922,6.29,2.883c0.888,0.64,2.176,2.011,3.864,4.111
	c1.688,2.1,2.816,3.72,3.385,4.858l11.701,22.659h-27.303l-12.916-23.897c-1.636-3.094-3.094-5.103-4.374-6.028
	c-1.743-1.209-3.716-1.813-5.921-1.813h-2.134v31.738H865.893z M890.164,321.799h10.188c1.102,0,3.236-0.355,6.401-1.067
	c1.6-0.321,2.907-1.138,3.921-2.454c1.013-1.315,1.52-2.827,1.52-4.533c0-2.525-0.8-4.463-2.4-5.815
	c-1.6-1.351-4.606-2.026-9.015-2.026h-10.615V321.799z"/><path fill="#897AEB" d="M675.042,116.384c0-4.556,1.27-8.105,3.809-10.643c2.538-2.538,6.074-3.808,10.605-3.808
	c4.646,0,8.226,1.247,10.74,3.741c2.513,2.495,3.77,5.989,3.77,10.483c0,3.263-0.549,5.938-1.647,8.026
	c-1.098,2.088-2.685,3.712-4.76,4.874c-2.076,1.161-4.662,1.743-7.76,1.743c-3.148,0-5.753-0.501-7.816-1.504
	c-2.063-1.003-3.736-2.59-5.017-4.76C675.683,122.364,675.042,119.647,675.042,116.384z M683.667,116.423
	c0,2.818,0.524,4.842,1.571,6.074c1.047,1.231,2.472,1.847,4.275,1.847c1.853,0,3.288-0.603,4.303-1.809
	c1.015-1.206,1.524-3.371,1.524-6.494c0-2.628-0.53-4.547-1.59-5.76c-1.06-1.212-2.497-1.818-4.313-1.818
	c-1.739,0-3.135,0.616-4.189,1.848C684.194,111.542,683.667,113.58,683.667,116.423z"/><path fill="#897AEB" d="M707.145,120.269c0-3.085,1.041-5.626,3.123-7.626c2.082-1.999,4.893-2.999,8.435-2.999
	c4.049,0,7.109,1.174,9.178,3.522c1.663,1.892,2.495,4.221,2.495,6.988c0,3.11-1.032,5.659-3.094,7.646
	c-2.063,1.987-4.916,2.98-8.559,2.98c-3.25,0-5.877-0.825-7.883-2.475C708.376,126.26,707.145,123.582,707.145,120.269z
	 M714.914,120.25c0,1.803,0.365,3.135,1.095,3.998c0.73,0.864,1.647,1.295,2.752,1.295c1.117,0,2.034-0.425,2.751-1.276
	c0.717-0.85,1.076-2.215,1.076-4.094c0-1.751-0.362-3.056-1.085-3.912c-0.724-0.857-1.619-1.285-2.685-1.285
	c-1.13,0-2.063,0.435-2.799,1.304C715.281,117.149,714.914,118.473,714.914,120.25z"/><path fill="#897AEB" d="M734.145,138.016v-27.915h7.255v2.989c1.003-1.256,1.923-2.106,2.761-2.551
	c1.13-0.597,2.38-0.894,3.751-0.894c2.704,0,4.795,1.034,6.274,3.103c1.479,2.07,2.218,4.627,2.218,7.674
	c0,3.363-0.806,5.931-2.418,7.702c-1.612,1.77-3.65,2.656-6.113,2.656c-1.193,0-2.282-0.204-3.265-0.61
	c-0.984-0.406-1.863-1.009-2.637-1.809v9.654H734.145z M741.914,120.269c0,1.6,0.336,2.786,1.009,3.561
	c0.673,0.774,1.524,1.161,2.552,1.161c0.901,0,1.657-0.372,2.266-1.114c0.609-0.743,0.914-2.002,0.914-3.78
	c0-1.638-0.317-2.84-0.952-3.608c-0.635-0.767-1.409-1.152-2.323-1.152c-0.99,0-1.815,0.388-2.475,1.161
	C742.244,117.273,741.914,118.53,741.914,120.269z"/><path fill="#897AEB" d="M758.746,124.706l7.692-0.723c0.317,0.913,0.761,1.567,1.333,1.96c0.571,0.394,1.333,0.591,2.285,0.591
	c1.041,0,1.847-0.222,2.418-0.665c0.445-0.33,0.666-0.741,0.666-1.236c0-0.557-0.292-0.988-0.875-1.293
	c-0.419-0.215-1.53-0.481-3.332-0.799c-2.691-0.469-4.56-0.903-5.608-1.302c-1.047-0.399-1.929-1.074-2.647-2.025
	c-0.717-0.951-1.076-2.036-1.076-3.253c0-1.332,0.387-2.48,1.161-3.443c0.774-0.964,1.841-1.683,3.199-2.159
	c1.358-0.475,3.18-0.713,5.465-0.713c2.412,0,4.192,0.184,5.341,0.552c1.149,0.368,2.107,0.94,2.875,1.713
	c0.768,0.775,1.406,1.822,1.913,3.142l-7.35,0.724c-0.19-0.647-0.508-1.124-0.952-1.428c-0.61-0.406-1.346-0.61-2.209-0.61
	c-0.876,0-1.514,0.156-1.913,0.467c-0.4,0.31-0.6,0.687-0.6,1.131c0,0.494,0.254,0.868,0.761,1.122
	c0.508,0.253,1.612,0.481,3.314,0.684c2.577,0.292,4.493,0.698,5.75,1.218c1.257,0.519,2.218,1.261,2.885,2.225
	c0.667,0.964,1,2.022,1,3.176c0,1.167-0.353,2.302-1.057,3.405c-0.705,1.103-1.816,1.981-3.332,2.634
	c-1.517,0.653-3.583,0.98-6.198,0.98c-3.694,0-6.325-0.527-7.893-1.581C760.196,128.146,759.19,126.648,758.746,124.706z"/><path fill="#897AEB" d="M796.962,102.409h8.283v6.359l-1.599,12.777h-5.122l-1.561-12.777V102.409z M797.247,123.487h7.731v6.835
	h-7.731V123.487z"/><path fill="#FEC9FF" d="M688.564,502.56l-0.483,19.129c-0.133,5.244,8.013,5.241,8.146,0l0.483-19.129
	C696.843,497.317,688.697,497.319,688.564,502.56z"/><path fill="#FEC9FF" d="M750.951,470.711l-13.778,61.04c-1.152,5.105,6.699,7.285,7.855,2.165l13.778-61.04
	C759.959,467.771,752.107,465.591,750.951,470.711z"/><path fill="#FEC9FF" d="M806.782,515.029c-7.097,8.064-14.193,16.127-21.29,24.19c-3.451,3.921,2.288,9.705,5.76,5.76
	c7.097-8.063,14.193-16.127,21.29-24.19C815.994,516.867,810.254,511.084,806.782,515.029z"/><path fill="#FEC9FF" d="M664.941,652.302c-3.484,7.825-6.968,15.65-10.451,23.475c-2.114,4.748,4.903,8.897,7.034,4.112
	c3.484-7.825,6.968-15.651,10.451-23.476C674.088,651.665,667.071,647.516,664.941,652.302z"/><path fill="#FEC9FF" d="M707.91,664.09l-14.026,52.275c-1.36,5.069,6.496,7.231,7.855,2.165l14.026-52.275
	C717.125,661.187,709.269,659.024,707.91,664.09z"/><path fill="#FEC9FF" d="M766.587,703.389c-2.111-10.486-4.222-20.972-6.333-31.459c-1.034-5.135-8.887-2.962-7.855,2.166
	c2.111,10.486,4.222,20.973,6.332,31.459C759.766,710.69,767.62,708.517,766.587,703.389z"/></svg>
