<svg xmlns="http://www.w3.org/2000/svg" fill-rule="evenodd" stroke-linejoin="round" stroke-miterlimit="2" clip-rule="evenodd" viewBox="0 0 3000 3000"><path fill="none" d="M0 0h3000v3000H0z"/><path fill="#f99e1c" d="m1684.74 531.676-5.714-36.209c-15.485-15.32-23.121-32.165-18.963-46.271 7.729-26.223 53.315-33.11 101.733-15.371 17.988 6.591 33.852 15.659 46.292 25.799 10.026-8.059 21.791-15.617 34.806-22.067 47.259-23.422 93.209-23.422 102.548 0 6.252 15.678-5.476 37.903-28.09 57.91l-6.982 36.209c53.878 36.456 107.56 97.414 113.078 196.704 6.984 125.669-102.184 228.047-228.047 228.047-125.862 0-235.298-102.393-228.047-228.047 5.665-98.157 62.093-159.67 117.386-196.704Z"/><path fill="#fff" d="M1815.25 754.133c.481 8.057-7.323 14.546-17.126 14.635-9.803.09-18.223-6.401-18.69-14.306l-35.708.33c1.275 21.432 20.829 37.521 42.579 41.732l.87 14.682 26.845-.246-.87-14.682c21.229-4.638 38.81-21.066 37.544-42.469-.709-11.948-6.517-22.079-17.498-30.404-11.094-8.294-24.011-12.403-38.673-12.268-9.803.094-18.244-6.705-18.701-14.364-.452-7.598 7.14-14.546 16.977-14.632 9.763-.093 18.351 6.612 18.805 14.304l35.667-.329c-1.254-21.185-20.87-37.003-42.519-41.363l-.885-14.868-26.846.25.886 14.864c-21.071 4.724-39.087 20.92-37.828 42.105.71 11.887 6.586 22.02 17.573 30.407 10.944 8.294 23.747 12.401 38.563 12.266l.192.09c9.763-.093 18.378 6.455 18.843 14.266Z"/><path fill="#ee5023" d="M1934.57 499.807c0-6.687-5.429-12.116-12.116-12.116h-259.606c-6.688 0-12.117 5.429-12.117 12.116v24.232c0 6.687 5.429 12.116 12.117 12.116h259.606c6.687 0 12.116-5.429 12.116-12.116v-24.232Z"/><path fill="#1d353b" d="M448.882 2396.96s-223.514 32.497-239.035-293.77c-21.179-445.228-26.925-673.703 48.515-650.95 73.676 22.222 194.263-82.595 190.52 944.72Z"/><path fill="#223d4d" d="M279.956 1458.17c-5.704-2.222-49.479.412-50.683.77 0 0 323.256-244.689 648.92-28.538 0 0 105.358 168.817 90.871 881.695 0 0-347.28 108.123-519.406 80.286 1.911-944.85-97.587-922.68-169.702-934.213Z"/><path fill="#1d353b" d="M381.709 1448.25s-198.507 64.763-209.52-80.272c-11.013-145.034-21.024-222.152 42.011-214.535 63.035 7.616 170.04-40.863 167.509 294.807Z"/><path fill="#223d4d" d="M190.113 1155.85c-1.008.14-2.056.293-3.111.455 0 0 284.817-90.113 570.021-34.037 0 0 92.268 49.616 79.581 277.075 0 0-304.135 47.977-454.875 45.84 1.673-300.799-85.464-289.857-148.619-290.711-4.996-.484-10.235-.721-15.726-.692a109.163 109.163 0 0 1-3.184-.335c-9.657-1.167-17.6-.345-24.087 2.405Z"/><path fill="#a1c17f" d="M1113.74 1414.61c-78.816-40.608-305.49-56.776-150.748 180.212 75.33 115.368 269.715 313.753 378.843 335.721 158.073 31.821 223.304-127.79 141.084-208.409-80.302-78.739-251.164-246.72-369.179-307.524Z"/><path fill="#609c8a" d="M1320.67 1937.47c175.024 103.992 256.062-131.877 196.142-255.838-10.13-20.957-60.788-88.726-90.637-104.603-112.273-59.721-272.146 248.849-182.255 300.92 44.711 25.9 76.75 59.521 76.75 59.521Z"/><path fill="#ffceaa" d="M1453.94 1494.59c21.993-94.741 80.793-174.407 143.64-218.414 74.322-52.043 298.059-64.476 300.443-39.187 7.972 84.593-141.69 79.83-141.69 79.83 28.622 30.968 40.457 55.518 35.895 73.799 18.301 24.518 23.043 42.926 20.225 57.928 8.462 37.384 3.697 52.515-3.963 62.775-25.743 19.534-52.379 28.737-79.839 28.421 1.237 50.045-14.337 97.79-61.381 119.001-17.68 33.696-126.718 237.925-239.61 274.834-74.573 24.381-164.977-67.397-131.434-143.171 19.338-43.687 156.86-299.022 157.714-295.816Z"/><path d="M1728.82 1536.25c-33.762-1.759-49.954-10.069-57.061-19.936-9.873-13.707-1.022-29.745-1.022-29.745a3.653 3.653 0 0 0 .179-3.105c-4.737-11.768-6.926-20.017-6.839-27.269.13-10.888 5.401-19.394 13.97-34.065a3.649 3.649 0 0 0 .432-2.491c-4.794-26.19 6.242-43.521 22.486-57.912 17.149-15.192 39.946-27.214 57.47-42.195 1.425-1.218 1.641-3.42.482-4.919-1.158-1.498-3.252-1.725-4.677-.507-17.554 15.006-40.383 27.056-57.56 42.273-17.8 15.77-29.695 34.833-24.967 63.236-9.008 15.442-14.146 24.806-14.286 36.492-.092 7.679 1.977 16.415 6.773 28.595-2.259 5.117-8.077 21.486 2.257 35.834 7.764 10.779 25.154 20.777 62.034 22.698 1.834.096 3.395-1.39 3.486-3.319.09-1.928-1.323-3.569-3.157-3.665Z"/><path d="M1779.83 1391.87s-23.652 21.914-95.196 25.334c-1.834.088-3.254 1.722-3.171 3.651.084 1.929 1.639 3.422 3.473 3.335 74.77-3.574 99.334-27.113 99.334-27.113 1.367-1.289 1.482-3.5.256-4.938-1.226-1.438-3.329-1.558-4.696-.269ZM1802.05 1454.62s-66.98 39.099-126.192 26.768c-1.802-.375-3.551.856-3.908 2.75-.357 1.895.814 3.734 2.616 4.11 61.311 12.768 130.705-27.51 130.705-27.51 1.606-.935 2.188-3.063 1.298-4.752-.889-1.69-2.913-2.301-4.519-1.366ZM1559.18 1392.25c2.014-5.718 8.438-10.769 16.148-15.818 12.838-8.406 29.348-16.305 39.279-24.546 14.202-11.784 41.829-40.942 60.795-53.978 3.754-2.58 7.125-4.511 9.942-5.421.892-.288 1.709-.469 2.447-.492.538-.016 1.015.009 1.356.326 3.368 3.118 5.214 9.03 6.05 16.31 1.387 12.088-.336 27.811-4.877 42.551-3.752 12.182-9.426 23.709-16.975 31.877-7.139 7.724-15.975 12.388-26.458 11.294a3.37 3.37 0 0 0-2.819 1.079 3.762 3.762 0 0 0-.961 2.989c4.899 41.984.587 64.292-9.177 76.299-6.203 7.628-14.579 10.811-23.713 12.447-1.886.338-3.154 2.219-2.833 4.202.321 1.983 2.111 3.317 3.996 2.979 10.758-1.927 20.51-5.911 27.815-14.895 10.165-12.499 15.697-35.26 11.26-77.662 22.496-.372 38.574-22.777 46.456-48.364 4.872-15.818 6.652-32.698 5.163-45.669-1.082-9.427-3.987-16.865-8.348-20.903-1.998-1.851-4.778-2.573-8.269-1.893-3.695.72-8.473 3.156-13.846 6.849-19.112 13.136-46.983 42.482-61.295 54.357-9.765 8.102-26.027 15.816-38.65 24.081-9.264 6.067-16.563 12.6-18.983 19.471-.664 1.886.252 3.982 2.046 4.68 1.794.699 3.786-.264 4.451-2.15ZM1640.02 1491.49s9.533 46.756-25.904 91.357c-1.178 1.482-.99 3.687.42 4.925 1.409 1.238 3.506 1.04 4.684-.442 37.719-47.472 27.3-97.324 27.3-97.324-.39-1.887-2.161-3.084-3.956-2.674-1.794.409-2.933 2.271-2.544 4.158Z"/><path fill="#1d353b" d="M1451.49 1484.82c50.038 110.138 129.164 153.255 216.366 176.873 0 0-8.395 21.308-27.582 49.505-30.16 44.322-252.935-103.334-230.496-145.699 24.392-46.051 41.712-80.679 41.712-80.679Z"/><path fill="#f99e1c" d="M1457.98 1483.6c23.892 15.519-18.385 109.939-49.789 106.749-44.772-28.651 4.742-118.461 49.789-106.749Z"/><path fill="#243c4d" d="M1294.77 2190.62c-100.794-373.628-36.393-813.843-336.558-794.311-315.906 20.557-494.541 91.963-517.011 171.501-17.861 63.223 137.793 217.537 193.646 869.613 0 0 589.881-45.023 659.923-246.803Z"/><path fill="#a1c17f" d="M1119.66 2328.07s-124.283-878.335-141.735-932.385c0 0 137.49-27.269 203.288 166.893 65.797 194.163 108.247 571.33 113.553 631.587 5.307 60.257-151.758 131.673-175.106 133.905ZM951.383 2385.37s-69.442-610.897-239.242-963.391c0 0-239.086 67.075-272.363 134.028 0 0 193.831 583.459 193.831 881.42 0 0 283.215-20.445 317.774-52.057Z"/><path fill="#609c8a" d="M591.159 1916.55s261.067-246.206 2.122-494.578c0 0-164.521 66.849-179.378 115.947-14.858 49.099 183.623-91.568 177.256 378.631ZM1202.57 1720.8s-166.276-98.698-207.454-330.182c0 0 61.337-9.332 86.693 13.521 25.357 22.853 113.289 58.177 120.761 316.661Z"/><path fill="#a1c17f" d="M805.843 1669.26s-98.679-222.36-58.504-248.675c77.739-50.92 221.9-35.333 230.586-9.542 21.858 64.901 35.613 192.351 35.613 192.351s146.45-269.514-4.248-319.202c-150.697-49.689-602.789-64.334-481.806 111.486 120.982 175.82 199.827 240.105 278.359 273.582Z"/><path fill="#609c8a" d="m1077.96 1743.7 124.608-22.906s46.292 110.631 55.348 211.982l-28.677 28.347s-76.976 3.613-116.219-28.347c-39.242-31.96-23.332-160.509-35.06-189.076Z"/><path fill="#fff" d="m1121.64 1779.98 6.037 47.158 93.148-35.368-18.262-36.275-80.923 24.485Z"/><path fill="#ffceaa" d="m958.208 1235.45-190.57-21.884c20.596 105.835-13.246 161.884-22.101 216.696 0 0 131.45 89.223 170.181 86.02 38.732-3.204 62.207-105.24 62.207-105.24-32.696-45.853-25.603-111.016-19.717-175.592Z"/><path d="m958.208 1235.45-190.57-21.884c20.596 105.835 190.815 158.707 187.742 136.088-4.794-35.284-.759-74.853 2.828-114.204Z"/><path fill="#ffceaa" d="M775.834 740.566c111.79-44.794 244.527 30.671 305.73 187.25 47.949 122.67 26.164 356.138-97.972 385.99-116.619 28.043-249.097-47.268-306.429-205.458-57.332-158.19-13.12-322.987 98.671-367.782Z"/><path fill="#0d0d0d" d="M735.517 1087.02c-2.638 7.335-8.172 24.255-9.108 39.308-.666 10.692 1.119 20.427 7.107 25.822 5.933 5.346 16.32 6.84 33.459-.091 1.32-.534 2.001-2.082 1.493-3.469-.52-1.423-2.051-2.108-3.404-1.56-7.32 2.96-13.192 4.33-17.871 4.373-4.473.041-7.811-1.139-10.233-3.321-4.931-4.443-5.875-12.604-5.327-21.408.771-12.391 4.803-26.095 7.538-34.194 4.252 6.474 8.937 14.012 14.1 22.755.768 1.301 2.398 1.684 3.635.876 1.196-.78 1.578-2.43.835-3.687-6.058-10.26-11.49-18.893-16.357-26.123.234-.613.366-.942.366-.942.549-1.369-.083-2.937-1.384-3.515a2.532 2.532 0 0 0-2.043-.012c-11.359-16.288-19.451-24.435-25.121-27.683-4.344-2.489-7.641-2.423-10.088-1.22-3.464 1.704-5.502 6.228-6.338 11.173-1.025 6.061-.488 12.543-.488 12.543.125 1.504 1.41 2.59 2.84 2.459 1.422-.131 2.5-1.427 2.376-2.921v-.001s-.482-5.763.429-11.151c.293-1.736.727-3.435 1.408-4.844.506-1.047 1.123-1.938 2.026-2.382 1.299-.639 2.987-.255 5.293 1.066 5.589 3.202 13.497 11.519 24.857 28.149ZM997.046 1012.57s4.976 59.181 40.318 111.593c-2.245 3.14-7.504 10.214-13.73 16.67-5.253 5.446-11.152 10.538-16.491 12.014a3 3 0 0 0 1.599 5.783c4.688-1.296 9.844-4.827 14.701-9.239 10.672-9.694 20.051-23.521 20.051-23.521a3.001 3.001 0 0 0-.013-3.386c-35.479-51.48-40.456-110.418-40.456-110.418a3 3 0 0 0-5.979.504ZM926.392 1029.92c7.834-1.323 16.036 9.658 18.302 24.505 2.267 14.847-2.253 27.975-10.088 29.298-7.835 1.322-16.036-9.658-18.303-24.506-2.266-14.847 2.254-27.975 10.089-29.297ZM1028.59 1012.42c7.834-1.322 16.036 9.658 18.302 24.505 2.267 14.848-2.253 27.976-10.088 29.298-7.835 1.323-16.036-9.658-18.303-24.505-2.266-14.848 2.254-27.975 10.089-29.298Z"/><path fill="#fff" d="M940.356 1198.64c7.819-10.438 76.366-8.009 93.674-5.399 6.705 1.011 20.022 8.287 10.178 21.056-7.949 10.31-39.788 44.182-57.097 41.573-17.308-2.61-54.575-46.792-46.755-57.23Z"/><path fill="#1d353b" d="M1088.38 907.359s3.348 66.26-84.221 48.472c0 0-54.731 63.826-108.467 8.371 0 0-55.726 57.438-127.374-46.039 0 0 10.947 74.399 28.859 86.955 0 0-38.81 30.344-41.795 55.456 0 0-72.643-78.923-73.78-11.36-1.137 67.563 55.726 202.091 105.766 129.147 0 0 10.773 84.457-14.086 75.043-42.227-15.99-100.835-67.265-121.221-198.61 0 0-26.294-184.537 66.218-234.617 85.392-46.226 293.999-125.193 370.101 87.182Z"/><path fill="#a1c17f" d="M600.972 987.131c-18.595-50.402-55.324-231.467 187.748-299.193 270.559-75.384 329.131 196.624 325.36 216.144-4.533 23.462-30.108 24.596-30.108 24.596-3.457-106.022-489.097-100.303-438.137 64.266 1.516 4.898-41.771 2.569-44.863-5.813Z"/><path fill="#609c8a" d="M578.243 881.332c5.923-95.341 432.73-180.025 520.937-97.869 11.073 10.313 20.391 107.875 15.864 123.28-5.82 19.803-31.397 22.417-31.397 22.417 5.507-81.288-452.839-33.053-434.344 92.043.553 3.74-29.269 11.36-37.138-3.189-18.817-34.789-35.608-109.548-33.922-136.682Z"/><path fill="#fff" d="M616.048 830.541c-2.308 1.191-4.248 3.184-5.799 5.905-2.114 3.71-3.522 8.844-4.255 15.022-2.734 23.024 3.768 61.065 13.967 91.716 5.868 17.638 12.977 32.83 20.191 41.406 5.389 6.405 11.013 9.165 16.195 7.566a2 2 0 0 0-1.18-3.823c-1.786.552-3.615.245-5.467-.704-2.16-1.107-4.321-3.04-6.487-5.614-6.979-8.296-13.78-23.03-19.457-40.094-10.007-30.076-16.472-67.389-13.79-89.981.553-4.657 1.492-8.667 2.901-11.814 1.266-2.828 2.885-4.931 5.014-6.03a2 2 0 1 0-1.833-3.555Zm41.648-21.393c-5.964 11.992-8.167 29.218-7.531 47.624.945 27.357 8.119 57.317 18.025 76.27 4.403 8.425 9.392 14.703 14.562 17.82 3.812 2.298 7.751 2.968 11.709 1.746a2 2 0 1 0-1.18-3.822c-3.643 1.125-7.225-.1-10.674-2.921-3.867-3.163-7.522-8.265-10.872-14.676-9.681-18.524-16.648-47.817-17.572-74.555-.611-17.657 1.394-34.201 7.114-45.705a2 2 0 1 0-3.581-1.781Zm51.221-20.839c-4.177.862-7.362 5.089-9.117 12.013-3.574 14.104-1.898 39.926 3.098 64.893 5.009 25.031 13.376 49.173 22.844 59.896 4.628 5.241 9.612 7.409 14.555 5.883a2 2 0 1 0-1.18-3.822c-2.269.7-4.503.121-6.695-1.365-2.56-1.735-5.026-4.637-7.406-8.387-7.563-11.913-14.026-32.153-18.196-52.99-4.86-24.289-6.62-49.404-3.142-63.126.686-2.707 1.567-4.942 2.709-6.575.928-1.328 2.01-2.228 3.338-2.502a2 2 0 1 0-.808-3.918Zm44.772-13.813c-5.984 12.034-7.341 28.884-5.454 46.724 2.799 26.449 12.677 55.076 24.522 73.074 5.239 7.962 10.899 13.862 16.478 16.751 4.069 2.106 8.126 2.67 12.025 1.467a2 2 0 1 0-1.18-3.822c-3.713 1.146-7.58.008-11.454-2.685-4.277-2.973-8.512-7.807-12.528-13.909-11.554-17.558-21.154-45.496-23.885-71.297-1.798-16.993-.642-33.059 5.058-44.522a2 2 0 1 0-3.582-1.781Zm298.103-12.489c1.6.417 3.104 1.737 4.61 3.665 2.647 3.389 5.12 8.589 7.393 14.996 9.103 25.655 14.715 70.302 12.353 98.869-.704 8.51-2.094 15.562-4.378 20.16-1.834 3.692-4.198 5.68-7.502 4.66a2 2 0 1 0-1.179 3.822c4.297 1.327 7.81-.121 10.557-3.861 3.417-4.653 5.574-13.395 6.488-24.451 2.402-29.05-3.313-74.448-12.569-100.537-2.448-6.898-5.161-12.471-8.011-16.12-2.159-2.765-4.458-4.476-6.753-5.074a2 2 0 0 0-1.009 3.871Zm-234.354 1.044c-1.767 6.201-2.136 16.041-1.346 27.702 1.811 26.733 9.617 63.197 19.437 86.661 3.703 8.847 7.724 15.872 11.785 19.961 3.126 3.147 6.36 4.629 9.497 4.345a2 2 0 1 0-.361-3.984c-2.119.192-4.186-1.054-6.298-3.18-3.793-3.819-7.475-10.423-10.933-18.687-9.676-23.117-17.352-59.047-19.136-85.386-.751-11.085-.478-20.442 1.202-26.336a2 2 0 1 0-3.847-1.096Zm184.504-11.037c1.246.339 2.43 1.271 3.617 2.613 1.395 1.579 2.74 3.707 4.042 6.279 6.418 12.676 11.596 35.71 14.38 59.076 2.784 23.368 3.173 47.076-.137 61.115-1.271 5.394-2.943 9.301-5.507 10.804a2 2 0 0 0 2.024 3.451c3.222-1.89 5.779-6.558 7.377-13.337 3.384-14.359 3.062-38.607.215-62.506-2.847-23.9-8.219-47.444-14.783-60.409-3.117-6.157-6.669-9.991-10.177-10.946a2.002 2.002 0 0 0-1.051 3.86Zm-126.696 1.446c5.794 25.104 12.091 79.958 18.979 113.076 2.108 10.137 4.292 18.273 6.51 23 1.133 2.413 2.357 4.023 3.515 4.809a2 2 0 1 0 2.247-3.308c-1.064-.723-1.982-2.6-3.016-5.262-1.822-4.694-3.596-11.667-5.34-20.053-6.893-33.144-13.199-88.038-18.998-113.162a2 2 0 1 0-3.897.9Zm60.005-3.436c1.246.339 2.43 1.271 3.617 2.613 1.395 1.579 2.74 3.707 4.042 6.279 6.418 12.676 11.597 35.71 14.38 59.076 2.784 23.367 3.173 47.075-.136 61.115-1.272 5.393-2.943 9.301-5.507 10.804a2 2 0 1 0 2.023 3.451c3.222-1.89 5.779-6.559 7.377-13.337 3.385-14.359 3.062-38.607.215-62.506-2.847-23.901-8.218-47.444-14.783-60.41-3.117-6.156-6.669-9.99-10.177-10.945a2 2 0 0 0-1.051 3.86Z"/><path fill="#a1c17f" d="M577.734 1697c-14.243-83.946-133.163-271.586-227.048-22.705-33.051 87.614-51.061 246.267-57.916 365.235-16.793 291.468 261.701 267.987 282.984 25.363 10.026-114.294 18.308-271.65 1.98-367.893Z"/><path d="M289.775 2039.36c-8.54 148.234 58.81 215.899 130.199 216.138 71.342.239 147.952-67.028 158.769-190.341 10.046-114.531 18.311-272.214 1.948-368.657a3 3 0 1 0-5.915 1.004c16.294 96.043 7.994 253.072-2.011 367.129-10.465 119.311-83.744 185.096-152.771 184.865-68.982-.231-132.481-66.558-124.229-209.793a3 3 0 1 0-5.99-.345Z"/><circle cx="441.418" cy="1716.63" r="46.877" fill="#609c8a"/><path fill="#609c8a" d="M291.274 2172.29c70.853 190.86 282.075 58.246 313.325-75.845 5.283-22.669 8.439-107.221-4.812-138.325-49.84-116.995-368.07 22.662-330.839 119.646 18.518 48.238 22.326 94.524 22.326 94.524Z"/><path fill="#ee5023" d="M1273.89 2078.21c31.778-37.522 27.115-93.785-10.406-125.563-37.522-31.778-93.785-27.115-125.563 10.406l-398.312 470.298c-31.778 37.522-27.116 93.785 10.406 125.563 37.522 31.779 93.785 27.116 125.563-10.406l398.312-470.298Z"/><path fill="#feca12" d="M793.966 2451.97c52.767-22.532 103.252 41.714 81.614 96.547l435.214-511.847c39.766-49.022-50.202-134.389-77.938-101.641l-438.89 516.941Z"/><path fill="#1d353b" d="M813.808 2470.66c30.435 9.091 49.381 35.768 42.281 59.536-7.099 23.769-37.572 35.686-68.006 26.596-30.435-9.091-49.381-35.768-42.281-59.536 7.099-23.769 37.572-35.686 68.006-26.596Z"/><path fill="#ffceaa" d="m885.061 2392.95-.082.798s-29.617 1.02-39.252-.859c-30.339-5.92-56.367 27.407-110.157 10.806-118.942-36.709-313.131-68.591-374.394-194.366-36.967-75.896 151.893-206.821 193.852-174.701 67.561 51.721 149.791 122.095 226.61 153.849 19.602 8.103 136.311-49.762 172.047-33.323-.165.01-.33.024-.491.041 17.939 2.373 36.403 7.462 54.989 16.426 35.028 16.894 70.491 47.551 103.683 99.724 15.542 24.429 7.898 50.275-19.575 31.626 24.867 33.671 14.713 89.517-18.073 58.341-11.197 50.401-70.831 19.911-84.183 20.068 24.992 54.427-29.426 38.843-81.788 15.603-7.189-3.191-14.052-4.006-23.186-4.033Z"/><path d="M554.85 2029.93c-3.695-2.656-6.894 2.125-3.664 4.752 65.314 53.127 154.368 125.592 229.306 156.569 2.69 1.112 6.974 1.291 12.511.507 11.413-1.615 28.832-7.1 48.294-13.389 24.634-7.959 52.599-17.202 75.64-21.193 14.709-2.549 27.325-3.053 35.494.705a3 3 0 0 0 2.508-5.451c-8.985-4.133-22.849-3.969-39.026-1.166-23.289 4.034-51.562 13.351-76.461 21.396-16.386 5.295-31.292 10.034-42.277 12.277-6.585 1.344-11.592 1.926-14.391.769-74.495-30.794-159.98-106.918-227.934-155.776ZM884.875 2390.75s-29.105 1.041-38.573-.806c-12.65-2.468-24.605 1.467-37.957 6.141-18.726 6.555-40.435 14.452-71.89 4.744a3 3 0 1 0-1.77 5.733c33.092 10.213 55.943 2.082 75.643-4.814 12.266-4.294 23.203-8.182 34.825-5.915 9.801 1.912 39.929.913 39.929.913a3 3 0 0 0-.207-5.996ZM897.688 2333.65s57.092 10.684 92.099 51.656c1.127 1.319 3.058 1.428 4.313.243 1.255-1.186 1.358-3.216.231-4.536-36.339-42.53-95.569-53.686-95.569-53.686-1.661-.312-3.247.851-3.544 2.597-.296 1.746.809 3.415 2.47 3.726ZM911.49 2291.24s95.42-14.407 160.257 73.335c1.035 1.4 2.954 1.654 4.286.565 1.332-1.088 1.573-3.106.538-4.506-67.115-90.825-165.954-75.751-165.954-75.751-1.67.253-2.828 1.882-2.587 3.637.241 1.756 1.79 2.974 3.46 2.72ZM924.995 2223.22s101.263 3.778 163.944 81.092c1.094 1.35 3.022 1.511 4.306.361 1.284-1.151 1.437-3.178.343-4.528-64.383-79.414-168.375-83.344-168.375-83.344-1.686-.063-3.102 1.322-3.162 3.095-.06 1.773 1.258 3.261 2.944 3.324Z"/><path fill="#609c8a" d="M2835.98 1310.37s-73.01-251.165-117.016-273.512c-44.007-22.347-114.291 120.373-147.021 139.43-15.988 9.309-32.029-36.581-49.36-25.087-34.057 22.584-154.979 160.596-154.979 160.596l468.376-1.427ZM2033.73 1106.35s36.505-200.697 58.509-218.554c22.003-17.857 57.145 96.186 73.51 111.414 7.994 7.438 16.015-29.231 24.68-20.047 17.028 18.047 77.489 128.326 77.489 128.326l-234.188-1.139Z"/><path fill="#1a1750" d="M2386.46 806.178v-29.079l65.61 34.494-65.61 34.495v-29.079h-277.396v-10.831h277.396Z"/><path fill="#facb45" d="M2655.58 918.394s3.92 17.932-23.792 48.717c-30.634 34.031-97.654 81.352-242.712 135.474-88.818 33.139-153.811 66.706-195.455 101.775-28.704 24.172-46.491 49.21-53.815 75.237-9.257 32.901-2.063 67.655 22.043 104.865 23.151 35.733 62.142 73.978 116.884 115.318 32.331 24.417 47.088 46.423 47.84 67.012.541 14.795-6.407 28.427-18.339 41.173-12.894 13.775-31.514 26.384-53.674 37.958-113.728 59.397-319.349 90.555-346.624 94.51-3.45.501-5.861 3.847-5.385 7.474.476 3.628 3.658 6.163 7.108 5.663 27.584-4.001 235.492-35.699 350.511-95.771 28.44-14.854 51.275-31.53 64.796-49.775 9.694-13.081 14.747-27.03 14.209-41.741-.856-23.423-16.304-49.496-53.085-77.273-53.244-40.209-91.301-77.258-113.818-112.014-21.561-33.28-28.653-64.21-20.373-93.637 6.707-23.836 23.318-46.512 49.606-68.649 40.844-34.394 104.677-67.126 191.788-99.628 148.159-55.278 216.365-104.097 247.654-138.855 34.226-38.022 26.749-61.512 26.749-61.512-.966-3.518-4.462-5.546-7.808-4.53-3.345 1.016-5.275 4.691-4.308 8.209Z"/><path fill="#ee5023" d="M2661.64 943.312s-100.066-153.743-100.066-219.633c0-55.228 44.838-100.066 100.066-100.066s100.066 44.838 100.066 100.066c0 65.89-100.066 219.633-100.066 219.633Z"/><ellipse cx="2661.64" cy="740.566" fill="#fff" rx="40.796" ry="42.896"/></svg>