<svg xmlns="http://www.w3.org/2000/svg" fill-rule="evenodd" stroke-linejoin="round" stroke-miterlimit="2" clip-rule="evenodd" viewBox="0 0 3000 3000"><path fill="none" d="M0 0h3000v3000H0z"/><path fill="#223d4d" d="m1020.55 875.156-820.137-9.147-13.903 863.882 1231.91-5.964-397.867-848.771Z"/><path fill="#feca12" d="m1020.55 875.156-820.137-9.147 332.691 863.882 885.313-5.964-397.867-848.771Z"/><path fill="#f99e1c" d="m1020.55 875.156-820.137-9.147 55.801 144.895 828.08.237-63.744-135.985ZM752.788 1478.73c32.22 0 63.256 31.175 69.264 69.573 6.009 38.399-15.271 69.573-47.49 69.573-32.22 0-63.256-31.174-69.264-69.573-6.009-38.398 15.271-69.573 47.49-69.573Zm180.168 0c32.219 0 63.255 31.175 69.264 69.573 6.008 38.399-15.272 69.573-47.491 69.573s-63.255-31.174-69.264-69.573c-6.009-38.398 15.271-69.573 47.491-69.573Zm199.602 0c32.219 0 63.256 31.175 69.264 69.573 6.009 38.399-15.271 69.573-47.49 69.573-32.22 0-63.256-31.174-69.265-69.573-6.008-38.398 15.272-69.573 47.491-69.573Zm-506.381-207.97c32.22 0 63.256 31.175 69.264 69.573 6.009 38.399-15.271 69.573-47.49 69.573s-63.256-31.174-69.264-69.573c-6.009-38.398 15.271-69.573 47.49-69.573Zm180.168 0c32.219 0 63.255 31.175 69.264 69.573 6.008 38.399-15.271 69.573-47.491 69.573-32.219 0-63.255-31.174-69.264-69.573-6.008-38.398 15.271-69.573 47.491-69.573Zm199.602 0c32.22 0 63.256 31.175 69.264 69.573 6.009 38.399-15.271 69.573-47.49 69.573-32.22 0-63.256-31.174-69.264-69.573-6.009-38.398 15.271-69.573 47.49-69.573Zm-495.353-188.421c32.219 0 63.255 31.175 69.264 69.573 6.008 38.399-15.271 69.573-47.491 69.573-32.219 0-63.255-31.174-69.264-69.573-6.008-38.398 15.271-69.573 47.491-69.573Zm180.167 0c32.219 0 63.256 31.175 69.264 69.573 6.009 38.399-15.271 69.573-47.49 69.573-32.22 0-63.256-31.174-69.265-69.573-6.008-38.398 15.272-69.573 47.491-69.573Zm199.603 0c32.219 0 63.255 31.175 69.264 69.573 6.008 38.399-15.272 69.573-47.491 69.573s-63.255-31.174-69.264-69.573c-6.009-38.398 15.271-69.573 47.491-69.573Z"/><path fill="#ee5023" d="M291.943 833.103c1.309-9.306 16.151-23.607 17.522-20.171 15.773 39.51 16.542 132.073 16.542 132.073a5.678 5.678 0 0 0 5.747 5.622l17.033-.206a5.678 5.678 0 0 0 5.608-5.759s-1.563-99.672-18.563-142.256c-3.429-8.589-7.621-15.235-12.103-19.515-4.697-4.486-9.935-6.908-15.45-7.506-7.589-.824-16.855 1.771-26.519 12.012-10.503 11.13-15.824 26.775-17.931 41.752-2.864 20.363-1.106 36.86-1.106 36.86s30.129 3.099 29.659 0c0 0-2.698-16.843-.439-32.906ZM562.421 834.346c1.309-9.305 16.151-23.606 17.522-20.171 15.773 39.511 16.542 132.074 16.542 132.074a5.68 5.68 0 0 0 5.747 5.622l17.033-.207a5.676 5.676 0 0 0 5.608-5.758s-1.563-99.672-18.563-142.256c-3.429-8.59-7.621-15.235-12.103-19.515-4.697-4.487-9.935-6.908-15.449-7.506-7.59-.824-16.856 1.771-26.519 12.011-10.504 11.131-15.825 26.775-17.932 41.753-2.864 20.363-1.106 36.86-1.106 36.86s30.129 3.098 29.659 0c0 0-2.698-16.844-.439-32.907ZM819.278 836.177c1.309-9.306 16.151-23.606 17.522-20.171 15.773 39.51 16.542 132.074 16.542 132.074a5.68 5.68 0 0 0 5.747 5.621l17.033-.206a5.68 5.68 0 0 0 5.608-5.759s-1.563-99.671-18.563-142.256c-3.429-8.589-7.621-15.234-12.103-19.515-4.697-4.486-9.935-6.907-15.45-7.506-7.589-.823-16.855 1.772-26.519 12.012-10.503 11.131-15.824 26.775-17.931 41.752-2.864 20.364-1.106 36.861-1.106 36.861s30.129 3.098 29.659 0c0 0-2.698-16.844-.439-32.907Z"/><path fill="#f99184" d="M1986.39 1176.23c-205.947-71.902-259.932 103.687-246.493 188.287 14.108 88.811 218.931 303.324 258.589 347.816 128.764 144.458 325.549-14.206 274.469-179.777-11.439-37.077-209.462-329.408-286.565-356.326Z"/><path fill="#a1c17f" d="M1791.8 1034.78c-72.623-13.624-223.9 26.793-205.595 149.904 12.887 86.668 278.393 380.154 278.393 380.154-3.6-89.921 146.383-248.622 303.341-195.638 0 0-192.961-300.057-376.139-334.42Z"/><path fill="#e8e8e8" d="m341.586 2405.61 2471.16 4.405.74-62.963-314.587-591.038-1861.03 14.692-298.374 576.346 2.089 58.558Z"/><path fill="#a1c17f" d="m1256 1060.62 393.236-1.696s214.224 253.575 292.286 730.897l-693.658-11.842L1256 1060.62Z"/><path d="M1750.2 1220.98c-1.836 3.891 127.295 212.434 184.239 539.16a2.008 2.008 0 0 0 2.297 1.651 1.998 1.998 0 0 0 1.651-2.297c-55.654-329.91-185.643-538.361-184.838-540.7.36-1.044-1.843-1.185-2.768-.582a2 2 0 0 0-.581 2.768Z"/><path fill="#ffc5a8" d="m1343.28 803.914 257.57 122.451c53.985 147.309 101.692 212.523 39.779 325.309-140.677-10.095-221.617-86.979-317.095-147.607l19.746-300.153Z"/><path fill="#f99184" d="M1069.73 1344.63c132.311-173.429 289.787-48.504 325.158 29.513 37.131 81.901-15.708 373.751-24.309 432.728-27.929 191.49-283.888 170.112-312.34-.808 0 0-38.044-396.504 11.491-461.433Z"/><path fill="#a1c17f" d="M1156.94 1156.19c55.935-176.397 343.098-119.692 296.578 86.489-26.549 117.669-24.443 283.042-24.443 283.042-133.908-176.692-256.895-244.167-360.182-114.65 0 0 55.463-152.123 88.047-254.881Z"/><path d="M1439.38 1132.34c1.762 4.635 3.274 10.012 4.565 16.028 21.459 100.016-18.105 374.232-18.105 374.232a2 2 0 1 0 3.959.57s39.597-275.25 18.057-375.641c-1.338-6.236-2.911-11.807-4.737-16.61a2 2 0 0 0-3.739 1.421ZM1343.28 803.914l257.57 122.451c12.796 34.916 22.31 68.576 28.372 97.383 25.591 121.623-218.003-66.256-247.488-127.497l-38.454-92.337Z"/><path fill="#ffc5a8" d="M1270.16 738.313c2.811 1.54-40.864-281.706 178.319-322.077 98.033-18.057 204.422 69.493 246.193 184.263 11.662 32.043 61.137 342.879-61.52 372.496-123.875 29.912-224.494-34.414-290.623-110.298-6.161 8.025-16.367 12.112-32.797 14.508-35.111 5.118-73.776-30.507-87.541-67.566-16.985-45.73 10.337-91.942 47.969-71.326Z"/><path fill="#1d353b" d="M1204.62 482.025c-.948-5.149 29.758-226.716 255.736-188.837 338.144 56.679 235.232 303.596 235.232 303.596s-41.479-75.749-79.178-77.03c-96.603-3.283-259.062 59.233-306.628 4.65 29.834 107.888-13.921 257.182-13.921 257.182-5.371-30.959-55.233-68.547-76.985-10.035 0 0-101.2-114.544-104.664-196.817-4.097-97.317 87.087-93.367 90.408-92.709Z"/><path d="M1411.16 649.185s17.879-52.82 71.595-42.454a5 5 0 0 0 1.895-9.819c-62.2-12.003-82.96 49.06-82.96 49.06a5 5 0 0 0 9.47 3.213ZM1584.11 581.343s37.458-5.885 63.373 13.311a5 5 0 1 0 5.952-8.035c-28.993-21.477-70.846-15.16-70.846-15.16a5 5 0 0 0 1.521 9.884ZM1553.98 583.669l60.598 200.397-32.406 23.568a2 2 0 0 0 2.353 3.235l33.555-24.404a2 2 0 0 0 .738-2.196l-61.009-201.758a2 2 0 0 0-3.829 1.158ZM1618.55 872.686s-32.998-48.428-135.011-40.177a2 2 0 1 0 .322 3.987c99.147-8.019 131.393 38.456 131.393 38.456a2 2 0 1 0 3.296-2.266ZM1304.68 819.428s-5.936-12.471-16.149-22.357c-10.537-10.201-25.505-17.617-43.148-6.957a2 2 0 0 0 2.068 3.424c15.676-9.471 28.936-2.656 38.298 6.407 9.686 9.377 15.319 21.203 15.319 21.203a2 2 0 0 0 3.612-1.72Z"/><path d="M1291.88 801.614s-16.228-.088-31.141 17.375a2 2 0 0 0 3.042 2.598c13.519-15.832 28.106-15.973 28.106-15.973a2 2 0 1 0-.007-4Z"/><ellipse cx="1501.35" cy="705.406" rx="19.135" ry="34.54"/><ellipse cx="1643.14" cy="693.903" rx="16.028" ry="30.395"/><path fill="#223d4d" d="m637.871 1770.71 1861.04-14.692 314.573 591.038H339.494l298.374-576.346Z"/><path fill="#ffc5a8" d="M2128.21 1202.96c-58.451-42.206-210.858-82.406-260.447-38.335-34.765 30.897-14.412 85.95-23.431 120.082-3.715 14.061-6.106 28.712-7.635 51.797-3.055 46.135 111.499 111.359 128.034 107.225 0 0-3.862 204.956 8.706 233.806 97.98 224.918 360.79 183.771 366.927-7.607 1.243-38.782-4.36-316.923-212.154-466.968Z"/><path d="M1924.08 1430.62c13.235 7.272 25.009 12.399 32.745 14.365 2.29.582 4.266.88 5.871.915-.254 15.097-1.578 104.42 1.323 168.501 1.376 30.406 3.774 55.18 7.587 63.933a340.631 340.631 0 0 0 7.853 16.781 2 2 0 1 0 3.575-1.794 337.148 337.148 0 0 1-7.761-16.585c-3.727-8.556-5.913-32.792-7.258-62.516-3.173-70.1-1.282-170.453-1.282-170.453a1.998 1.998 0 0 0-2.484-1.978c-1.934.484-5.336-.217-9.821-1.665-7.377-2.382-17.372-6.938-28.421-13.01a2 2 0 0 0-1.927 3.506ZM1842.54 1285.59s4.682 9.517 12.354 16.525c4.817 4.4 10.796 7.775 17.483 7.565 4.483-.14 9.318-1.87 14.352-6.096a2 2 0 1 0-2.572-3.063c-4.189 3.516-8.175 5.044-11.905 5.161-5.633.176-10.603-2.814-14.66-6.52-7.12-6.504-11.463-15.337-11.463-15.337a2 2 0 1 0-3.589 1.765Z"/><path fill="#f99184" d="m1801.35 1581.99 62.108-64.015c-3.021-36.934-26.698-44.274-53.568-35.088l-8.54 99.103Z"/><path d="m1801.35 1581.99 29.602-30.51c-4.592-11.356-12.598-16.422-25.974-11.597l-3.628 42.107Z"/><path fill="#ee5023" d="M1997.87 996.365c28.191-14.164 42.375-5.318 44.571 23.223l-179.11 498.916c-5.734-27.924-26.299-35.72-53.334-34.735l187.873-487.404Z"/><path fill="#ffc5a8" d="M1985.12 1166.89c-75.686 15.675-94.747 75.1-97.633 149.957-5.884 152.581 266.27 145.742 269.601 26.862 2.098-74.884-86.455-194.529-171.968-176.819Z"/><path d="M2040.92 1215.78s-82.52 26.101-90.021 172.468a2.838 2.838 0 1 1-5.67-.291c7.747-151.178 94.004-177.599 94.004-177.599a2.839 2.839 0 1 1 1.687 5.422ZM2076.24 1272.66s-33.456 37.384-46.61 76.804c-8.475 25.398-8.534 51.733 15.796 68.74a2.84 2.84 0 0 1-3.253 4.654c-26.665-18.639-27.218-47.357-17.929-75.191 13.491-40.428 47.763-78.792 47.763-78.792a2.84 2.84 0 0 1 4.233 3.785Z"/><path d="M2155.65 1328.58c.051.126.095.256.128.392 1.846 7.378 2.509 14.014 1.878 19.607-1.208 10.696-11.48 22.342-25.639 33.116-31.548 24.007-81.923 44.568-81.923 44.568l-.034.014c-17.327 6.807-34.746 10.754-52.399 6.317-17.138-4.307-34.606-16.524-52.368-42.154-11.559 5.348-21.435 6.276-29.668 3.298-8.786-3.178-15.864-10.857-21.071-23.025-6.542-15.288-10.226-37.886-11.161-67.254a2.843 2.843 0 0 1 .022-.461s6.443-48.972 28.734-88.152c15.191-26.702 37.722-48.759 70.176-48.759a2.839 2.839 0 1 1 0 5.678c-30.293 0-51.061 20.964-65.241 45.888-20.89 36.72-27.509 82.253-28.008 85.856.918 28.354 4.375 50.194 10.698 64.97 4.455 10.41 10.266 17.201 17.783 19.92 7.543 2.728 16.639 1.306 27.426-4.113a2.84 2.84 0 0 1 3.628.948c17.18 25.447 33.872 37.691 50.434 41.854 16.485 4.143 32.729.27 48.909-6.085 1.011-.412 49.899-20.446 80.625-43.826 7.786-5.925 14.397-12.049 18.663-18.135 2.634-3.757 4.362-7.468 4.772-11.1.566-5.02-.087-10.97-1.744-17.592a2.84 2.84 0 0 1-.083-.572c-3.708-8.728-7.678-12.522-12.096-12.77-4.467-.251-8.894 2.961-12.976 7.044-9.144 9.144-16.178 23.243-16.178 23.243a2.838 2.838 0 1 1-5.078-2.539s7.51-14.988 17.241-24.719c5.356-5.356 11.448-9.028 17.309-8.698 5.908.332 12.061 4.568 17.017 16.249.138.325.21.66.224.992Z"/><path fill="#ffc5a8" d="M1025.38 1806.02c146.372 204.607 310.934 66.52 343.036-12.898 25.109-62.119-35.839-238.523-64.874-352.647-9.934-39.046 9.38-68.831-3.732-112.347-27.977-92.849-114.581-107.907-114.581-107.907-26.047-47.321-50.302-104.646-89.683-77.538-32.216-31.274-63.043-47.281-88.169-.682-38.452-31.934-62.631-10.112-76.374 51.015-16.783-26.259-72.53 9.56-28.964 73.944 33.331 49.257 149.768 100.822 147.655 117.859 0 0-71.83 354.78-24.314 421.201Z"/><path d="M1093.67 1142s-34.385 94.7 52.256 146.955a2 2 0 0 0 2.066-3.425c-83.819-50.553-50.562-142.165-50.562-142.165a2 2 0 1 0-3.76-1.365ZM1004.8 1138.15s-29.955 89.683 59.193 128.802a2 2 0 1 0 1.607-3.663c-85.756-37.631-57.006-123.873-57.006-123.873a1.999 1.999 0 1 0-3.794-1.266ZM929.746 1196.22s2.694 33.804 18.181 61.598c10.507 18.857 26.86 34.913 51.992 36.328a2 2 0 0 0 .225-3.994c-23.606-1.329-38.854-16.569-48.723-34.281-15.076-27.057-17.687-59.968-17.687-59.968a2 2 0 0 0-3.988.317ZM1202.75 1387.69s-68.569-28.692-135.172 4.568a2 2 0 1 0 1.788 3.579c64.961-32.441 131.84-4.457 131.84-4.457a2 2 0 1 0 1.544-3.69Z"/><path fill="#feca12" d="m2143.72 1931.78-593.425-3.508c47.999 173.399 51.045 431.832 49.585 719.368-.187 33.829 26.869 61.516 60.694 62.108 160.908 2.822 595.597.562 595.597.562-11.444-286.485-29.729-562.832-112.451-778.53Z"/><path fill="#ee5023" d="m1731.65 2599.12 646.987.052s-28.09 79.79-94.972 111.995l-630.21-2.709c31.767-2.686 81.73-35.377 78.195-109.338Z"/><path fill="#fff" d="M2144.54 2479.03c21.094 0 38.221 17.126 38.221 38.221 0 21.095-17.127 38.221-38.221 38.221-21.095 0-38.221-17.126-38.221-38.221 0-21.095 17.126-38.221 38.221-38.221Zm-446.884 53.328h376.122c5.488 0 9.937-4.448 9.937-9.936 0-5.488-4.449-9.937-9.937-9.937h-376.122c-5.488 0-9.937 4.449-9.937 9.937 0 5.488 4.449 9.936 9.937 9.936Zm431.564-205.253c21.094 0 38.221 17.126 38.221 38.221 0 21.095-17.127 38.221-38.221 38.221-21.095 0-38.221-17.126-38.221-38.221 0-21.095 17.126-38.221 38.221-38.221Zm-446.884 53.328h376.122c5.488 0 9.937-4.449 9.937-9.936 0-5.488-4.449-9.937-9.937-9.937h-376.122c-5.488 0-9.937 4.449-9.937 9.937 0 5.487 4.449 9.936 9.937 9.936Zm429.648-181.634c21.095 0 38.221 17.126 38.221 38.221 0 21.094-17.126 38.221-38.221 38.221-21.094 0-38.221-17.127-38.221-38.221 0-21.095 17.127-38.221 38.221-38.221Zm-446.883 53.328h376.122c5.488 0 9.937-4.449 9.937-9.937 0-5.488-4.449-9.936-9.937-9.936h-376.122c-5.488 0-9.937 4.448-9.937 9.936 0 5.488 4.449 9.937 9.937 9.937Zm434.54-165.537c21.095 0 38.221 17.127 38.221 38.221 0 21.095-17.126 38.221-38.221 38.221-21.094 0-38.221-17.126-38.221-38.221 0-21.094 17.127-38.221 38.221-38.221Zm-446.883 53.328h376.122c5.488 0 9.937-4.448 9.937-9.936 0-5.488-4.449-9.937-9.937-9.937h-376.122c-5.488 0-9.937 4.449-9.937 9.937 0 5.488 4.449 9.936 9.937 9.936Zm434.706-157.681c21.094 0 38.221 17.126 38.221 38.22 0 21.095-17.127 38.221-38.221 38.221-21.095 0-38.221-17.126-38.221-38.221 0-21.094 17.126-38.22 38.221-38.22Zm-446.884 53.328h376.122c5.488 0 9.937-4.449 9.937-9.937 0-5.488-4.449-9.937-9.937-9.937H1640.58c-5.488 0-9.937 4.449-9.937 9.937 0 5.488 4.449 9.937 9.937 9.937Z"/><path fill="#e8e8e8" d="M2255.1 757.736c0-61.61-77.801-111.629-173.631-111.629-95.829 0-173.631 50.019-173.631 111.629 0 26.589 14.763 52.305 41.631 72.519l-41.631 94.923 120.278-61.215c17.238 3.579 35.24 5.401 53.353 5.401 95.83 0 173.631-50.019 173.631-111.628Z"/><path fill="#f99e1c" d="M1937.46 560.477h317.639v225.165H1937.46z"/><path fill="#223d4d" d="M1937.46 560.477h317.639V608.7H1937.46z"/><circle cx="1979.51" cy="608.334" r="23.744" fill="#ffeeb0"/><path fill="#ffeeb0" d="M1979.51 673.06h238.24v8.24h-238.24zM1979.51 707.961h238.24v8.24h-238.24z"/></svg>