<svg xmlns="http://www.w3.org/2000/svg" fill-rule="evenodd" stroke-linejoin="round" stroke-miterlimit="2" clip-rule="evenodd" viewBox="0 0 3000 3000"><path fill="none" d="M0 0h3000v3000H0z"/><path fill="#1d353b" d="M1293 305.236c65.826 0 140.347 98.706 140.347 146.644 0 47.939-52.763 99.093-118.588 99.093-65.826 0-129.296-64.484-129.296-112.423 0-47.939 41.711-133.314 107.537-133.314Z"/><path fill="#ffc5a8" d="M1622.79 1346.01c-11.77-138.451-250.832-182.923-344.841-80.601-94.008 102.321-402.381 306.286-527.271 497.102-189.385 289.357-157.645 628.311 284.669 414.087 124.658-60.375 599.213-692.136 587.443-830.588Z"/><path fill="#a1c17f" d="M1658.33 1419.07c-28.429-285.4-96.842-388.991-376.405-187.711-75.401 54.287-165.079 128.332-207.06 206.881 228.718-60.633 378.718 98.627 596.989 184.255 0 0-1.289-80.601-13.524-203.425Z"/><path fill="#ffc5a8" d="M801.527 1691.57c.39-95.269 24.98-125.019-34.722-199.299-75.654-94.13-121.1-98.194-134.084 17.858 0 0-108.796-91.951-147.212-105.433-95.957-33.674-137.034 80.029-106.25 70.735-58.552 10.111-60.915 80.113-18.391 96.259-28.887 24.593-32.002 52.692-.578 68.7 0 0-28.718 13.558-13.979 41.734 12.929 24.714 28.465 25.414 29.353 35.267 11.236 124.617 224.412 483.649 350.12 514.38 238.616 58.333 333.219-116.08 173.609-378.994l-97.866-161.207Z"/><path fill="#a1c17f" d="m2015.85 1172.76-472.585-42.463c-129.997 148.592-354.973 295.002-263.555 554.3l-404.134 823.521c459.72 270.961 879.7 249.87 1287.17 63.636 0 0-95.396-149.84-104.35-235.116-13.754-130.984 196.301-450.138 229.016-723.385 25.52-213.159-93.505-399.274-271.561-440.493Z"/><path fill="#609c8a" d="M2085.59 1492.88c-93.276 3.177-115.261 18.999-336.909 103.418 121.641 108.795 307.218 133.246 425.192 124.425 106.817-7.987 146.458-39.189 248.625-134.232 0 0-131.651-100.602-336.908-93.611Z"/><path fill="#ffc5a8" d="M2304.04 1482.32c-23.907-102.919-246.764-149.512-328.636-82.723-81.872 66.788-305.111 259.452-356.197 351.94-118.769 215.021 177.433 572.748 418.08 381.207 82.669-65.799 290.66-547.506 266.753-650.424Z"/><path d="M380.181 1478.77s15.314-4.23 30.548-2.055c9.581 1.367 19.218 5.275 24.429 14.979a3.465 3.465 0 0 0 6.106-3.279c-6.347-11.819-17.887-16.895-29.556-18.561-16.641-2.375-33.37 2.235-33.37 2.235a3.465 3.465 0 1 0 1.843 6.681ZM363.285 1573.83s13.369-7.638 28.735-9.959c9.739-1.471 20.357-.858 28.582 5.815a3.465 3.465 0 1 0 4.366-5.382c-9.801-7.951-22.378-9.039-33.984-7.285-16.651 2.515-31.137 10.794-31.137 10.794a3.465 3.465 0 1 0 3.438 6.017ZM364.145 1641.58s10.198-11.368 24.041-17.313c8.774-3.768 19.088-5.367 29.094.174a3.465 3.465 0 1 0 3.357-6.062c-12.101-6.703-24.574-5.037-35.186-.48-15.236 6.544-26.464 19.052-26.464 19.052a3.464 3.464 0 1 0 5.158 4.629Z"/><path fill="#ffa2c7" d="M583.715 1382.25c27.882-15.656 40.001-24.246 116.764-33.88 0 0 144.451-252.717 461.193-228.281 155.851 12.024 241.292 68.369 287.226 150.632 8.806-3.043 18.942-4.777 29.724-4.777 33.873 0 61.373 17.116 61.373 38.198s-27.5 38.197-61.373 38.197c-.214 0-.427 0-.64-.002 16.833 59.322 21.474 126.811 21.474 198 0 215.721-501.08 439.557-796.988 439.557-295.907 0-335.568-184.354-335.568-258.405 0-82.854 53.528-175.716 118.367-249.045-19.262-5.11-38.699-15.441-55.808-30.786-45.831-41.105-57.705-102.724-26.501-137.516 31.205-34.792 93.748-29.666 139.579 11.44 21.549 19.327 35.592 43.19 41.178 66.668Z"/><path fill="#243c4d" d="M958.022 1231.1c7.954 10.075 16.481 45.63 35.657 45.165 43.747-1.06 197.681-34.898 226.824-51.529 20.531-11.715-28.334-48.827-51.966-48.254-43.747 1.061-218.469 44.543-210.515 54.618ZM872.34 1405.68c-7.654 4.639-15.089 10.125-22.14 16.45a3.464 3.464 0 1 0 4.627 5.159c44.243-39.681 104.562-45.292 134.686-11.706 30.123 33.586 18.007 92.942-26.236 132.623a3.466 3.466 0 0 0 4.628 5.159c47.42-42.53 59.053-106.411 26.767-142.409-26.237-29.252-73.919-31.669-116.313-8.727-17.187-26.926-48.54-41.695-80.395-49.509-48.415-11.876-97.77-7.798-97.77-7.798a3.465 3.465 0 1 0 .571 6.907s48.233-3.985 95.548 7.621c30.01 7.362 59.746 20.943 76.027 46.23ZM652.106 1634.54c-9.948 26.456-1.296 54.226 19.309 61.974 20.605 7.748 45.411-7.441 55.359-33.897s1.296-54.225-19.309-61.973c-20.606-7.749-45.411 7.44-55.359 33.896ZM444.994 1601.78c-9.948 26.456-3.751 53.302 13.83 59.913 17.58 6.611 39.93-9.501 49.878-35.957 9.948-26.456 3.752-53.302-13.829-59.913-17.581-6.611-39.93 9.501-49.879 35.957Z"/><ellipse cx="485.359" cy="1874.37" fill="#d6759c" rx="207.342" ry="151.731"/><ellipse cx="448.758" cy="1873.22" fill="#ffcce1" rx="207.342" ry="151.731"/><circle cx="366.9" cy="1882.4" r="45.823" fill="#243c4d"/><circle cx="519.111" cy="1882.4" r="45.823" fill="#243c4d"/><path fill="#ffc5a8" d="M1407.58 1686.02c-56.177-76.946-94.869-77.246-186.988-101.659-116.735-30.937-155.739-7.262-97.38 93.886 0 0-194.586-10.633-224.483 17.002-27.649 25.557 11.538 82.081 11.538 82.081-79.917 37.728-94.118 77.846-19.049 121.211-13.478 26.251-17.231 52.024 30.572 75.262 0 0-3.499 27.018 25.076 40.966 25.065 12.235 81.933 11.333 91.126 14.988 98.182 39.038 724.348 179.474 830.006 179.113 245.641-.84 290.138-327.17 5.718-444.236-97.706-40.216-466.136-78.614-466.136-78.614Z"/><path d="M884.815 1947.96c5.619 9.462 16.144 18.769 33.85 27.641-.2 6.979 1.262 29.351 26.882 41.857 15.302 7.469 42.235 10.217 63.368 11.951 13.426 1.102 24.4 1.711 27.966 3.129 13.572 5.396 37.186 12.728 68.102 21.349a3 3 0 1 0 1.611-5.78c-30.639-8.543-54.046-15.796-67.497-21.144-3.789-1.507-15.425-2.363-29.692-3.534-20.407-1.675-46.449-4.15-61.226-11.363-26.498-12.934-23.416-37.889-23.416-37.889a3 3 0 0 0-1.664-3.079c-17.388-8.453-27.754-17.158-33.125-26.201a3 3 0 1 0-5.159 3.063ZM1872.39 1767.84c6.28 2.94 8.935 3.16 13.318 3.199 4.891.043-4.679-6.784-10.68-9.608-43.253-20.353-143.62-36.069-239.488-50.158a3.465 3.465 0 1 0-1.008 6.857c95.207 13.991 194.864 29.581 237.858 49.71Z"/><path fill="#ffc5a8" d="m1898.06 861.812-283.695-16.431-26.288 297.622c-3.933 208.464 139.181 209.646 412.32 27.54L1898.06 861.812Z"/><path fill="#609c8a" d="M1896.1 1326.7c-10.879 80.468-52.004 101.885-125.389 60.317-104.704 74.067-149.63 38.543-182.72-18.682-41.384-7.233-57.466-30.879-42.463-74.687-43.945-23.802-45.655-58.784-20.511-100.874-8.261-21.856-3.372-42.117 19.021-60.257L1588.07 1143c-3.933 208.464 139.181 209.646 412.32 27.54 10.312 67.891-4.351 127.006-104.29 156.16Z"/><path fill="#1d353b" d="M1643.89 291.717c152.742 0 277.789 119.939 277.789 225.88 0 105.94-185.025 292.632-337.766 292.632s-250.306-146.012-250.306-251.953 157.542-266.559 310.283-266.559Z"/><path fill="#070700" d="M1337.07 558.276c0-47.302 32.087-105.557 80.955-155.245a3.465 3.465 0 0 0-4.941-4.86c-50.327 51.172-82.944 111.39-82.944 160.105a3.465 3.465 0 1 0 6.93 0Z"/><path d="m1898.06 861.812-283.695-16.431-13.568 153.606c116.495 106.903 229.912 107.355 339.841-8.725l-42.578-128.45ZM1120.64 1680.57s27.995 31.568 102.141 23.175a3.465 3.465 0 0 0-.779-6.887c-69.708 7.892-96.217-20.931-96.217-20.931a3.465 3.465 0 1 0-5.145 4.643ZM908.463 1780.46s30.937 17.382 144.756 18.219a3.466 3.466 0 1 0 .051-6.93c-111.175-.818-141.449-17.351-141.449-17.351a3.465 3.465 0 0 0-3.358 6.062ZM890.001 1901.04s75.324 1.778 113.541-2.781a3.465 3.465 0 0 0-.821-6.881c-37.885 4.519-112.556 2.733-112.556 2.733a3.465 3.465 0 0 0-.164 6.929ZM922.551 1977.15l75.964-2.353a3.465 3.465 0 1 0-.215-6.927l-75.964 2.353a3.465 3.465 0 1 0 .215 6.927ZM1035.16 2032.21s18.567-3.777 28.742-11.017a3.465 3.465 0 0 0-4.018-5.647c-9.219 6.56-26.083 9.869-26.083 9.869a3.465 3.465 0 1 0 1.359 6.795ZM1405.25 1687.19s22.785 28.094 13.43 73.887a3 3 0 1 0 5.879 1.201c9.959-48.75-14.486-78.668-14.662-78.883a3 3 0 0 0-4.645 3.797l-.002-.002Z"/><path fill="#a1c17f" d="M2316.41 1368.92c-109.822-222.35-296.146-141.785-402.964-16.53-54.479 63.883-120.513 161.092-164.77 243.9 228.718-60.633 455.547-94.822 673.817-9.194 0 0-55.758-116.286-106.083-218.176Z"/><path fill="#609c8a" d="M1975.62 1502.58s-69.608-104.69-152.204-10.054c-37.132 42.544-50.241 57.942-74.732 103.766 228.718-60.633 455.547-94.822 673.817-9.194 0 0-24.101-74.573-66.768-153.503-26.628-49.26-137.298 42.513-137.298 42.513-65.827-73.844-146.971-63.897-242.815 26.472Z"/><path fill="#ffc5a8" d="M1964.71 668.696c5.413 22.325 8.31 44.931 8.31 67.301 0 157.205-48.674 248.792-202.307 271.541-73.029 10.814-152.584-33.702-214.906-100.383-15.686 14.237-35.932 22.821-58.023 22.821-49.788 0-82.234-86.545-82.234-140.246 0-37.719 21.388-28.986 51.37-20.449-14.62-36.227-22.983-72.893-22.983-107.054 0-157.205 79.382-252.288 232.686-252.288 79.702 0 156.645 45.641 212.143 111.542a29.028 29.028 0 0 1 6.617-4.082c24.456-10.85 59.438 14.435 78.07 56.43 18.162 40.936 14.126 82.736-8.743 94.867Z"/><path d="m1720.43 653.637 78.101 123.009-18.734 31.825a3.465 3.465 0 1 0 5.972 3.516l19.809-33.652a3.465 3.465 0 0 0-.06-3.615l-79.237-124.798a3.465 3.465 0 1 0-5.851 3.715ZM1668.73 747.338s-26.617 54.661-93.867 32.876a3.465 3.465 0 1 0-2.135 6.593c73.396 23.776 102.243-36.456 102.243-36.456a3.464 3.464 0 1 0-6.241-3.013ZM1506.25 838.321c-33.467-18.981-62.385 13.404-62.385 13.404-1.041 1.159-1.224 2.966-.408 4.036.816 1.069 2.321.995 3.362-.165 0 0 32.068-35.516 66.495-5.045 3.967 8.656 6.85 19.104 7.991 31.713a3.465 3.465 0 1 0 6.902-.624c-6.949-76.838-73.671-79.722-73.671-79.722a3.465 3.465 0 0 0-.32 6.923s32.067 1.595 52.034 29.48ZM1847.15 650.015s-27.77 47.169-70.991 55.813a3.465 3.465 0 1 0 1.359 6.796c45.92-9.184 75.596-59.08 75.596-59.08a3.465 3.465 0 1 0-5.964-3.529ZM1660.62 874.412c.206-.433.436-.881.666-1.258 2.895-4.752 8.198-10.553 8.198-10.553a3.464 3.464 0 1 0-5.121-4.668s-5.046 5.542-8.296 10.51c-1.68 2.567-2.842 5.063-3.075 6.797-.217 1.613.163 2.914.863 3.886.745 1.033 1.929 1.888 3.873 2.04 30.595 2.399 192.518-3.07 192.518-3.07a3.465 3.465 0 0 0-.235-6.926s-153.81 5.223-189.391 3.242Z"/><path fill="#1d353b" d="M1613.31 367.762c157.407-219.943 389.884 99.445 85.967 176.686-34.058 58.109-78.222 75.79-128.122 70.529-76.747 72.746-181.176 52.667-138.797-53.967-21.316-61.722 9.163-94.389 76.334-106.472 3.446-55.897 32.595-89.996 104.618-86.776Z"/><path fill="#070700" d="M1450.27 648.857c-23.465-11.651-32.884-40.791-14.691-86.567a3.467 3.467 0 0 0 .056-2.411c-8.171-23.658-8.579-42.856-1.794-58.124 10.245-23.051 36.595-36.814 75.465-43.806a3.465 3.465 0 0 0 2.845-3.197c1.66-26.918 9.354-48.648 25.458-63.2 16.178-14.619 40.705-21.886 75.547-20.328a3.466 3.466 0 0 0 2.973-1.445c49.115-68.628 105.529-83.871 150.125-69.83 66.432 20.917 106.045 106.356 53.482 172.82a3.464 3.464 0 1 0 5.435 4.299c55.879-70.657 13.787-161.493-56.836-183.729-46.442-14.623-105.485.214-156.746 70.886-36.182-1.308-61.655 6.849-78.626 22.185-16.796 15.177-25.395 37.486-27.541 65.211-40.261 7.684-67.149 23.099-77.914 47.32-7.26 16.336-7.307 36.821 1.161 61.984-19.44 49.891-7.206 81.366 18.519 94.139a3.465 3.465 0 1 0 3.082-6.207Z"/><path fill="#fba800" d="m2191.97 442.259 31.907 68.871 62.769 35.01-62.769 35.009-31.907 68.871-31.908-68.871-62.768-35.009 62.768-35.01 31.908-68.871ZM2663.91 1632.86l-31.907 68.871-62.769 35.01 62.769 35.01 31.907 68.871 31.908-68.871 62.768-35.01-62.768-35.01-31.908-68.871ZM2426.78 718.056l28.39 60.995 55.85 31.005-55.85 31.006-28.39 60.994-28.391-60.994-55.849-31.006 55.849-31.005 28.391-60.995ZM2429.09 1908.66l-28.39 60.994-55.85 31.006 55.85 31.005 28.39 60.995 28.391-60.995 55.849-31.005-55.849-31.006-28.391-60.994Z"/><circle cx="744.356" cy="594.082" r="178.364" fill="#f99e1c"/><circle cx="744.356" cy="594.082" r="156.934" fill="#feca12"/><path fill="#ee5023" d="M766.332 629.954c.584 10.316-7.924 18.957-18.668 19.469-10.745.512-20.021-7.473-20.589-17.595l-39.138 1.871c1.551 27.442 23.099 47.289 46.97 51.808l1.057 18.8 29.424-1.404-1.058-18.8c23.236-6.81 42.39-28.597 40.85-56.002-.862-15.298-7.301-28.059-19.397-38.293-12.218-10.19-26.407-14.937-42.477-14.169-10.745.518-20.045-7.862-20.601-17.669-.55-9.728 7.722-18.949 18.504-19.458 10.701-.515 20.162 7.738 20.715 17.587l39.093-1.869c-1.525-27.126-23.139-46.621-46.9-51.337l-1.077-19.037-29.424 1.41 1.077 19.031c-23.063 6.915-42.695 28.422-41.164 55.548.862 15.22 7.376 27.98 19.478 38.294 12.056 10.195 26.118 14.944 42.358 14.171l.21.108c10.701-.516 20.191 7.535 20.757 17.536Z"/><circle cx="1101.08" cy="898.252" r="108.195" fill="#f99e1c"/><circle cx="1101.08" cy="898.252" r="95.196" fill="#feca12"/><path fill="#ee5023" d="M1114.41 920.012c.355 6.257-4.806 11.499-11.324 11.81-6.517.31-12.144-4.534-12.489-10.674l-23.74 1.136c.94 16.646 14.011 28.685 28.491 31.426l.642 11.404 17.848-.852-.642-11.404c14.095-4.131 25.714-17.347 24.779-33.97-.523-9.28-4.428-17.021-11.766-23.229-7.411-6.181-16.018-9.061-25.766-8.595-6.518.315-12.159-4.769-12.497-10.717-.333-5.901 4.685-11.495 11.225-11.804 6.491-.312 12.23 4.694 12.565 10.669l23.714-1.134c-.925-16.454-14.036-28.28-28.449-31.141l-.653-11.548-17.849.856.654 11.544c-13.99 4.194-25.899 17.24-24.97 33.695.523 9.232 4.474 16.972 11.815 23.229 7.313 6.184 15.843 9.065 25.694 8.596l.128.065c6.491-.313 12.247 4.571 12.59 10.638Z"/><circle cx="674.187" cy="1006.45" r="108.195" fill="#f99e1c"/><circle cx="674.187" cy="1006.45" r="95.196" fill="#feca12"/><path fill="#ee5023" d="M687.517 1028.21c.354 6.258-4.806 11.5-11.324 11.81-6.518.311-12.144-4.533-12.489-10.673l-23.741 1.135c.941 16.646 14.012 28.685 28.492 31.427l.641 11.404 17.849-.852-.642-11.404c14.095-4.131 25.714-17.347 24.779-33.97-.523-9.28-4.429-17.021-11.766-23.229-7.411-6.181-16.018-9.061-25.766-8.595-6.518.314-12.16-4.769-12.497-10.718-.333-5.9 4.685-11.494 11.225-11.803 6.491-.313 12.23 4.694 12.565 10.668l23.714-1.133c-.925-16.455-14.036-28.281-28.449-31.141l-.653-11.548-17.849.855.653 11.545c-13.989 4.194-25.898 17.24-24.969 33.695.523 9.232 4.474 16.972 11.815 23.228 7.312 6.185 15.843 9.066 25.694 8.597l.127.065c6.492-.313 12.248 4.571 12.591 10.637Z"/></svg>