<svg xmlns="http://www.w3.org/2000/svg" enable-background="new 0 0 2500 2500" viewBox="0 0 2500 2500"><polygon fill="#998675" points="2145.5 1620.7 354.5 1620.7 57.2 1965.6 2442.8 1965.6"/><path fill="#76aca3" d="M1473.1,1300.1c0,0,18.1,69.6,33.2,127.9H916.1v-6c0,0,55.2-525.3,157-595.1c16.7-11.4,36.4-20.5,58-27.2
			c72.2-22.4,165.7-18.3,238,13.8c38.2,17,70.5,41.7,90.7,74.5L1473.1,1300.1z"/><path fill="#f2e3bd" d="M1333.3,966.2l23.1,461.8l-90.2,47.4l-82.5-47.4V982l-52.6-182.3c72.2-22.4,165.7-18.3,238,13.8L1333.3,966.2
			z"/><circle cx="1147.8" cy="1013.1" r="21.3" fill="#f2e3bd"/><circle cx="1147.8" cy="1171" r="21.3" fill="#f2e3bd"/><path fill="#76aca3" d="M1073.1,826.9c-8.8,7.3-275.8,259.1-300.3,405.9S958,1401.3,958,1401.3L1073.1,826.9z"/><path fill="#1a1a1a" d="M1105.4,1214.2c-0.4,0.1-0.7,0.1-1.1,0l-148-53.2c-1-0.3-1.5-1.4-1.1-2.4c0.3-1,1.4-1.5,2.4-1.1l148,53.2
			c1,0.3,1.5,1.4,1.1,2.4C1106.5,1213.6,1106,1214,1105.4,1214.2z"/><path fill="#f8b790" d="M1123.7,1383.4c-1.4-3.4,4.4-143.3,5.4-142.6s93.1-20.6,163.1,10.6s97.3,71.2,85.2,86.4
			c-12.2,15.2-35.2,5.1-79.9-31.5c0,0,62.5,60.1,37.4,85.2c-25.1,25.2-35.4-9.2-34.2-6.7c1.3,2.5,5.1,22.6-17.5,27.7
			c-22.6,5.1-31.1-16.2-31.1-16.2s9.5,28.5-18.2,23.4s-39.9-52.7-56.9-52C1160.1,1368.3,1123.7,1383.4,1123.7,1383.4z"/><polygon fill="#48607d" points="1266.2 1799.5 1157.2 1829.1 1135.1 1763.9"/><path fill="#48607d" d="M1900,1465.4c0,93.2-78.1,183.2-189.2,213.3l-343.6,93.3l85.2-251.7l-190.4-77.7l324.1-132.3
			c126.7-51.7,267.9-7.9,305.1,102C1897.2,1429.9,1900,1447.7,1900,1465.4z"/><polygon fill="#1a1a1a" points="1157.2 1829.1 941.9 1907.2 823 1679.1 1135.1 1763.9"/><path fill="#48607d" d="M1452.4,1520.4l-85.2,251.7l-17,50.3l-84-22.8l-131.1-35.6L823,1679.1l-26.4-7.2
			c-111-30.2-189.2-120.1-189.2-213.3c0-17.7,2.8-35.5,8.7-53c37.2-109.9,178.4-153.7,305.1-102l340.8,139.1L1452.4,1520.4z"/><path fill="#1a1a1a" d="M1422.7,1608.2c-12.1,1.6,109.7-33.2,109.7-33.2s74.8-189.6,243.6-78.3l-210.5,403.6l-215.2-78L1422.7,1608.2
			z"/><path fill="#1a1a1a" d="M1428.2,1595.2c-0.3,0-0.7-0.1-1-0.2c-1.7-0.6-2.6-2.4-2-4.1l23.2-68.6l-124.7-50.9c-1.7-0.7-2.5-2.6-1.8-4.2
			c0.7-1.7,2.6-2.5,4.2-1.8l127.5,52.1c1.6,0.6,2.4,2.4,1.8,4l-24.2,71.5C1430.8,1594.3,1429.5,1595.2,1428.2,1595.2z"/><polygon fill="#1a1a1a" points="1029.9 1187.4 1077.4 978.6 1077.4 1202.9"/><path fill="#1a1a1a" d="M1300.3,555.4c0,0-42.8-50.5-123.3,5s-88.5,232-11.9,253.5s160.4,0.5,180.3-44.5
			C1365.5,724.6,1391.8,539.8,1300.3,555.4z"/><path fill="#f8b790" d="M1218.4,692.7c0,0-6.8-70.9,60.2-82.2s81,43.9,81,43.9s-13.4,38.3-13.7,56c-0.4,28.9-15.3,68.3-43.8,74.6
			v33.2c0,0-43.4,46-83.9,0v-68.1c0,0-35.5-6.2-37.1-36.6C1179.6,683.1,1218.4,692.7,1218.4,692.7z"/><path fill="#1a1a1a" d="M1218.4,692.7v31.1c0,0,11-21.7,12.3-53.5c0,0,48.2-3,73.5-38.8c0,0,20.7,44.9,55.5,44.2
			c34.8-0.6,24.1-94.6-53.5-101.4S1201.4,649.2,1218.4,692.7z"/><path fill="#1a1a1a" d="M1167.5,788.6c0,0,3.8,58.2-63.3,64.4c0,0,21.4,34.9-22,40.3c0,0,31.7,60-38.9,68
			c-70.6,8.1,4.7,72.5,4.7,72.5s-105.2,23.8-103.7-66.9c1.5-90.7,99-88,99-88s-17.8-37,26-41.3c0,0-26-91.1,54.6-107.7
			C1204.4,713.5,1167.5,788.6,1167.5,788.6z"/><path fill="#76aca3" d="M1459.8,887.9c0,0,252,140.4,273.3,269.4c21.3,129-90.5,178.6-90.5,178.6l-233-40.8L1459.8,887.9z"/><path fill="#f8b790" d="M1618.4,1312.9c-1.6-3.3-109.6-92.5-109.7-91.3c-0.1,1.3-77.5,55.4-101.1,128.4
			c-23.6,72.9-12.1,120,7.4,121.1c19.4,1.1,27.3-22.8,30-80.5c0,0,2.9,86.7,38.4,84.8c35.5-1.8,16.8-32.5,17.8-29.9
			c1,2.6,13.4,18.9,32.3,5.4c18.9-13.4,8.7-33.9,8.7-33.9s14.8,26.1,29.5,2.1c14.7-24-12.5-64.9-0.7-77.1
			C1582.8,1329.9,1618.4,1312.9,1618.4,1312.9z"/><polygon fill="#1a1a1a" points="1486.6 1214.2 1462.7 978.6 1545.1 1149.7"/><path fill="#48607d" d="M2335.2,1908.4h-431.3c-31.3-31.3-31.3-82,0-113.3h431.3C2366.5,1826.4,2366.5,1877.1,2335.2,1908.4z"/><rect width="66.2" height="113.3" x="2241.7" y="1795.1" fill="#76aca3"/><rect width="33.1" height="113.3" x="1949.1" y="1795.1" fill="#76aca3"/><path fill="#76aca3" d="M2386.6,1795.1h-431.3c-31.3-31.3-31.3-82,0-113.3h431.3C2417.8,1713.1,2417.8,1763.8,2386.6,1795.1z"/><rect width="42.5" height="113.3" x="2012.5" y="1681.8" fill="#d2bc8b"/><rect width="42.5" height="113.3" x="2083.4" y="1681.8" fill="#d2bc8b"/><path fill="#f2e3bd" d="M2320.3,1681.8H1889c-31.3-31.3-31.3-82,0-113.3h431.3C2351.6,1599.7,2351.6,1650.5,2320.3,1681.8z"/><rect width="388.8" height="28.1" x="1913.1" y="1607.2" fill="#1a1a1a"/><path fill="#f2e3bd" d="M463.6,1736.2v-3.5H281.4V1835c0,50.3,40.8,91.1,91.1,91.1h0c30.4,0,57.4-14.9,73.9-37.9
			c5.5,1.2,11.3,1.8,17.1,1.8c44,0,79.8-34.5,79.8-76.9S507.6,1736.2,463.6,1736.2z M463.6,1860.5c-1.2,0-2.4,0-3.6-0.1
			c2.3-8.1,3.6-16.6,3.6-25.4v-69.4c27.8,0,50.3,21.3,50.3,47.4C513.9,1839.3,491.3,1860.5,463.6,1860.5z"/><path fill="#f2e3bd" d="M392.3,1602.3c-2.6,5.1-4.5,9.8-6.1,14.5c-1.5,4.6-2.6,9.1-3.3,13.6c-0.3,1.1-0.3,2.2-0.5,3.4
			c-0.1,0.6-0.1,1.1-0.2,1.7l-0.1,1.7l-0.2,1.7l-0.1,0.8l0,0.9c0,1.1-0.1,2.3-0.2,3.4c0,2,0.1,3.8,0.4,5.5c0.4,1.7,1,3.4,1.8,5.2
			c0.8,1.8,2,3.7,3.3,5.7c1.3,2,2.9,4.2,4.4,6.7c1.5,2.5,3.1,5.2,4.3,8.4c1.2,3.1,1.9,6.5,2,9.9c0.1,3.4-0.4,6.6-1.4,9.5
			c-0.4,1.5-1,2.9-1.6,4.3c-0.3,0.7-0.6,1.3-1,2c-0.3,0.6-0.6,1.3-1,1.9c-2.9,5-6.4,9.3-10.4,13c-0.2,0.1-0.4,0.1-0.5,0
			c-0.1-0.1-0.1-0.2-0.1-0.3l0,0c1.3-5.3,2.7-10.4,3.5-15.4c0.3-2.5,0.6-4.9,0.5-7.1c0-0.6,0-1.1-0.1-1.7c-0.1-0.5-0.1-1.1-0.2-1.6
			l-0.3-1.5c-0.1-0.5-0.3-1-0.4-1.4c-1.1-3.8-3.3-6.7-6.5-10.3c-1.6-1.8-3.3-3.7-5.2-5.9c-1.8-2.2-3.7-4.7-5.3-7.5
			c-1.6-2.9-3-6.1-3.9-9.5c-0.8-3.4-1.1-6.9-1-10.2c0.2-6,1.4-12.1,3.7-17.8c2.3-5.7,5.6-10.9,9.9-15.1c0.5-0.5,1.1-1,1.6-1.5
			c0.6-0.5,1.2-1,1.7-1.4c0.6-0.5,1.2-0.9,1.8-1.3c0.6-0.4,1.2-0.8,1.9-1.2c1.3-0.8,2.6-1.4,4-2c1.4-0.6,2.8-1,4.3-1.3
			c0.2,0,0.4,0.1,0.5,0.3C392.3,1602.1,392.3,1602.2,392.3,1602.3L392.3,1602.3z"/><path fill="#f2e3bd" d="M422,1647.9c2.4,1.8,4.5,3.9,6.3,6.1c1.9,2.2,3.5,4.6,5,7.1c2.9,5,5.1,10.6,6.1,16.7c0.5,3,0.7,6.2,0.4,9.4
			c-0.3,3.2-1.2,6.5-2.7,9.5c-1.5,3-3.7,5.7-6.4,7.6c-2.7,1.9-5.7,3.1-8.8,3.3c-0.2,0-0.4-0.1-0.4-0.4c0-0.1,0-0.2,0.1-0.2l0,0
			c1.5-2.7,2.8-5,3.7-7.3c0.9-2.3,1.4-4.5,1.7-6.6c0.6-4.3,0.5-8.8,0-13.6c-0.5-4.8-1.5-9.8-2.5-15l-1.6-7.9
			c-0.5-2.7-1.1-5.5-1.4-8.4l0,0c0-0.2,0.1-0.4,0.3-0.4C421.9,1647.8,422,1647.8,422,1647.9z"/><path fill="#f2e3bd" d="M331.1,1636.2c-0.2,3.7-0.5,7.2-0.7,10.6c-0.2,3.4-0.3,6.7-0.3,9.8c0,1.6,0.1,3.1,0.2,4.5
			c0.2,1.5,0.3,2.9,0.6,4.2c0.3,1.3,0.6,2.5,1,3.6c0.2,0.6,0.4,1,0.7,1.5c0.3,0.4,0.5,0.9,0.8,1.3c0.3,0.4,0.6,0.8,0.8,1.1
			c0.1,0.2,0.3,0.3,0.5,0.5c0.2,0.2,0.3,0.3,0.5,0.5c0.2,0.1,0.4,0.3,0.5,0.5l1.2,1c0.8,0.7,1.6,1.5,2.3,2.2c3,3.1,5.3,7,6.6,11.1
			c1.3,4.1,1.6,8.5,0.8,12.5c-0.4,2-1,3.9-1.9,5.7c-0.4,0.9-0.9,1.8-1.5,2.6c-0.6,0.8-1.2,1.6-1.9,2.3c-0.2,0.2-0.4,0.1-0.6,0
			c0-0.1-0.1-0.1-0.1-0.2l0,0c-1-3.7-2-6.9-3.3-9.8c-1.2-2.8-2.7-5.3-4.2-7.4c-0.8-1.1-1.6-2-2.4-3c-0.9-0.9-1.8-1.8-2.7-2.7
			c-0.5-0.4-1-0.9-1.5-1.3l-0.8-0.7l-1.4-1.2c-1.8-1.7-3.4-3.7-4.6-5.9c-0.6-1.1-1.1-2.2-1.5-3.3c-0.4-1.1-0.8-2.3-1-3.4
			c-0.5-2.3-0.7-4.5-0.7-6.6c0-4.3,0.8-8.2,2-11.8c1.2-3.6,2.9-7,4.9-10.1c2-3.1,4.2-6,7.1-8.5c0.2-0.1,0.4-0.1,0.5,0
			C331,1636,331.1,1636.1,331.1,1636.2L331.1,1636.2z"/></svg>