<svg xmlns="http://www.w3.org/2000/svg" viewBox="0 0 777.13 497.45"><defs><clipPath id="a"><rect width="685.81" height="443.83" x="72.45" fill="none"/></clipPath><clipPath id="b"><path fill="none" d="M336.6,101.94c8.79,8.85,20,8.84,21.49,1.74-.89-3.82-3-6.35-5.57-7.6a9.61,9.61,0,0,0-4.18-.93c-4,0-8.44,2.28-11.74,6.79Z"/></clipPath><clipPath id="c"><rect width="21.5" height="8.52" x="336.6" y="95.15" fill="none"/></clipPath><clipPath id="d"><rect width="21.5" height="8.52" x="336.6" y="95.15" fill="none"/></clipPath><clipPath id="e"><path fill="none" d="M365.32,103.53c7.5,7.53,17,7.53,18.32,1.47a9.14,9.14,0,0,0-4.75-6.47,8.16,8.16,0,0,0-3.56-.79c-3.42,0-7.19,1.94-10,5.79Z"/></clipPath><clipPath id="f"><rect width="18.31" height="7.26" x="365.33" y="97.74" fill="none"/></clipPath></defs><g style="isolation:isolate"><path fill="#f8f2e7" d="M547.69,190.54a157.19,157.19,0,0,0-20.59,1.36A135.88,135.88,0,1,0,267.51,131a193.79,193.79,0,0,0-40-4.17C121,126.87,34.66,213.21,34.66,319.72A192.06,192.06,0,0,0,79.92,443.83H669.51A155.94,155.94,0,0,0,547.69,190.54Z"/><path fill="#afe0d1" d="M124.44,448.19C26,391.89-8,264.38,37.75,250.09s112.37,74.67,115,195.76Z"/><path fill="#80c2af" d="M87.79,449.67C28.37,442.8-14.57,388,4.64,371.6S77.82,390,104.22,448.19Z"/><path fill="#428582" d="M131,430.46c-.09-.27-7.91-23.8-25.15-58.9l-.12-46.27a1.86,1.86,0,0,0-3.72,0l.1,38.76c-1.81-3.57-3.67-7.21-5.67-11-4.17-7.89-8.51-15.55-12.84-22.83l0-.08A649.82,649.82,0,0,0,43,269.86,1.86,1.86,0,0,0,40,272.15c.22.28,17,21.86,35.41,51.78L49.3,304.42a1.86,1.86,0,1,0-2.22,3l33.47,25c4.24,7.15,8.5,14.68,12.6,22.43,23.7,44.8,34.21,76.48,34.32,76.79a1.86,1.86,0,0,0,1.95,1.28l.4-.09A1.86,1.86,0,0,0,131,430.46Z" opacity=".5"/><path fill="#428582" d="M90,447.3a1.49,1.49,0,0,1-1-.39c-.18-.15-17.58-15.39-31.25-28.43s-44.71-37.66-45-37.9a1.58,1.58,0,0,1,2-2.47c.31.25,31.54,25,45.24,38.1s31,28.19,31.15,28.34a1.58,1.58,0,0,1,.15,2.22A1.6,1.6,0,0,1,90,447.3Z"/><path fill="#428582" d="M57.43,417.61a1.57,1.57,0,0,1-.6-.12L29.54,406.2a1.57,1.57,0,1,1,1.2-2.9L58,414.58a1.58,1.58,0,0,1-.6,3Z"/><path fill="#f8f2e7" d="M344.62,126a87.69,87.69,0,1,1-87.69-87.68A87.69,87.69,0,0,1,344.62,126Z"/><path fill="#f8f2e7" d="M685.88,161.94A110.95,110.95,0,1,1,574.93,51a110.94,110.94,0,0,1,111,110.94Z"/><path fill="#afe0d1" d="M589.55,443.59c122.27-77.68,155.52-246.68,96.35-262.2S539.57,289.67,543.41,444.33Z"/><path fill="#428582" d="M683.82,197a2.24,2.24,0,0,0-3.13.24c-.49.59-49.79,58.64-71.66,120.27S587.1,429.49,587.1,430a2.22,2.22,0,0,0,4.44,0c0-.5.08-50.14,21.67-111a308.7,308.7,0,0,1,19.85-43.68,1.86,1.86,0,0,0,.41-.17l40.58-29.07a2.22,2.22,0,0,0-2.58-3.61L638.1,266.39a496.89,496.89,0,0,1,46-66.24A2.23,2.23,0,0,0,683.82,197Z" opacity=".5"/><path fill="#80c2af" d="M647.49,445.43c90-11.7,151.68-105.37,122.2-129.86s-118.16,39-156.94,127.81Z"/><path fill="#428582" d="M641.85,432a2.08,2.08,0,0,1-1.6-.7,2.12,2.12,0,0,1,.15-3c.26-.23,26.25-23.67,46.63-43.66s67.3-58.36,67.77-58.74a2.12,2.12,0,1,1,2.68,3.28c-.47.38-47.13,38.52-67.48,58.48s-46.5,43.55-46.76,43.79A2.06,2.06,0,0,1,641.85,432Z"/><path fill="#428582" d="M690.62,386.22a2.12,2.12,0,0,1-.86-4.06l41.13-17.71a2.12,2.12,0,1,1,1.67,3.89l-41.13,17.71A2.1,2.1,0,0,1,690.62,386.22Z"/><path fill="#523d3c" d="M719.45,447.21A4.16,4.16,0,0,1,718.4,450a4.28,4.28,0,0,1-3.21,1.42H17.63a4.55,4.55,0,0,1-3.34-1.51,4.44,4.44,0,0,1-1-2.65,4.21,4.21,0,0,1,2.1-3.52,4.25,4.25,0,0,1,2.2-.6H715.19a4.14,4.14,0,0,1,4.26,4.12Z"/><g clip-path="url(#a)"><rect width="9.24" height="88.82" x="400.37" y="127.94" fill="#ffc07c"/><polygon fill="#e03653" points="524.55 198.49 530.52 198.49 530.52 216.81 533.49 216.81 533.49 198.49 539.46 198.49 539.46 195.67 524.55 195.67 524.55 198.49"/><path fill="#e03653" d="M554,207.11a5.3,5.3,0,0,0,2.16-2.14,6.57,6.57,0,0,0,.77-3.21,6.5,6.5,0,0,0-.76-3.2,5.36,5.36,0,0,0-2.15-2.15,6.69,6.69,0,0,0-3.22-.75h-8.39v21.15h3v-8.94h4.42l4.51,8.94h3.52l-4.88-9.26a6.22,6.22,0,0,0,1.06-.44Zm-8.63-8.63h5.54a2.77,2.77,0,0,1,1.51.4,2.71,2.71,0,0,1,1,1.16,4.29,4.29,0,0,1,0,3.44,2.67,2.67,0,0,1-1,1.16,2.79,2.79,0,0,1-1.5.41h-5.54Z"/><path fill="#e03653" d="M572.79,209.26a5.08,5.08,0,0,1-1.17,3.58,4.94,4.94,0,0,1-6.59,0,5.12,5.12,0,0,1-1.16-3.58V195.67h-3v13.49a9.5,9.5,0,0,0,.87,4.25,6.07,6.07,0,0,0,2.54,2.69,9.22,9.22,0,0,0,8,0,6,6,0,0,0,2.55-2.69,9.5,9.5,0,0,0,.87-4.25V195.67h-3Z"/><polygon fill="#e03653" points="577.79 198.49 583.77 198.49 583.77 216.81 586.73 216.81 586.73 198.49 592.71 198.49 592.71 195.67 577.79 195.67 577.79 198.49"/><polygon fill="#e03653" points="607.62 195.67 607.62 204.99 598.58 204.99 598.58 195.67 595.62 195.67 595.62 216.81 598.58 216.81 598.58 207.81 607.62 207.81 607.62 216.81 610.59 216.81 610.59 195.67 607.62 195.67"/><path fill="#ffca90" d="M539.77,307h0a70.75,70.75,0,0,1-70.83-70.82v-14H610.59v14A70.82,70.82,0,0,1,539.77,307Z"/><path fill="#442128" d="M539.77,307.42a.41.41,0,1,1,0-.81,70.43,70.43,0,0,0,70.41-70.42.41.41,0,0,1,.41-.41.41.41,0,0,1,.41.41,71.23,71.23,0,0,1-71.23,71.23Z"/><path fill="#ffc07c" d="M468.53,230.27H611A5.16,5.16,0,0,0,611,220H468.53a5.16,5.16,0,1,0,0,10.31Z"/><path fill="#fff" d="M611,230.68H598.35a.41.41,0,0,1-.41-.41.41.41,0,0,1,.41-.41H611a4.74,4.74,0,0,0,3.66-1.72.41.41,0,1,1,.63.52,5.55,5.55,0,0,1-4.29,2Z"/><path fill="#fff" d="M586.44,230.68H468.53a.41.41,0,0,1-.41-.41.41.41,0,0,1,.41-.41H586.44a.41.41,0,0,1,.41.41.41.41,0,0,1-.41.41Z"/><path fill="#ffca90" d="M184.74,307h0a70.78,70.78,0,0,1-70.82-70.82v-14H255.57v14A70.82,70.82,0,0,1,184.74,307Z"/><path fill="#442128" d="M160.52,303.17a.32.32,0,0,1-.14,0,71.77,71.77,0,0,1-40.25-36.94,70.59,70.59,0,0,1-6.61-30,.41.41,0,1,1,.81,0,69.93,69.93,0,0,0,6.53,29.67,71,71,0,0,0,39.8,36.52.4.4,0,0,1,.24.52.42.42,0,0,1-.38.27Z"/><path fill="#ffc07c" d="M113.51,230.27H256A5.16,5.16,0,0,0,256,220H113.51a5.14,5.14,0,0,0-5.15,5.16,5.14,5.14,0,0,0,5.15,5.15Z"/><path fill="#442128" d="M135.79,346.81c-4.62,8.76,24,9.71,32.81,8.29s4.5-16.82,4.5-16.82l-14.45-2.37-12.55.95s-4.27,1.66-10.31,9.95Z"/><path fill="#f48dab" d="M164.45,347.16c-7.81-1.78-22.14-8.64-28.66-.35,6.28-11.14,32.22-90.25,63.84-118.32s58.86-44.88,93.56-47.49a271.28,271.28,0,0,0,79.35,8.77c52,12.07,64.07,19.89,64.07,19.89l67.86,62.53L480.31,356S431.75,434.92,435.78,452l4,17.06c-12.08,23.45-46.9,40.5-105.17,16.34s-72.48-31.26-116.54-17.05c-29.84-73.19-53.65-121.16-53.65-121.16Z"/><path fill="#fff" d="M372.54,189.76A271.06,271.06,0,0,1,293.19,181c-3.17.24-6.27.6-9.32,1.07l.85,2.2c3.29,8.51,17.2,16.41,23,19.42,7.51,3.87,22.43,10.36,37.9,10.36h0c16.1,0,28.2-7,35-20.14l1-2c-2.88-.7-5.91-1.43-9.09-2.17Z"/><path fill="#442128" d="M386.17,497.45c-14.48,0-31.69-3.41-51.69-11.7l-6.07-2.52c-53.47-22.21-67.84-28.18-110.18-14.52a.41.41,0,0,1-.5-.24c-28.61-70.16-52-117.72-53.56-121-1.5-.35-3.23-.87-5.06-1.43-8-2.44-17.93-5.47-23,1a.39.39,0,0,1-.54.08.39.39,0,0,1-.13-.53c1.42-2.53,3.84-8.52,7.19-16.82,11.28-27.92,32.26-79.89,56.73-101.6,29.95-26.59,57.37-44.86,93.8-47.6a.36.36,0,0,1,.14,0c40.91,11.1,78.83,8.77,79.21,8.75h.12c51.47,12,64.08,19.87,64.2,19.95l67.92,62.57a.41.41,0,0,1,.11.42L480.7,356.16a.42.42,0,0,1,0,.1c-.48.78-48.42,78.92-44.48,95.62l4,17.06a.46.46,0,0,1,0,.28c-7.82,15.17-25.69,28.23-54,28.23Zm-130-36.85c19.9,0,38.18,7.59,72.58,21.88L334.8,485c58.47,24.24,92.85,6.55,104.58-16l-4-16.91c-4-16.95,42.17-92.34,44.55-96.19L504,272.32,436.34,210c-.07,0-12.63-7.88-63.83-19.79-1.76.11-39.12,2.15-79.36-8.76-36.17,2.74-63.44,20.92-93.25,47.39-24.32,21.59-45.26,73.44-56.51,101.29-2.61,6.45-4.65,11.52-6.12,14.67,5.75-4.44,15.08-1.6,22.07.54,1.9.57,3.69,1.12,5.2,1.46a.44.44,0,0,1,.28.22c.24.48,24.07,48.66,53.52,120.83,15.14-4.86,26.73-7.21,37.81-7.21Z"/><path fill="#442128" d="M393.37,94c-9,31.46-42.67,49.41-75.11,40.08s-51.4-42.39-42.35-73.85S318.58,10.78,351,20.11,402.42,62.5,393.37,94Z"/><path fill="#71353e" d="M335.71,136.93a63.78,63.78,0,0,1-17.56-2.49,62.08,62.08,0,0,1-37-28.82A58.44,58.44,0,0,1,304.5,24.49a62.87,62.87,0,0,1,83.6,24,58.37,58.37,0,0,1,5.66,45.54l-.39-.11.39.11a58.42,58.42,0,0,1-29,35.59,61.6,61.6,0,0,1-29.07,7.27ZM333.57,18a60.89,60.89,0,0,0-28.69,7.17,57.63,57.63,0,0,0-23,80,62.07,62.07,0,0,0,82.52,23.72,57.62,57.62,0,0,0,23-80A61.28,61.28,0,0,0,350.91,20.5,62.62,62.62,0,0,0,333.57,18Z"/><path fill="#b54134" d="M312.61,131.5s-9.95,46.66-11.61,48.08-7.81,1.42-7.81,1.42c4,10.42,61.82,42.87,79.35,8.76,0,0-14.45-6.63-16.11-8.29s.24-23,.24-23-37.9-30.08-44.06-27Z"/><path fill="#aa3326" d="M323,142.75c8,30.91,28.36,39.51,30.91,10.51C326.49,135.1,323,142.75,323,142.75Z"/><path fill="#b54134" d="M330.37,153.25C317.28,146,310.62,124,310.52,112.6c0,0,8.44-1.71,8.73-2.79s-.94-7.41,3.22-18.84c5.79,1.81,14.08-5.58,10.52-18.53,0,0,4.05-.75.83-7.5,24.35,6.64,29.31,6.37,26.92,1.7C373,73.6,382.36,72,382.36,72c5.35,19.6,1.52,30.65,3.17,41.22s-2,36.67-5,43-30.54,7.8-50.15-3Z"/><path fill="#442128" d="M363,161.64c-10.24,0-22.77-2.48-32.84-8a29.71,29.71,0,0,1-10-9.69.4.4,0,0,1,.1-.56.41.41,0,0,1,.57.11,29.16,29.16,0,0,0,9.73,9.43c14.72,8.11,34.74,9.59,44.85,6.31,2.53-.82,4.16-1.9,4.73-3.11,2.82-6,6.64-32.19,5-42.8A64.87,64.87,0,0,1,384.8,101c.25-7.68.54-16.38-2.74-28.56-1.81.21-9.94.75-20.51-4.92a2,2,0,0,1-.23,1.94c-1.37,1.68-6.35,1.6-26.78-3.93,1,2.43,1.21,4.34.52,5.69a3,3,0,0,1-1.58,1.46c1.72,6.61.51,12.68-3.25,16.31a8.23,8.23,0,0,1-7.5,2.45,45.14,45.14,0,0,0-3,17,6.9,6.9,0,0,1-.07,1.49.4.4,0,1,1-.78-.21,8.44,8.44,0,0,0,0-1.27c0-2.55-.11-8.52,3.2-17.6a.41.41,0,0,1,.5-.25,7.3,7.3,0,0,0,7.08-2.15c3.61-3.48,4.71-9.42,2.93-15.88a.36.36,0,0,1,0-.32.41.41,0,0,1,.27-.19,2.16,2.16,0,0,0,1.42-1.17c.43-.87.63-2.57-.89-5.76a.4.4,0,0,1,.05-.43.42.42,0,0,1,.43-.14C346.22,67.9,359,71.05,360.68,69c.33-.4.23-1.11-.3-2.15a.41.41,0,0,1,.08-.48.39.39,0,0,1,.48-.06c12,6.79,21.26,5.34,21.35,5.32a.41.41,0,0,1,.46.3c3.41,12.48,3.12,21.33,2.86,29.14a64,64,0,0,0,.33,12.12c1.71,11-2.12,37-5.05,43.28-.67,1.42-2.47,2.64-5.22,3.53A42.15,42.15,0,0,1,363,161.64Z"/><path fill="#aa3326" d="M348.64,116.47c.35,6.26-5.24,11.66-12.49,12.06s-13.41-4.35-13.76-10.61,5.25-11.66,12.5-12.06,13.41,4.35,13.75,10.61Z"/><path fill="#b54134" d="M314.8,115.11c-12.07-13.33-26.37-11.48-26.8-1.26s7.27,25,29.21,17.24c.29-12.65-2.41-16-2.41-16Z"/><path fill="#aa3326" d="M312.51,125.86c-2.62-12.57-13.3-17-18.27-12.12,10,.76,17.09,8.42,18.27,12.12Z"/><path fill="#442128" d="M312.51,126.27a.41.41,0,0,1-.4-.32c-1.68-8-6.46-12.17-10.38-13.36a7.06,7.06,0,0,0-7.21,1.44.4.4,0,0,1-.57,0,.41.41,0,0,1,0-.58,7.86,7.86,0,0,1,8-1.64c4.14,1.25,9.19,5.58,10.94,14a.41.41,0,0,1-.32.48Z"/><path fill="#442128" d="M303.88,126.86a.39.39,0,0,1-.23-.07,5,5,0,0,1-1.44-6.79,5.45,5.45,0,0,1,7.26-2.15.41.41,0,0,1,.2.54.42.42,0,0,1-.54.2,4.61,4.61,0,0,0-6.22,1.82,4.15,4.15,0,0,0,1.21,5.71.41.41,0,0,1,.1.57.42.42,0,0,1-.34.17Z"/><path fill="#fff" d="M336.6,101.94c4.51-6.16,11.13-8.16,15.92-5.86,2.61,1.25,4.68,3.78,5.57,7.6-1.53,7.1-12.7,7.11-21.49-1.74Z"/><g clip-path="url(#b)"><path fill="#442128" d="M353.45,101.61c-.24,3.72-2.75,6.59-5.6,6.41s-5-3.35-4.74-7.08,2.75-6.59,5.6-6.41,5,3.35,4.74,7.08Z"/></g><g clip-path="url(#c)"><g clip-path="url(#d)"><path fill="#b6b8c5" d="M352.52,96.08c-4.79-2.3-11.41-.3-15.92,5.86,16.13-8.27,21.49,1.74,21.49,1.74-.89-3.82-3-6.35-5.57-7.6Z"/></g></g><path fill="#442128" d="M336.6,101.94a19.89,19.89,0,0,1,2.19-2.77,16.64,16.64,0,0,1,2.76-2.25,12.37,12.37,0,0,1,6.79-2.16A9.4,9.4,0,0,1,355,97.35a11.13,11.13,0,0,1,3.09,6.33,12.75,12.75,0,0,0-3.56-5.82,9.19,9.19,0,0,0-2.88-1.72,9.81,9.81,0,0,0-3.31-.58,13,13,0,0,0-6.49,1.85,19.91,19.91,0,0,0-5.25,4.53Z"/><path fill="#fff" d="M365.32,103.52c3.85-5.25,9.49-7,13.57-5a9.14,9.14,0,0,1,4.75,6.47c-1.31,6.06-10.82,6.06-18.32-1.48Z"/><g clip-path="url(#e)"><path fill="#442128" d="M380,103.84c-.2,3.18-2.33,5.62-4.76,5.47s-4.24-2.86-4-6,2.34-5.62,4.77-5.47,4.24,2.86,4,6Z"/></g><g clip-path="url(#f)"><path fill="#b6b8c5" d="M378.89,98.53c-4.08-2-9.72-.26-13.57,5,13.75-7,18.32,1.48,18.32,1.48a9.14,9.14,0,0,0-4.75-6.47Z"/></g><path fill="#442128" d="M365.32,103.52a17.56,17.56,0,0,1,1.85-2.37,13.7,13.7,0,0,1,2.35-1.94,10.5,10.5,0,0,1,5.81-1.86,8,8,0,0,1,5.7,2.22,9.35,9.35,0,0,1,2.61,5.43,11.1,11.1,0,0,0-3.08-4.92,8,8,0,0,0-5.23-1.94,11.06,11.06,0,0,0-5.51,1.56,17.45,17.45,0,0,0-4.5,3.82Z"/><path fill="#b54134" d="M369.05,96.39c-1.13,3.82.55,11.39,4.07,15.4s6,4.95,3.37,8.46c-7.52,4.65-14.19,2.93-15.24-.33-.69-2.12-.6-19.46,1.87-26,1.34-3.57,4.93-2.76,5.93,2.52Z"/><path fill="#aa3326" d="M372.73,111.25a11.14,11.14,0,0,0-4.09,5.86c-.26,1.25-6.43.09-7.19,3.25,1.23,2.92,7.89,4.31,15-.11,2.66-3.51.15-4.46-3.37-8.46-.14-.16-.26-.37-.39-.54Z"/><path fill="#442128" d="M373.24,122.61a.41.41,0,0,1-.38-.27.4.4,0,0,1,.24-.52,8.89,8.89,0,0,0,3.08-1.82c2-2.44,1-3.41-1.31-5.77-.62-.62-1.32-1.33-2.05-2.17-3.72-4.24-5.29-12-4.16-15.79a.4.4,0,0,1,.5-.27.4.4,0,0,1,.28.5c-1.05,3.55.5,11,4,15,.72.82,1.41,1.52,2,2.14,2.36,2.4,3.78,3.85,1.36,6.85a9.32,9.32,0,0,1-3.43,2.07.35.35,0,0,1-.14,0Z"/><path fill="#442128" d="M364,121.89a.41.41,0,0,1-.38-.27c-.26-.72,1.14-1.32,1.3-1.39,1.31-.55,2.41-.29,2.87.68a.41.41,0,0,1-.2.54.4.4,0,0,1-.54-.19.82.82,0,0,0-.81-.49,2.77,2.77,0,0,0-1.83.73.4.4,0,0,1-.27.36.32.32,0,0,1-.14,0Z"/><path fill="#71353e" d="M323.47,92.05a11.35,11.35,0,0,1-5.5-1.47.4.4,0,0,1-.16-.55.4.4,0,0,1,.55-.16A9.73,9.73,0,0,0,330,88.65c3.48-3.21,6-10.31,1.8-19.75a.4.4,0,0,1,.2-.54.41.41,0,0,1,.54.2c4.42,9.84,1.69,17.3-2,20.69a10.34,10.34,0,0,1-7,2.8Z"/><path fill="#aa3326" d="M359.91,150.55a47,47,0,0,0,14-.29c-1.29,3.73-8.74,4.16-14,.29Z"/><path fill="#442128" d="M360.5,89.76c0,2-2.75-1.37-10-1.37s-16.22,3.37-16.22,1.37,9-8.62,16.22-8.62a10.06,10.06,0,0,1,10,8.62Z"/><path fill="#442128" d="M384.24,96c-.65,1.15-2.61-1.81-5.74-3.59s-6.27-1.71-5.62-2.86,4.84-3.08,8-1.3,4,6.61,3.38,7.75Z"/><path fill="#aa3326" d="M346.3,130.36c17.73-4.62,35.36-6.34,31.06,1.72-9.89,3.44-31.06-1.72-31.06-1.72Z"/><path fill="#fff" d="M345.65,130.14c15.81,3.21,31.44,1.7,31.9,1.45-.9,14.84-11.56,13.8-31.9-1.45Z"/><path fill="#4e1721" d="M369.55,142.57c-5.37,0-13.33-4-24.14-12.1a.42.42,0,0,1-.13-.49.4.4,0,0,1,.46-.23,110.07,110.07,0,0,0,31.65,1.46.39.39,0,0,1,.4,0,.41.41,0,0,1,.16.37c-.33,5.44-2,8.9-5,10.27a8.08,8.08,0,0,1-3.43.69Zm-22.22-11.69c12.36,9.06,20.65,12.42,25.31,10.26,2.59-1.2,4.09-4.24,4.46-9.06a109.85,109.85,0,0,1-29.77-1.2Z"/><path fill="#4e1721" d="M373.71,141a6.89,6.89,0,0,1-.88.5,9.19,9.19,0,0,0-1.86-5.07,21.45,21.45,0,0,0,6.57-4.83c-.35,2.29-1.08,7.16-3.83,9.4Z"/><path fill="#442128" d="M334.11,108.75a.4.4,0,0,1-.33-.17.41.41,0,0,1,.09-.57l2.43-1.72a.41.41,0,0,1,.57.1.41.41,0,0,1-.1.57l-2.43,1.71a.34.34,0,0,1-.23.08Z"/><path fill="#442128" d="M338.07,109.34a.4.4,0,0,1-.15,0,.4.4,0,0,1-.22-.53l.41-1a.41.41,0,0,1,.53-.22.42.42,0,0,1,.23.53l-.42,1a.4.4,0,0,1-.38.25Z"/><path fill="#442128" d="M384.09,111.06a.43.43,0,0,1-.3-.13l-1.31-1.42a.41.41,0,0,1,.6-.56l1.31,1.43a.4.4,0,0,1,0,.57.4.4,0,0,1-.27.11Z"/><path fill="#442128" d="M380.59,111.53a.39.39,0,0,1-.37-.25l-.3-.71a.41.41,0,0,1,.75-.31l.3.71a.4.4,0,0,1-.22.53.41.41,0,0,1-.16,0Z"/><path fill="#b54134" d="M347.67,347.75c17.9-13.94,25.93-32.06,49.53-45a4.37,4.37,0,0,0,2.28-2.94,4,4,0,0,0,.06-1.3,4.19,4.19,0,0,0-4.93-3.66,72.5,72.5,0,0,0-20.88,7.27s18.29-12.23,29.9-17a3.7,3.7,0,0,0,2.21-2.6,3.62,3.62,0,0,0,.08-1.19,3.68,3.68,0,0,0-4.41-3.23c-4.77,1-13.19,2.85-21.86,5.1,0,0,10.25-7,22.42-9.35a4.47,4.47,0,0,0,3.34-2.88,4.54,4.54,0,0,0,.14-2.46,4.66,4.66,0,0,0-.6-1.43,4.45,4.45,0,0,0-3.64-2c-5.78-.12-18.37.48-35.33,6.26,0,0,7.26-8.44,27.6-13.53a3.24,3.24,0,0,0,2.22-4.36,3.22,3.22,0,0,0-1.28-1.53,3.25,3.25,0,0,0-1.94-.48c-7.18.5-29.85,3.25-55.26,18.14,0,0-5.85-11.88-12.5-18.81a4.43,4.43,0,0,0-6.91.66l-.05.07a4.38,4.38,0,0,0-.68,2,4.13,4.13,0,0,0,0,.93c1.89,13.46,1.54,25.27-4.22,33.7-12.79,23.13-64,66.47-65,67.54s1.77-14.57,1.77-14.57c-33.75,11-85.27,6-85.27,6-5,21.32-34.46,142.48,38.73,137.15S318.07,371.8,347.67,347.75Z"/><path fill="#4e1721" d="M368.31,290.2A.42.42,0,0,1,368,290a.41.41,0,0,1,.1-.57s3.4-2.37,8.81-5.41a.4.4,0,0,1,.55.16.4.4,0,0,1-.15.55c-5.37,3-8.71,5.34-8.74,5.37a.39.39,0,0,1-.23.07Z"/><path fill="#aa3326" d="M215.26,479a29.84,29.84,0,0,0-53.67-18c6.9,15.08,19.61,24.9,41.59,23.3a78.84,78.84,0,0,0,11.87-1.81,31.53,31.53,0,0,0,.21-3.52Z"/><path fill="#4e1721" d="M198.65,484.88c-13,0-23.37-4.35-30.73-13-11.85-13.88-22.18-46.61-4.11-123.78l.25-1.05a.4.4,0,0,1,.43-.31c.52.05,51.82,4.84,85.11-6a.41.41,0,0,1,.53.46,135.79,135.79,0,0,0-2,13.81l1.2-1.05c33.39-29.12,55.87-52.56,63.3-66,5-7.36,6.35-18,4.18-33.44a4.31,4.31,0,0,1,0-1,4.86,4.86,0,0,1,.75-2.19l.05-.08a4.84,4.84,0,0,1,4.11-2.2,4.77,4.77,0,0,1,3.43,1.49c5.94,6.18,11.3,16.4,12.38,18.52,25.57-14.88,48.59-17.52,55.06-18a3.67,3.67,0,0,1,3.63,2.27,3.64,3.64,0,0,1-2.5,4.9c-15.37,3.85-23.27,9.67-26.12,12.18,16-5.23,28-5.83,33.76-5.71a4.87,4.87,0,0,1,4.63,3.78,4.79,4.79,0,0,1-.16,2.68,4.88,4.88,0,0,1-3.64,3.15,67.35,67.35,0,0,0-20,7.9c7.91-2,15.35-3.62,19.29-4.45a4.09,4.09,0,0,1,4.9,3.59,3.91,3.91,0,0,1-.08,1.32,4.12,4.12,0,0,1-2.46,2.88c-7.54,3.09-18,9.43-24.35,13.41a77.23,77.23,0,0,1,15.1-4.47,4.6,4.6,0,0,1,4.14,1.32,4.47,4.47,0,0,1,1.27,2.69,4.29,4.29,0,0,1-.06,1.43,4.82,4.82,0,0,1-2.48,3.22c-14.06,7.69-22.66,17.33-31,26.66-5.54,6.22-11.27,12.65-18.49,18.27-9,7.3-19.15,22.39-30.93,39.86C290.53,427.2,254.28,481,203.21,484.71c-1.56.12-3.08.17-4.56.17ZM164.77,347.6l-.17.7c-18,76.84-7.79,109.34,3.94,123.07,8,9.4,19.67,13.62,34.61,12.53,50.67-3.69,86.8-57.29,113.18-96.43,11.81-17.52,22-32.66,31.09-40h0c7.16-5.58,12.62-11.7,18.4-18.17,8.36-9.38,17-19.08,31.19-26.84a4,4,0,0,0,2.08-2.66,4.24,4.24,0,0,0,.05-1.18,3.79,3.79,0,0,0-4.46-3.3,71.33,71.33,0,0,0-20.75,7.23.42.42,0,0,1-.55-.15.41.41,0,0,1,.12-.55c.19-.12,18.46-12.31,30-17a3.31,3.31,0,0,0,2-2.31,3.14,3.14,0,0,0,.06-1.06,3.27,3.27,0,0,0-3.92-2.87c-4.37.92-13,2.8-21.83,5.1a.42.42,0,0,1-.48-.23.41.41,0,0,1,.15-.51c.1-.07,10.45-7,22.56-9.41a4.06,4.06,0,0,0,3-2.62,4,4,0,0,0-.42-3.53,4,4,0,0,0-3.3-1.84c-5.94-.13-18.4.51-35.19,6.23a.39.39,0,0,1-.46-.16.41.41,0,0,1,0-.49c.3-.35,7.58-8.59,27.81-13.66a2.83,2.83,0,0,0,2-1.93,2.84,2.84,0,0,0-1.21-3.21,2.8,2.8,0,0,0-1.69-.43c-6.46.46-29.51,3.11-55.08,18.09a.41.41,0,0,1-.57-.17c-.06-.12-5.9-11.91-12.43-18.71a4.06,4.06,0,0,0-2.86-1.24,4,4,0,0,0-3.42,1.84l-.39-.15.34.22a4,4,0,0,0-.62,1.82,3.76,3.76,0,0,0,0,.83c2.19,15.69.83,26.49-4.29,34-7.46,13.48-30,37-63.47,66.18-.88.77-1.51,1.32-1.6,1.42a.5.5,0,0,1-.6.11c-.31-.16-.94-.49,1.56-14.37-32,10.17-79.82,6.29-84.43,5.88Z"/><path fill="#4e1721" d="M206.73,418.27l-.14,0a.4.4,0,0,1-.24-.52c.14-.38,14.09-38,41.33-62.34a.39.39,0,0,1,.57,0,.4.4,0,0,1,0,.57c-27.08,24.16-41,61.64-41.1,62a.42.42,0,0,1-.39.27Z"/><path fill="#b54134" d="M517,257.53c3.17-22.47-3.65-41.07,4.34-66.77a4.43,4.43,0,0,0-.41-3.7,4.2,4.2,0,0,0-6.95-.17,72.24,72.24,0,0,0-10,19.74s4.64-21.51,9.68-33a3.68,3.68,0,0,0-1-4.32,3.68,3.68,0,0,0-5.41.75c-2.73,4-7.5,11.21-12.16,18.86,0,0,2.51-12.13,9.6-22.31a4.43,4.43,0,0,0-1.2-6.25,4.26,4.26,0,0,0-1.43-.61,4.43,4.43,0,0,0-4,1.07c-4.24,3.93-12.87,13.11-21,29,0,0-.65-11.11,10.43-28.9a3.26,3.26,0,0,0,.13-3.21A3.15,3.15,0,0,0,486,156.3a3.19,3.19,0,0,0-2-.21,3.25,3.25,0,0,0-1.73,1c-4.81,5.35-19.19,23.09-27.1,51.45,0,0-12.47-4.47-22.07-4.82a4.43,4.43,0,0,0-4.51,5.27s0,.06,0,.09a4.42,4.42,0,0,0,.9,1.92,3.69,3.69,0,0,0,.66.65c10.71,8.37,18.66,17.1,20.39,27.16,12.2,36.94,6.51,91.42,6.51,91.42l-23.69-1.43c-9.47,52.11.48,119.38,2.37,123.17,21.79,21.32,77.22,24.17,89.54-37.42s-11-125.5-8.35-157Z"/><path fill="#4e1721" d="M491.51,201.93h-.08a.41.41,0,0,1-.32-.48s.79-4.07,2.57-10a.41.41,0,0,1,.51-.27.42.42,0,0,1,.27.51c-1.77,5.89-2.54,9.89-2.55,9.93a.42.42,0,0,1-.4.33Z"/><path fill="#aa3326" d="M517.2,437.9a29.37,29.37,0,0,0-50,27.65c18.16,1.58,38.15-5.66,50-27.65Z"/><path fill="#4e1721" d="M471.88,466.16c-13.62,0-27.26-5-36.38-13.89a.76.76,0,0,1-.08-.11c-1.08-2.17-4-20.37-5.49-43.62-1.37-21.15-1.94-52.16,3.08-79.81a.42.42,0,0,1,.43-.33l23.29,1.4c.48-5,5-56.06-6.53-90.86-1.51-8.8-7.94-17.35-20.25-27a4.13,4.13,0,0,1-.73-.72,4.8,4.8,0,0,1-1-2.09l0-.09a4.83,4.83,0,0,1,4.93-5.76c8.57.32,19.52,3.94,21.77,4.71,8-28.48,22.75-46.38,27.08-51.21a3.64,3.64,0,0,1,1.95-1.12,3.66,3.66,0,0,1,4,1.9,3.62,3.62,0,0,1-.15,3.6c-8.37,13.45-10,23.12-10.3,26.91,7.89-14.91,16.05-23.64,20.29-27.57a4.85,4.85,0,0,1,7.28,6.32,67.27,67.27,0,0,0-8.9,19.6c4.3-6.94,8.52-13.27,10.78-16.61a4.07,4.07,0,0,1,6-.83,4,4,0,0,1,.87,1,4.14,4.14,0,0,1,.23,3.78c-3.28,7.47-6.41,19.31-8.18,26.57a76.33,76.33,0,0,1,7.75-13.71,4.6,4.6,0,0,1,7.62.18,4.83,4.83,0,0,1,.46,4c-4.76,15.3-4.24,28.22-3.73,40.7.33,8.33.68,16.93-.59,26-1,11.64,1.61,27.82,4.61,46.56,5.12,31.94,11.49,71.68,3.73,110.5-5.15,25.71-18.77,43.2-38.36,49.25a52.51,52.51,0,0,1-15.48,2.28Zm-35.76-14.43c12.44,12.13,33.4,16.81,51,11.37,19.29-6,32.72-23.22,37.8-48.63,7.73-38.67,1.38-78.34-3.73-110.21-3-18.8-5.61-35-4.62-46.77v0c1.27-9,.93-17.18.58-25.85-.51-12.56-1-25.54,3.77-41a4,4,0,0,0-.36-3.36,4.36,4.36,0,0,0-.78-.88,3.8,3.8,0,0,0-5.5.73,71.27,71.27,0,0,0-9.89,19.62.41.41,0,0,1-.5.27.4.4,0,0,1-.29-.48c0-.21,4.7-21.67,9.71-33.07a3.31,3.31,0,0,0-.19-3,3.57,3.57,0,0,0-.69-.81,3.31,3.31,0,0,0-2.92-.67,3.22,3.22,0,0,0-1.89,1.34c-2.51,3.69-7.41,11.06-12.16,18.84a.4.4,0,0,1-.49.17.41.41,0,0,1-.25-.47c0-.12,2.61-12.33,9.67-22.45a4.07,4.07,0,0,0,.36-4,4,4,0,0,0-1.46-1.69,4.07,4.07,0,0,0-1.3-.56,4,4,0,0,0-3.65,1c-4.36,4-12.87,13.16-21,28.94a.41.41,0,0,1-.45.21.4.4,0,0,1-.32-.37c0-.46-.53-11.45,10.49-29.15a2.83,2.83,0,0,0-3-4.27,2.8,2.8,0,0,0-1.51.87c-4.32,4.81-19.05,22.75-27,51.29a.45.45,0,0,1-.21.26.4.4,0,0,1-.32,0c-.12-.05-12.52-4.46-21.94-4.8a4,4,0,0,0-4.1,4.79l0,.09a3.94,3.94,0,0,0,.81,1.73,3.69,3.69,0,0,0,.6.59c12.48,9.75,19,18.46,20.54,27.41,12.07,36.54,6.57,91,6.52,91.53a.41.41,0,0,1-.43.36l-23.33-1.4c-9.55,53.09.7,118.68,2.37,122.5Z"/><path fill="#4e1721" d="M487.18,235.41h-.09a.38.38,0,0,1-.31-.34c-1.81-14.7-12.67-20.61-21.42-21.2a.42.42,0,0,1-.38-.44.41.41,0,0,1,.44-.37c11.58.79,20.12,8.92,22,20.83,7.8-11.42,17.72-9.95,17.82-9.94a.41.41,0,1,1-.13.81c-.1,0-10-1.45-17.59,10.48a.44.44,0,0,1-.35.18Z"/><path fill="#4e1721" d="M496,206a.41.41,0,0,1-.19,0s-4.42-2.16-18.39-5.66a.39.39,0,0,1-.29-.49.4.4,0,0,1,.49-.3c14.09,3.53,18.38,5.63,18.56,5.72a.41.41,0,0,1-.18.77Z"/><path fill="#aa3326" d="M457.57,220.08c-11.41,2.86,5.45,26.3,17.53,23.45s4.27-28.89-17.53-23.45Z"/><path fill="#aa3326" d="M506.37,228.61c-12.27-.31-19.19,10.66-9.71,14.92s28.18-14.44,9.71-14.92Z"/><path fill="#4e1721" d="M461.84,412.23a.41.41,0,0,1-.38-.25c-6.84-16.3-8.44-43.82-4.77-81.79a.41.41,0,1,1,.82.08c-3.67,37.83-2.08,65.22,4.7,81.4a.4.4,0,0,1-.22.53.4.4,0,0,1-.15,0Z"/><path fill="#442128" d="M245.34,240.86a.42.42,0,0,1-.38-.26c-1.55-4-15.83-17.89-36.09-19.58a.41.41,0,0,1-.38-.44.41.41,0,0,1,.44-.37c20.94,1.74,35.14,15.85,36.79,20.1a.4.4,0,0,1-.23.52l-.15,0Z"/><path fill="#442128" d="M249.72,341.53a.41.41,0,0,1-.1-.8,21.41,21.41,0,0,0,8.81-4.76c0-2.21-.21-21.63.25-26.39a.41.41,0,1,1,.81.08c-.47,4.89-.24,26.27-.24,26.48a.42.42,0,0,1-.12.3,22,22,0,0,1-9.3,5.08Z"/><path fill="#442128" d="M433.41,329.21h-.05a.41.41,0,0,1-.35-.46c4.44-36.46.52-57.45.48-57.66a.4.4,0,0,1,.32-.48.42.42,0,0,1,.48.32c0,.21,4,21.33-.47,57.92a.41.41,0,0,1-.41.36Z"/><path fill="#fff" d="M137.2,22.56a64.42,64.42,0,1,1,44.67,119.9c2.95,6,3.4,15.91-1.68,18.64-3.17-7.58-9.58-13.38-14.23-16.82A64.42,64.42,0,0,1,137.2,22.56Z"/><path fill="#4e1721" d="M180.19,161.5a.3.3,0,0,1-.13,0,.39.39,0,0,1-.24-.23c-3.09-7.38-9.29-13.07-14-16.56a65.2,65.2,0,1,1,16.62-2c2.69,5.94,3.23,15.88-2.06,18.73a.45.45,0,0,1-.2,0ZM166.54,15.85a64,64,0,0,0-.57,128,.37.37,0,0,1,.24.08c4.7,3.48,10.93,9.15,14.17,16.55,4.59-3,3.79-12.44,1.13-17.87a.39.39,0,0,1,0-.35.43.43,0,0,1,.28-.23A64,64,0,0,0,166.54,15.85Z"/><path fill="#afe0d1" d="M198.39,82.49a32.11,32.11,0,1,1-32.11-32.1,32.11,32.11,0,0,1,32.11,32.1Z"/><path fill="#4e1721" d="M166.28,115a32.51,32.51,0,1,1,18.78-59,.41.41,0,0,1-.47.67A31.7,31.7,0,1,0,198,82.49a.41.41,0,0,1,.81,0A32.54,32.54,0,0,1,166.28,115Z"/><path fill="#fff" d="M168.24,94.74a3.34,3.34,0,0,1-2.37-1L150.78,78.67a3.36,3.36,0,0,1,4.76-4.75l12.7,12.71,35.87-35.87a3.36,3.36,0,0,1,4.75,4.76L170.62,93.76a3.35,3.35,0,0,1-2.38,1Z"/><path fill="#4e1721" d="M168.24,87a.41.41,0,0,1-.28-.69l35.86-35.87a.43.43,0,0,1,.58,0,.41.41,0,0,1,0,.58L168.53,86.91a.4.4,0,0,1-.29.12Z"/><path fill="#ffca90" d="M419.68,120.84A14.69,14.69,0,1,1,405,106.15a14.69,14.69,0,0,1,14.69,14.69Z"/><path fill="#ffca90" d="M545.65,120.84a7.58,7.58,0,1,1-7.58-7.58,7.59,7.59,0,0,1,7.58,7.58Z"/><path fill="#ffca90" d="M399.19,100.35a5.8,5.8,0,1,1,5.8,5.8,5.79,5.79,0,0,1-5.8-5.8Z"/><path fill="#442128" d="M539.53,181.88a.41.41,0,0,1-.41-.41V131.26a.41.41,0,0,1,.41-.41.41.41,0,0,1,.41.41v50.21a.41.41,0,0,1-.41.41Z"/><path fill="#442128" d="M527.21,120.3H423.46a.41.41,0,0,1-.4-.41.4.4,0,0,1,.4-.41H527.21a.41.41,0,0,1,.41.41.41.41,0,0,1-.41.41Z"/><path fill="#442128" d="M281.82,120.77h-46.9a.41.41,0,1,1,0-.81h46.9a.41.41,0,1,1,0,.81Z"/><path fill="#442128" d="M184.71,211.73a.41.41,0,0,1-.41-.41V167.26a.41.41,0,1,1,.81,0v44.06a.41.41,0,0,1-.4.41Z"/><path fill="#fff" d="M165.55,230.68H121.88a.41.41,0,1,1,0-.81h43.67a.41.41,0,0,1,0,.81Z"/><path fill="#442128" d="M207,220.16H148.65a.41.41,0,0,1,0-.81H207a.41.41,0,1,1,0,.81Z"/><path fill="#442128" d="M603,220.06H521.63a.41.41,0,0,1-.41-.41.41.41,0,0,1,.41-.41H603a.41.41,0,0,1,.41.41.41.41,0,0,1-.41.41Z"/></g></g></svg>