<svg xmlns="http://www.w3.org/2000/svg" enable-background="new 0 0 1364 960" viewBox="0 0 1364 960"><path fill="#FF8CDD" d="M1168.335,702.234l-4.494,16.349c0,0-2.368-3.365-5.117-7.531c-9.941,9.771-18.438,20.202-25.713,30.564
	c-0.272,0.397-0.544,0.796-0.815,1.194c-5.464,7.807-10.165,15.544-14.202,22.869c-0.13,0.253-0.245,0.439-0.376,0.693
	c-12.764,23.244-18.783,42.146-19.852,45.622c-0.12,0.364-0.168,0.564-0.168,0.564s0.202,0.048,0.58,0.102
	c6.49,1.104,67.614,10.506,125.802-12.543c0.234-0.089,0.468-0.174,0.742-0.288c8.351-3.324,16.617-7.343,24.637-12.131l0.873-0.54
	c0.442-0.216,0.899-0.499,1.315-0.756c15.18-9.388,28.168-20.925,39.234-33.06c-5.119,0.463-8.791-2.036-11.847-5.955
	c4.951,2.056,13.132,2.919,20.401-4.106c6.392-7.978,12.003-16.105,16.912-23.971c0.156-0.211,0.287-0.465,0.444-0.678
	c17.598-28.532,25.638-53.743,26.859-57.718c0.121-0.362,0.168-0.564,0.168-0.564s-0.202-0.047-0.58-0.102
	c-2.807-0.448-15.683-2.489-34.046-2.804c-0.285,0.003-0.57,0.007-0.881-0.031c-10.594-0.117-22.917,0.317-36.188,1.913
	c-0.435,0.039-0.903,0.214-1.277,0.445c-8.865,5.654-12.711,13.38-11.084,23.354c-4.802-5.998-7.024-12.845-4.896-21.118
	c-5.204,0.975-10.496,2.179-15.81,3.626c-0.301,0.07-0.535,0.158-0.836,0.229c-16.219,4.453-32.754,10.999-48.35,20.644
	C1182.076,691.265,1174.919,696.612,1168.335,702.234z M1326.388,683.086c-1.154-0.378-1.791-1.595-1.413-2.749
	c0.379-1.154,1.595-1.791,2.749-1.412c1.128,0.337,1.792,1.594,1.413,2.75C1328.759,682.827,1327.516,683.422,1326.388,683.086z
	 M1323.587,692.408c-1.622,1.003-3.776,0.495-4.779-1.127c-1.004-1.623-0.47-3.735,1.152-4.738c1.622-1.003,3.708-0.511,4.712,1.112
	C1325.674,689.276,1325.209,691.405,1323.587,692.408z M1269.278,748.877c-1.081,0.669-2.536,0.361-3.231-0.761
	c-0.694-1.123-0.319-2.562,0.762-3.231c1.123-0.694,2.578-0.387,3.272,0.736C1270.776,746.743,1270.401,748.183,1269.278,748.877z
	 M1265.751,762.326c-1.955,1.209-4.512,0.606-5.696-1.308c-1.208-1.954-0.605-4.512,1.35-5.72c1.913-1.183,4.47-0.58,5.679,1.374
	C1268.267,758.586,1267.664,761.143,1265.751,762.326z M1249.909,668.749c-0.541,0.335-1.256,0.201-1.59-0.339
	c-0.335-0.541-0.134-1.239,0.407-1.574c0.54-0.334,1.213-0.176,1.547,0.365C1250.607,667.741,1250.449,668.415,1249.909,668.749z
	 M1274.944,671.952c-1.247,0.771-2.863,0.391-3.635-0.857c-0.772-1.247-0.39-2.863,0.857-3.635c1.248-0.772,2.863-0.391,3.635,0.857
	C1276.573,669.565,1276.192,671.18,1274.944,671.952z M1269.059,677.775c-0.541,0.334-1.28,0.161-1.615-0.381
	c-0.308-0.499-0.135-1.239,0.406-1.574c0.541-0.334,1.24-0.134,1.548,0.365C1269.734,676.727,1269.6,677.441,1269.059,677.775z"/><path fill="#FFF" d="M1232.56,697.128l-12.792-13.247l-0.521,0.553l13.158,13.653l-6.13,34.434l-34.768,21.502l6.504-39.035
	l-0.715-0.133l-6.662,39.708l-60.262,37.268l2.639-50.213c-0.272,0.397-0.544,0.796-0.815,1.194l-1.685,31.86l-12.517-8.991
	c-0.13,0.253-0.245,0.439-0.376,0.693l12.847,9.246l-0.883,16.701l-32.189,19.907l0.412,0.666l46.787-28.935l22.998,6.417
	l0.217-0.766l-22.341-6.191l32.355-20.01l29.539,10.019c3.874,6.171,11.915,19.08,16.621,26.691
	c0.234-0.089,0.468-0.174,0.742-0.288c-4.99-8.068-13.57-21.849-16.183-25.983l40.82,13.851l0.873-0.54l-71.539-24.291
	l64.545-39.917l20.697,11.06l0.335-0.666l-20.283-10.857l27.366-16.924l44.895,13.746c0.156-0.211,0.287-0.465,0.444-0.678
	l-22.333-6.827c7.778-4.064,18.872-9.833,19.599-10.052l-0.097-0.342l0.042-0.026l0.342-0.096l-0.222-0.266
	c-0.228-0.09-0.455-0.179-20.725,10.46l-21.071-6.46l71.324-44.109c0.121-0.362,0.168-0.564,0.168-0.564s-0.202-0.047-0.58-0.102
	l-55.978,34.619l21.932-37.422c-0.285,0.003-0.57,0.007-0.881-0.031l-22.465,38.328l-58.598,36.239l11.807-66.346
	c-0.301,0.07-0.535,0.158-0.836,0.229L1232.56,697.128z"/><path fill="#8667EB" d="M1110.926,631.732l5.128,16.161c0,0-3.818-1.535-8.391-3.533c-3.022,13.607-4.475,26.983-4.938,39.635
	c-0.012,0.482-0.023,0.964-0.034,1.445c-0.335,9.523-0.069,18.572,0.531,26.915c0.029,0.283,0.033,0.502,0.062,0.786
	c1.942,26.447,7.179,45.58,8.173,49.079c0.097,0.37,0.167,0.565,0.167,0.565s0.195-0.07,0.542-0.23
	c6.045-2.606,62.442-27.982,98.716-78.986c0.148-0.201,0.297-0.401,0.466-0.646c5.197-7.334,9.945-15.204,14.067-23.585l0.439-0.928
	c0.253-0.421,0.483-0.908,0.692-1.35c7.626-16.137,12.243-32.885,14.923-49.087c-4.042,3.174-8.483,3.076-13.18,1.452
	c5.272-0.97,12.605-4.697,14.881-14.548c1.021-10.171,1.305-20.043,1.143-29.314c0.016-0.262-0.012-0.547,0.004-0.81
	c-0.764-33.514-7.739-59.04-8.878-63.04c-0.096-0.37-0.166-0.565-0.166-0.565s-0.194,0.071-0.542,0.23
	c-2.599,1.152-14.512,6.447-30.089,16.176c-0.237,0.158-0.474,0.316-0.756,0.454c-8.952,5.667-19.054,12.737-29.319,21.299
	c-0.344,0.27-0.641,0.67-0.829,1.068c-4.36,9.568-3.383,18.142,3.411,25.625c-7.293-2.419-12.883-6.954-15.6-15.052
	c-3.835,3.65-7.62,7.54-11.291,11.646c-0.214,0.223-0.363,0.424-0.577,0.647c-11.183,12.562-21.493,27.053-29.328,43.632
	C1116.484,615.051,1113.39,623.432,1110.926,631.732z M1233.103,529.652c-1.174,0.311-2.37-0.364-2.681-1.538
	c-0.31-1.174,0.364-2.37,1.537-2.681c1.13-0.331,2.371,0.362,2.682,1.538C1234.951,528.146,1234.232,529.321,1233.103,529.652z
	 M1235.826,538.998c-0.815,1.724-2.899,2.47-4.622,1.656c-1.725-0.815-2.427-2.878-1.612-4.602c0.815-1.724,2.833-2.447,4.558-1.632
	C1235.873,535.235,1236.641,537.274,1235.826,538.998z M1220.995,615.928c-0.543,1.149-1.931,1.684-3.125,1.12
	c-1.194-0.564-1.662-1.976-1.119-3.125c0.564-1.193,1.952-1.728,3.146-1.163C1221.09,613.323,1221.559,614.734,1220.995,615.928z
	 M1225.356,629.131c-0.982,2.078-3.456,2.964-5.49,2.003c-2.077-0.982-2.963-3.455-1.981-5.533c0.961-2.033,3.435-2.92,5.512-1.938
	C1225.431,624.623,1226.317,627.097,1225.356,629.131z M1161.139,559.246c-0.272,0.575-0.944,0.852-1.518,0.581
	c-0.576-0.272-0.787-0.967-0.515-1.542c0.271-0.574,0.922-0.808,1.497-0.536C1161.176,558.02,1161.41,558.672,1161.139,559.246z
	 M1183.885,548.308c-0.627,1.326-2.189,1.886-3.516,1.259c-1.326-0.627-1.886-2.19-1.259-3.516c0.627-1.327,2.189-1.886,3.516-1.259
	C1183.952,545.42,1184.512,546.982,1183.885,548.308z M1182.117,556.396c-0.272,0.575-0.986,0.831-1.562,0.559
	c-0.53-0.251-0.787-0.966-0.516-1.541c0.272-0.575,0.967-0.787,1.497-0.536C1182.112,555.15,1182.389,555.821,1182.117,556.396z"/><path fill="#FFF" d="M1162.028,592.496l-17.941-4.152l-0.136,0.747l18.469,4.293l13.596,32.225l-17.467,36.96l-15.787-36.288
	l-0.673,0.277l16.021,36.939l-30.275,64.062l-25.113-43.562c-0.012,0.482-0.023,0.964-0.034,1.445l15.925,27.646l-15.394-0.731
	c0.029,0.283,0.033,0.502,0.062,0.786l15.81,0.766l8.348,14.492l-16.171,34.218l0.708,0.335l23.505-49.737l22.786-7.133l-0.235-0.76
	l-22.113,6.964l16.255-34.395l30.234-7.67c6.609,3.069,20.379,9.523,28.47,13.347c0.148-0.201,0.297-0.401,0.466-0.646
	c-8.577-4.053-23.275-10.945-27.717-12.991l41.784-10.594l0.439-0.928l-73.237,18.553l32.427-68.614l23.383-1.984l-0.081-0.741
	l-22.925,1.93l13.748-29.091l45.146-12.9c0.016-0.262-0.012-0.547,0.004-0.81l-22.452,6.427c4.314-7.642,10.481-18.52,10.972-19.099
	l-0.267-0.234l0.021-0.045l0.235-0.267l-0.331-0.102c-0.24,0.049-0.479,0.097-11.695,20.055l-21.193,6.047l35.833-75.821
	c-0.096-0.37-0.166-0.565-0.166-0.565s-0.194,0.071-0.542,0.23l-28.123,59.508l-1.966-43.331c-0.237,0.158-0.474,0.316-0.756,0.454
	l2.012,44.38l-29.439,62.293l-26.201-62.086c-0.214,0.223-0.363,0.424-0.577,0.647L1162.028,592.496z"/><path fill="#FF8CDD" d="M174.23,682.483c-15.595-9.645-32.131-16.191-48.35-20.644c-0.301-0.071-0.535-0.158-0.836-0.229
	c-5.314-1.447-10.607-2.651-15.81-3.626c2.128,8.273-0.094,15.12-4.896,21.118c1.627-9.975-2.219-17.7-11.084-23.354
	c-0.374-0.231-0.842-0.406-1.277-0.445c-13.272-1.596-25.595-2.03-36.188-1.913c-0.312,0.038-0.596,0.034-0.881,0.031
	c-18.363,0.315-31.239,2.356-34.046,2.804c-0.379,0.055-0.58,0.102-0.58,0.102s0.048,0.202,0.168,0.564
	c1.221,3.975,9.261,29.186,26.859,57.718c0.156,0.212,0.288,0.466,0.444,0.678c4.91,7.866,10.52,15.993,16.912,23.971
	c7.27,7.025,15.45,6.162,20.401,4.106c-3.056,3.918-6.728,6.418-11.847,5.955c11.066,12.135,24.054,23.672,39.234,33.06
	c0.416,0.257,0.873,0.54,1.315,0.756l0.873,0.54c8.02,4.788,16.286,8.807,24.637,12.131c0.275,0.113,0.509,0.199,0.742,0.288
	c58.189,23.049,119.313,13.647,125.803,12.543c0.378-0.054,0.579-0.102,0.579-0.102s-0.048-0.201-0.168-0.565
	c-1.07-3.477-7.088-22.378-19.852-45.622c-0.13-0.253-0.246-0.439-0.376-0.693c-4.037-7.325-8.738-15.062-14.202-22.869
	c-0.271-0.398-0.543-0.796-0.815-1.193c-7.275-10.363-15.772-20.793-25.713-30.564c-2.749,4.165-5.117,7.531-5.117,7.531
	l-4.493-16.349C189.081,692.588,181.924,687.241,174.23,682.483z M34.863,677.65c-0.379-1.155,0.285-2.413,1.413-2.75
	c1.154-0.378,2.37,0.258,2.749,1.412c0.378,1.154-0.259,2.371-1.413,2.749C36.484,679.399,35.241,678.803,34.863,677.65z
	 M39.328,683.631c1.003-1.623,3.09-2.115,4.712-1.112c1.622,1.003,2.156,3.115,1.152,4.738c-1.003,1.621-3.157,2.13-4.779,1.127
	C38.791,687.381,38.326,685.253,39.328,683.631z M93.919,741.597c0.695-1.123,2.15-1.43,3.272-0.736
	c1.081,0.669,1.456,2.108,0.762,3.231c-0.694,1.123-2.149,1.43-3.231,0.761C93.599,744.159,93.224,742.719,93.919,741.597z
	 M96.916,752.648c1.208-1.954,3.766-2.557,5.679-1.374c1.955,1.209,2.558,3.766,1.35,5.72c-1.184,1.914-3.741,2.516-5.696,1.308
	C96.336,757.12,95.733,754.562,96.916,752.648z M113.726,663.178c0.335-0.541,1.008-0.699,1.547-0.365
	c0.541,0.334,0.742,1.033,0.407,1.574c-0.334,0.54-1.049,0.673-1.59,0.339C113.551,664.391,113.393,663.717,113.726,663.178z
	 M88.199,664.293c0.772-1.247,2.387-1.629,3.635-0.857c1.247,0.771,1.628,2.387,0.857,3.635c-0.772,1.248-2.388,1.628-3.635,0.857
	C87.808,667.156,87.427,665.541,88.199,664.293z M94.601,672.162c0.308-0.499,1.007-0.699,1.548-0.365s0.715,1.075,0.406,1.573
	c-0.335,0.541-1.074,0.715-1.615,0.381C94.4,673.417,94.266,672.704,94.601,672.162z"/><path fill="#FFF" d="M131.44,693.104l12.792-13.247l0.521,0.553l-13.158,13.653l6.13,34.434l34.768,21.502l-6.504-39.035
	l0.715-0.133l6.662,39.708l60.262,37.268l-2.639-50.213c0.272,0.397,0.544,0.796,0.815,1.193l1.685,31.86l12.517-8.991
	c0.13,0.253,0.246,0.439,0.376,0.693l-12.847,9.246l0.883,16.7l32.189,19.907l-0.412,0.666l-46.787-28.935l-22.998,6.417
	l-0.217-0.766l22.341-6.191l-32.355-20.01l-29.539,10.019c-3.874,6.171-11.915,19.08-16.621,26.691
	c-0.233-0.089-0.468-0.174-0.742-0.288c4.99-8.068,13.57-21.849,16.183-25.983l-40.82,13.851l-0.873-0.54l71.539-24.291
	l-64.545-39.917l-20.697,11.06l-0.335-0.666l20.283-10.857L92.646,701.54l-44.895,13.746c-0.156-0.211-0.287-0.465-0.444-0.678
	l22.333-6.827c-7.778-4.064-18.872-9.833-19.599-10.052l0.097-0.342l-0.042-0.026l-0.342-0.096L49.976,697
	c0.227-0.09,0.455-0.179,20.725,10.46L91.773,701l-71.325-44.109c-0.121-0.362-0.168-0.564-0.168-0.564s0.202-0.047,0.58-0.102
	l55.978,34.619l-21.932-37.423c0.285,0.003,0.57,0.007,0.881-0.031l22.465,38.328l58.598,36.239l-11.807-66.346
	c0.301,0.071,0.535,0.158,0.836,0.229L131.44,693.104z"/><path fill="#B9A3FF" d="M596.571,371.345l3.103,1.239l-1.619,2.366c0,0,3.891-2.352,6.853-2.383
	c2.422-0.025,5.498,0.378,5.498,0.378l-2.139-2.292l1.987-1.121C606.159,368.259,601.55,369.059,596.571,371.345z"/><path fill="#B9A3FF" d="M888.308,328.289l3.103,1.239l-1.619,2.366c0,0,3.891-2.352,6.853-2.383
	c2.422-0.025,5.498,0.378,5.498,0.378l-2.138-2.292l1.987-1.121C897.896,325.202,893.286,326.003,888.308,328.289z"/><path fill="#FFB5E9" d="M281.234,518.223l0.874,3.287l-2.823,0.078c0,0,4.165,1.797,5.952,4.213
	c1.461,1.975,2.976,4.743,2.976,4.743l0.527-3.121l2.064,0.966C289.367,524.265,285.994,520.953,281.234,518.223z"/><path fill="#FFB5E9" d="M789.971,597.001l0.874,3.287l-2.823,0.078c0,0,4.165,1.798,5.952,4.213
	c1.461,1.975,2.976,4.743,2.976,4.743l0.527-3.122l2.064,0.966C798.103,603.043,794.731,599.731,789.971,597.001z"/><path fill="#FFB5E9" d="M811.551,329.49l0.874,3.287l-2.823,0.078c0,0,4.165,1.798,5.952,4.213c1.461,1.975,2.976,4.743,2.976,4.743
	l0.527-3.121l2.064,0.966C819.683,335.532,816.311,332.22,811.551,329.49z"/><path fill="#FFB5E9" d="M1090.312,401.299l3.276-0.614l-0.162,2.884c0,0,2.102-4.093,4.606-5.71
	c2.047-1.323,4.872-2.633,4.872-2.633l-2.997-0.8l1.115-2.022C1096.884,393.52,1093.373,396.678,1090.312,401.299z"/><path fill="#FFB5E9" d="M687.162,556.777l3.276-0.613l-0.162,2.883c0,0,2.102-4.092,4.606-5.71c2.047-1.323,4.872-2.633,4.872-2.633
	l-2.997-0.8l1.115-2.022C693.733,548.998,690.223,552.156,687.162,556.777z"/><path fill="#FFB5E9" d="M355.491,418.761l3.276-0.613l-0.162,2.883c0,0,2.102-4.093,4.606-5.71c2.047-1.323,4.872-2.633,4.872-2.633
	l-2.997-0.8l1.115-2.022C362.063,410.982,358.552,414.14,355.491,418.761z"/><path fill="#FFB5E9" d="M1056.124,750.523l3.276-0.614l-0.162,2.883c0,0,2.102-4.093,4.606-5.71
	c2.047-1.323,4.872-2.633,4.872-2.633l-2.997-0.8l1.115-2.022C1062.695,742.744,1059.184,745.902,1056.124,750.523z"/><path fill="#FFB5E9" d="M931.88,753.137l3.276-0.613l-0.162,2.883c0,0,2.102-4.093,4.606-5.71c2.047-1.323,4.872-2.633,4.872-2.633
	l-2.997-0.8l1.115-2.022C938.452,745.358,934.941,748.516,931.88,753.137z"/><polygon fill="#FFB5E9" points="296.348 319.252 287.988 313.306 285.26 324.291"/><polygon fill="#FFB5E9" points="352.206 548.335 343.846 542.389 341.118 553.374"/><polygon fill="#FFB5E9" points="316.531 660.239 308.171 654.293 305.443 665.277"/><polygon fill="#B9A3FF" points="361.644 351.063 354.585 346.196 364.382 343.032"/><polygon fill="#B9A3FF" points="950.365 439.131 943.307 434.264 953.104 431.101"/><polygon fill="#B9A3FF" points="1152.38 691.269 1145.321 686.402 1155.118 683.239"/><polygon fill="#B9A3FF" points="1132.167 528.669 1131.332 537.334 1123.957 530.019"/><polygon fill="#B9A3FF" points="939.607 635.321 938.772 643.985 931.396 636.67"/><path fill="#FFB5E9" d="M488.833,604.016c0-2.296,1.82-4.157,4.065-4.157c2.245,0,4.065,1.861,4.065,4.157
	c0,2.296-1.82,4.158-4.065,4.158C490.653,608.174,488.833,606.312,488.833,604.016z"/><path fill="#FFB5E9" d="M558.285,306.228c0-2.296,1.82-4.158,4.065-4.158c2.245,0,4.065,1.861,4.065,4.158
	c0,2.296-1.82,4.158-4.065,4.158C560.105,310.385,558.285,308.524,558.285,306.228z"/><path fill="#FFB5E9" d="M883.482,387.321c0-2.296,1.82-4.157,4.065-4.157c2.245,0,4.065,1.861,4.065,4.157
	c0,2.296-1.82,4.158-4.065,4.158C885.302,391.479,883.482,389.617,883.482,387.321z"/><path fill="#FFB5E9" d="M1088.478,472.987c0-2.296,1.82-4.157,4.066-4.157c2.245,0,4.065,1.861,4.065,4.157
	c0,2.296-1.82,4.158-4.065,4.158C1090.298,477.144,1088.478,475.283,1088.478,472.987z"/><path fill="#FFB5E9" d="M1030.522,626.2c0-2.296,1.82-4.158,4.066-4.158c2.245,0,4.065,1.862,4.065,4.158
	c0,2.296-1.82,4.158-4.065,4.158C1032.343,630.357,1030.522,628.496,1030.522,626.2z"/><path fill="#FFB5E9" d="M645.806,718.472l-1.883,2.75l-1.924-2.154c0,0,1.407,4.381,0.78,7.295
	c-0.513,2.383-1.584,5.307-1.584,5.307l2.685-1.553l0.641,2.218C646.658,728.619,646.908,723.903,645.806,718.472z"/><path fill="#FFB5E9" d="M744.759,652.854l-1.883,2.75l-1.924-2.154c0,0,1.407,4.38,0.78,7.295c-0.513,2.383-1.584,5.307-1.584,5.307
	l2.685-1.553l0.641,2.218C745.611,663.001,745.861,658.285,744.759,652.854z"/><polygon fill="#B9A3FF" points="873.061 682.996 867.526 676.278 877.914 676.237"/><path fill="#B9A3FF" d="M280.979,405.708c0-2.296,1.82-4.157,4.065-4.157c2.245,0,4.065,1.861,4.065,4.157
	c0,2.296-1.82,4.158-4.065,4.158C282.799,409.865,280.979,408.004,280.979,405.708z"/><path fill="#B9A3FF" d="M607.086,586.486c0-2.296,1.82-4.158,4.065-4.158c2.245,0,4.065,1.861,4.065,4.158
	c0,2.296-1.82,4.158-4.065,4.158C608.906,590.644,607.086,588.783,607.086,586.486z"/><path fill="#B9A3FF" d="M1015.197,536.244c0-2.296,1.82-4.158,4.066-4.158c2.245,0,4.065,1.861,4.065,4.158
	c0,2.296-1.82,4.158-4.065,4.158C1017.017,540.402,1015.197,538.541,1015.197,536.244z"/><path fill="#B9A3FF" d="M794.996,545.167c0-2.553,1.836-4.623,4.102-4.623c2.265,0,4.102,2.07,4.102,4.623
	c0,2.554-1.836,4.624-4.102,4.624C796.832,549.79,794.996,547.72,794.996,545.167z"/><path fill="#B9A3FF" d="M705.996,335.65c0-2.553,1.836-4.623,4.102-4.623c2.265,0,4.102,2.07,4.102,4.623
	c0,2.554-1.837,4.624-4.102,4.624C707.832,340.274,705.996,338.204,705.996,335.65z"/><path fill="#B9A3FF" d="M249.719,622.042c0-2.296,1.82-4.158,4.065-4.158c2.245,0,4.065,1.861,4.065,4.158
	c0,2.296-1.82,4.158-4.065,4.158C251.539,626.2,249.719,624.338,249.719,622.042z"/><path fill="#B9A3FF" d="M1077.315,310.405c0-2.296,1.82-4.158,4.065-4.158c2.245,0,4.065,1.862,4.065,4.158
	c0,2.296-1.82,4.158-4.065,4.158C1079.135,314.563,1077.315,312.702,1077.315,310.405z"/><path fill="#FFB5E9" d="M879.963,556.896c1.827,1.784,2.025,4.544,0.442,6.165c-1.583,1.621-4.347,1.488-6.174-0.295
	c-1.827-1.784-2.025-4.544-0.442-6.165C875.372,554.979,878.136,555.112,879.963,556.896z"/><path fill="#FFB5E9" d="M951.445,538.461l2.733-1.922l1.098,2.649c0,0,0.155-4.544,1.747-7.042c1.302-2.042,3.32-4.399,3.32-4.399
	l-3.088,0.54l0.146-2.277C954.097,528.744,952.25,533.042,951.445,538.461z"/><path fill="#FFB5E9" d="M845.21,481.225l-1.496-3.055l2.754-0.625c0,0-4.434-0.954-6.657-2.975
	c-1.818-1.653-3.841-4.074-3.841-4.074l0.09,3.164l-2.212-0.546C836.058,476.88,840.01,479.473,845.21,481.225z"/><path fill="#FFB5E9" d="M610.406,445.896l-3.095,1.239l-0.402-2.86c0,0-1.266,4.423-3.408,6.497c-1.751,1.696-4.267,3.53-4.267,3.53
	l3.095,0.202l-0.7,2.2C605.472,454.804,608.301,451.023,610.406,445.896z"/><polygon fill="#B9A3FF" points="676.511 421.514 684.382 424.915 675.386 429.923"/><path fill="#FFB5E9" d="M763.409,438.481c0.446,2.252-0.977,4.432-3.18,4.868c-2.202,0.436-4.35-1.036-4.796-3.288
	c-0.446-2.253,0.977-4.432,3.179-4.869C760.815,434.756,762.963,436.228,763.409,438.481z"/><path fill="#B9A3FF" d="M601.103,532.211c0.446,2.252-0.977,4.432-3.18,4.869c-2.202,0.436-4.35-1.036-4.796-3.288
	c-0.446-2.252,0.977-4.432,3.179-4.869C598.51,528.487,600.657,529.959,601.103,532.211z"/><path fill="#B9A3FF" d="M397.941,557.56c0-2.296,1.82-4.158,4.065-4.158c2.245,0,4.065,1.861,4.065,4.158
	c0,2.296-1.82,4.158-4.065,4.158C399.761,561.717,397.941,559.856,397.941,557.56z"/><path fill="#B9A3FF" d="M522.72,477.976l-3.284-0.612l1.128-2.636c0,0-3.36,3.064-6.259,3.67c-2.371,0.495-5.467,0.698-5.467,0.698
	l2.543,1.832l-1.731,1.486C513.915,482.868,518.281,481.187,522.72,477.976z"/><path fill="#8667EB" d="M243.65,602.849c-7.835-16.579-18.145-31.069-29.328-43.632c-0.214-0.223-0.363-0.424-0.577-0.647
	c-3.671-4.106-7.456-7.996-11.291-11.646c-2.717,8.098-8.308,12.633-15.6,15.052c6.793-7.483,7.771-16.057,3.411-25.625
	c-0.188-0.398-0.485-0.798-0.829-1.068c-10.265-8.562-20.367-15.633-29.319-21.299c-0.282-0.138-0.519-0.296-0.756-0.454
	c-15.577-9.729-27.491-15.024-30.089-16.176c-0.348-0.16-0.542-0.23-0.542-0.23s-0.07,0.195-0.166,0.565
	c-1.139,3.999-8.114,29.525-8.878,63.04c0.016,0.263-0.012,0.547,0.004,0.81c-0.162,9.271,0.122,19.143,1.143,29.314
	c2.276,9.85,9.608,13.578,14.881,14.548c-4.696,1.624-9.138,1.723-13.18-1.452c2.68,16.203,7.297,32.951,14.923,49.087
	c0.209,0.442,0.439,0.928,0.692,1.35l0.439,0.928c4.122,8.381,8.87,16.251,14.067,23.585c0.169,0.245,0.319,0.444,0.466,0.646
	c36.274,51.004,92.67,76.381,98.716,78.986c0.346,0.161,0.542,0.23,0.542,0.23s0.069-0.194,0.167-0.565
	c0.995-3.499,6.232-22.632,8.173-49.078c0.029-0.283,0.033-0.502,0.062-0.786c0.6-8.342,0.867-17.392,0.531-26.915
	c-0.011-0.481-0.022-0.963-0.034-1.445c-0.463-12.653-1.916-26.028-4.938-39.635c-4.573,1.999-8.391,3.533-8.391,3.533l5.128-16.161
	C250.61,619.408,247.516,611.027,243.65,602.849z M129.359,522.948c0.311-1.175,1.552-1.869,2.682-1.538
	c1.174,0.311,1.848,1.506,1.537,2.681c-0.311,1.174-1.507,1.848-2.681,1.538C129.768,525.297,129.049,524.122,129.359,522.948z
	 M129.85,530.396c1.725-0.815,3.743-0.093,4.558,1.632c0.815,1.724,0.113,3.787-1.612,4.602c-1.723,0.814-3.808,0.068-4.623-1.656
	C127.359,533.25,128.127,531.211,129.85,530.396z M144.103,608.735c1.194-0.564,2.582-0.03,3.146,1.163
	c0.543,1.15,0.075,2.561-1.119,3.125c-1.193,0.564-2.582,0.03-3.125-1.12C142.441,610.711,142.91,609.299,144.103,608.735z
	 M140.603,619.638c2.077-0.982,4.551-0.095,5.512,1.938c0.982,2.078,0.096,4.552-1.981,5.533c-2.034,0.961-4.508,0.075-5.49-2.003
	C137.683,623.073,138.569,620.6,140.603,619.638z M203.398,553.725c0.576-0.272,1.226-0.038,1.497,0.536
	c0.272,0.575,0.061,1.27-0.515,1.542c-0.574,0.271-1.247-0.006-1.518-0.581C202.59,554.648,202.824,553.997,203.398,553.725z
	 M181.374,540.769c1.326-0.627,2.889-0.068,3.516,1.259c0.627,1.326,0.067,2.889-1.259,3.516c-1.327,0.627-2.889,0.067-3.516-1.259
	C179.488,542.958,180.048,541.396,181.374,540.769z M182.463,550.855c0.53-0.25,1.225-0.039,1.497,0.536
	c0.272,0.575,0.015,1.291-0.516,1.541c-0.576,0.272-1.29,0.016-1.562-0.559C181.611,551.798,181.888,551.127,182.463,550.855z"/><path fill="#FFF" d="M201.972,588.472l17.941-4.152l0.136,0.747l-18.469,4.293l-13.596,32.224l17.467,36.96l15.787-36.288
	l0.673,0.277l-16.021,36.939l30.275,64.062l25.113-43.562c0.012,0.482,0.023,0.964,0.034,1.445l-15.925,27.646l15.394-0.731
	c-0.029,0.283-0.033,0.502-0.062,0.786l-15.81,0.766l-8.348,14.491l16.171,34.219l-0.708,0.335l-23.505-49.737l-22.786-7.133
	l0.235-0.76l22.113,6.964l-16.255-34.395l-30.234-7.67c-6.609,3.069-20.379,9.523-28.47,13.347
	c-0.148-0.201-0.298-0.401-0.466-0.646c8.577-4.053,23.275-10.945,27.717-12.991l-41.784-10.594l-0.439-0.928l73.237,18.553
	l-32.427-68.614l-23.383-1.984l0.081-0.741l22.925,1.93l-13.748-29.091l-45.146-12.9c-0.016-0.262,0.012-0.547-0.004-0.81
	l22.452,6.427c-4.314-7.643-10.481-18.52-10.972-19.099l0.267-0.234l-0.021-0.045l-0.235-0.267l0.331-0.102
	c0.24,0.048,0.479,0.097,11.695,20.055l21.193,6.047l-35.833-75.821c0.096-0.37,0.166-0.565,0.166-0.565s0.194,0.07,0.542,0.23
	l28.123,59.508l1.966-43.331c0.237,0.158,0.474,0.316,0.756,0.454l-2.012,44.38l29.439,62.293l26.201-62.086
	c0.214,0.223,0.363,0.424,0.577,0.647L201.972,588.472z"/><path fill="#FCC" d="M997.132,341.632c2.442-2.8,10.487,8.746,11.884,8.038c2.953-1.496-3.364-13.773-0.857-15.359
	c3.627-2.296,6.727,13.804,8.503,13.764c2.9-0.065,0.438-15.374,4.579-13.625c4.142,1.749-0.793,18.141,3.71,19.927
	c4.503,1.786,2.122-10.06,6.867-8.707c4.077,1.163,0.35,10.588-0.351,14.833c-0.8,4.85-4.29,10.25-5.333,11.076l-10.979,3.028
	c-4.098-0.601-9.144-3.04-11.906-10.139c-2.104-5.408-10.9-10.008-10.246-11.573c1.372-3.286,9.192,4.255,11.085,1.701
	C1005.185,353.115,995.395,343.622,997.132,341.632z"/><path fill="#FCC" d="M1112.674,499.039c-12.79-3.519-34.38-18.072-51.537-31.986l-33.713-97.062
	c-8.466,1.511-10.988,2.633-16.167,3.482c0,0,9.178,96.511,17.332,109.219c7.568,11.794,56.54,61.387,56.54,61.387L1112.674,499.039
	z"/><path fill="#FFD994" d="M1046.766,510.933c9.346-6.747,15.2-23.47,29.94-34.551c11.253,9.309,22.613,19.417,32.674,19.904
	l7.313,27.689l-30.351,22.827c0,0-4.664,2.955-7.136,0.621C1076.735,545.088,1046.766,510.933,1046.766,510.933z"/><path fill="#3B3B78" d="M774.605,490.92c-2.757-2.016-5.235-3.858-6.564-6.144c1.406-6.829,6.928-18.075-3.567-25.629
	c-4.917-3.528-6.715-8.633-7.459-14.296c0.068-0.459,0.133-0.907,0.206-1.392c1.454-9.616,3.886-25.71-7.198-35.826
	c-15.44-14.086-32.675-4.37-34.982-2.958c-13.758-9.893-31.264,0.67-37.32,13.265c-4.305,9.013-1.728,21.292-4.232,30.931
	c-1.575,1.946-3.584,4.032-5.719,6.213c-4.578,4.674-9.31,9.508-9.862,13.603c-0.58,4.297,0.69,8.878,1.709,12.559
	c0.854,3.077,1.658,5.985,0.85,7.082c-0.36,0.486-1.25,1.212-2.282,2.053c-4.155,3.388-11.452,9.355-9.772,19.335
	c-0.971,14.158,18.41,19.02,18.41,19.02h97.649c0,0,16.175-4.039,18.237-15.505C787.893,500.669,780.901,495.52,774.605,490.92z
	 M666.825,459.148c-12.615,9.052-2.129,23.429-3.399,29.123c-0.886,4.076-6.939,4.794-11.189,10.577
	c1.994-3.103,4.82-5.427,6.984-7.193c1.164-0.95,2.084-1.699,2.564-2.352c1.286-1.736,0.46-4.718-0.587-8.49
	c-1.032-3.722-2.2-7.941-1.665-11.902c0.477-3.558,5.018-8.196,9.407-12.678c1.055-1.076,2.066-2.126,3.04-3.161
	C670.828,455.385,669.186,457.449,666.825,459.148z M735.766,402.097c4.234,0.78,8.746,2.727,13.153,6.75
	c8.314,7.586,8.509,18.988,7.538,28.012c-0.216-6.627-0.26-13.389-2.918-18.917C750.238,411.032,743.469,404.754,735.766,402.097z
	 M767.833,488.27c-0.07-0.325-0.092-0.687-0.092-1.066c1.551,1.847,3.686,3.422,5.899,5.039c5.089,3.719,10.267,7.551,8.982,15.482
	C779.929,493.115,769.046,493.847,767.833,488.27z"/><path fill="#F9CBCB" d="M731.008,519.949c-0.696,0.901-1.433,1.761-2.129,2.58c-8.766,9.871-17.614,10.444-26.461-2.58l3.399-20.644
	l1.27-7.741l18.8-0.123L731.008,519.949z"/><path fill="#EBB0B0" d="M731.252,519.949c-0.696,0.901-1.433,1.761-2.129,2.58c-0.78-3.072-3.728-13.353-7.824-18.596
	c-3.317-4.219-10.813-4.792-15.237-4.628l1.27-7.741l18.8-0.123L731.252,519.949z"/><path fill="#F9CBCB" d="M750.401,444.447c-0.466,2.79-1.084,5.424-2.015,7.904l-0.078-5.657v-0.93c0,0,0.078-0.077,0.233-0.232
	C748.851,445.377,749.471,444.913,750.401,444.447z"/><path fill="#EBB0B0" d="M684.533,445.765l-0.078,2.325l-0.077,4.184c-1.084-2.402-1.86-4.882-2.248-7.284
	c0-0.233,0.077-0.465,0.155-0.62h0.078c0.542,0.31,1.008,0.542,1.395,0.852C684.223,445.532,684.533,445.765,684.533,445.765z"/><path fill="#F9CBCB" d="M749.355,454.399c0,8.834-2.866,17.281-7.517,24.022c-6.2,9.144-15.808,15.266-26.037,15.266
	c-9.455,0-20.613-7.284-27.586-17.901c-4.185-6.199-6.821-13.638-6.821-21.388c0-20.845,15.266-37.738,33.943-37.738
	C734.089,416.661,749.355,433.554,749.355,454.399z"/><path fill="#EBB0B0" d="M683.838,459.875c8.816-9.311,16.276-19.189,16.551-32.068c13.328,25.943,45.414,10.888,46.829,41.025
	c3.944-4.268,4.579-21.388,2.825-29.387c-1.781-8.132-27.337-24.162-31.605-25.068c-4.268-0.905-19.532,2.588-19.532,2.588
	l-12.87,5.1l-5.207,13.217C680.829,435.282,679.294,451.282,683.838,459.875z"/><path fill="#F9CBCB" d="M684.379,452.274l-0.311,13.948c-0.154-0.077-0.232-0.155-0.387-0.155c0,0,0,0,0-0.077
	c-0.775-0.31-1.473-0.62-2.169-0.93c-15.887-8.292-10.462-19.605-6.82-21.465c2.713-1.317,5.656-0.31,7.593,0.775
	c-0.078,0.155-0.155,0.387-0.155,0.62C682.519,447.392,683.294,449.872,684.379,452.274z"/><path fill="#F9CBCB" d="M750.09,464.518c-0.464,0.233-0.928,0.388-1.472,0.62v-1.085l-0.232-11.701
	c0.931-2.48,1.549-5.114,2.015-7.904v-0.077c1.937-1.008,5.037-2.17,7.827-0.775C761.947,445.455,765.279,457.621,750.09,464.518z"/><path fill="#3B3B78" d="M682.388,458.217c9.263-9.783,17.1-20.161,17.388-33.691c14.002,27.256,47.713,11.438,49.199,43.102
	c4.144-4.484,4.811-22.471,2.968-30.874c-1.872-8.543-28.72-25.386-33.205-26.337c-4.484-0.951-20.519,2.718-20.519,2.718
	l-13.522,5.359l-5.47,13.886C679.227,432.379,677.615,449.188,682.388,458.217z"/><path fill="#3B3B78" d="M701.929,456.514c-0.238,0-0.464,0.054-0.681,0.134c-0.04-0.053-0.081-0.104-0.138-0.138
	c-0.04-0.018-0.077-0.044-0.114-0.069c-0.023-0.021-0.045-0.044-0.066-0.067c-0.019-0.029-0.036-0.059-0.052-0.089
	c-0.014-0.043-0.03-0.085-0.037-0.13c-0.015-0.065-0.045-0.121-0.089-0.169c-0.035-0.054-0.082-0.097-0.139-0.128
	c-0.057-0.036-0.119-0.056-0.185-0.059c-0.066-0.015-0.132-0.012-0.198,0.009c-0.12,0.039-0.236,0.113-0.297,0.229
	c-0.017,0.04-0.034,0.079-0.05,0.119c-0.024,0.088-0.024,0.176,0,0.264c0.018,0.114,0.062,0.216,0.108,0.321
	c0.03,0.068,0.067,0.131,0.112,0.19c0.069,0.091,0.136,0.179,0.225,0.251c0.017,0.013,0.035,0.021,0.052,0.034
	c-0.155,0.159-0.298,0.337-0.419,0.538c-0.023-0.011-0.043-0.028-0.069-0.035c-0.018-0.005-0.035-0.012-0.053-0.018
	c-0.057-0.027-0.111-0.06-0.163-0.096c-0.04-0.035-0.077-0.072-0.112-0.112c-0.041-0.061-0.083-0.122-0.112-0.19
	c0.015,0.036,0.03,0.072,0.046,0.108c-0.016-0.065-0.045-0.121-0.089-0.169c-0.035-0.054-0.081-0.097-0.14-0.128
	c-0.057-0.036-0.118-0.056-0.185-0.059c-0.066-0.015-0.132-0.012-0.199,0.009c-0.12,0.039-0.236,0.114-0.297,0.228
	c-0.017,0.04-0.033,0.079-0.051,0.119c-0.023,0.088-0.023,0.176,0,0.264c0.05,0.119,0.098,0.234,0.173,0.339
	c0.075,0.104,0.155,0.207,0.251,0.292c0.182,0.161,0.39,0.28,0.621,0.353c-0.08,0.306-0.135,0.628-0.135,0.968
	c0,1.719,1.11,3.113,2.481,3.113c1.37,0,2.481-1.394,2.481-3.113C704.41,457.907,703.299,456.514,701.929,456.514z"/><path fill="#3B3B78" d="M732.88,457.187c-0.086-0.086-0.228-0.151-0.352-0.146c-0.128,0.006-0.262,0.048-0.352,0.146
	c-0.026,0.034-0.052,0.067-0.078,0.101c-0.044,0.076-0.065,0.158-0.067,0.246c0.004-0.031,0.009-0.063,0.013-0.094
	c-0.013,0.093-0.042,0.181-0.074,0.268c-0.032,0.065-0.068,0.126-0.11,0.185c-0.048,0.055-0.099,0.107-0.154,0.155
	c-0.04,0.028-0.084,0.051-0.127,0.075c-0.097-0.199-0.204-0.389-0.334-0.556c0.012-0.009,0.027-0.012,0.038-0.022
	c0.028-0.025,0.054-0.051,0.078-0.08c0.048-0.058,0.097-0.118,0.136-0.183c0.058-0.096,0.104-0.206,0.132-0.315
	c0.019-0.075,0.028-0.155,0.036-0.232c0.004-0.035,0.005-0.071,0.004-0.106c-0.003-0.078-0.015-0.156-0.029-0.232
	c-0.007-0.039-0.018-0.076-0.032-0.113c-0.016-0.065-0.045-0.121-0.089-0.169c-0.035-0.054-0.081-0.097-0.139-0.128
	c-0.107-0.062-0.264-0.089-0.383-0.05c-0.12,0.039-0.237,0.113-0.297,0.228c-0.06,0.112-0.097,0.259-0.05,0.383
	c0.009,0.024,0.013,0.049,0.019,0.073c0.001,0.02,0.001,0.04,0,0.06c-0.005,0.022-0.011,0.045-0.018,0.066
	c-0.009,0.017-0.018,0.033-0.029,0.049c-0.014,0.015-0.027,0.031-0.042,0.045c-0.024,0.021-0.037,0.055-0.055,0.083
	c-0.325-0.194-0.686-0.312-1.071-0.312c-1.37,0-2.481,1.371-2.481,3.063c0,1.692,1.11,3.063,2.481,3.063
	c1.37,0,2.481-1.371,2.481-3.063c0-0.21-0.018-0.414-0.051-0.611c0.247-0.1,0.482-0.24,0.656-0.432
	c0.121-0.134,0.233-0.284,0.308-0.449c0.045-0.098,0.089-0.199,0.118-0.303c0.031-0.111,0.046-0.227,0.057-0.342
	C733.038,457.42,732.962,457.268,732.88,457.187z"/><path fill="#F0B4B4" d="M717.796,464.088c-0.285-0.739-0.572-1.477-0.861-2.214c-0.098-0.25-0.334-0.424-0.612-0.347
	c-0.238,0.065-0.446,0.36-0.347,0.612c0.253,0.645,0.504,1.291,0.754,1.937c0.117,0.302,0.236,0.604,0.349,0.908
	c0.093,0.252,0.195,0.52,0.197,0.792c0.004,0.448-0.395,0.597-0.784,0.636c-0.629,0.064-1.254-0.071-1.864,0.156
	c-0.252,0.094-0.423,0.336-0.347,0.612c0.066,0.242,0.359,0.441,0.612,0.347c0.642-0.239,1.351-0.042,2.016-0.178
	c0.626-0.128,1.196-0.552,1.326-1.205C718.376,465.428,718.047,464.739,717.796,464.088z"/><path fill="#3B3B78" d="M703.88,450.74c-1.735-0.82-3.928-0.432-5.221,1.012c-0.426,0.476,0.275,1.181,0.703,0.703
	c0.982-1.097,2.675-1.49,4.016-0.856c0.243,0.115,0.536,0.067,0.68-0.178C704.185,451.204,704.124,450.855,703.88,450.74z"/><path fill="#3B3B78" d="M732.797,453.524c-0.668-0.633-1.383-1.277-2.28-1.555c-0.927-0.287-1.938-0.072-2.658,0.578
	c-0.2,0.18-0.183,0.52,0,0.703c0.198,0.198,0.503,0.18,0.703,0c0.501-0.452,1.203-0.506,1.817-0.28
	c0.667,0.246,1.208,0.777,1.715,1.256C732.559,454.667,733.264,453.965,732.797,453.524z"/><path fill="#FFF" d="M701.379,457.476c-0.64,0-0.641,0.994,0,0.994C702.019,458.47,702.02,457.476,701.379,457.476z"/><path fill="#FFF" d="M728.844,458.059c-0.64,0-0.641,0.994,0,0.994C729.484,459.054,729.484,458.059,728.844,458.059z"/><path fill="#F09C9C" d="M726.712,472.095c-2.243,2.403-5.348,3.988-8.637,4.274c-3.418,0.297-6.894-0.757-9.575-2.899
	c-0.495-0.396-1.203,0.303-0.704,0.703c2.881,2.303,6.585,3.514,10.278,3.19c3.552-0.311,6.908-1.961,9.34-4.565
	C727.851,472.331,727.15,471.626,726.712,472.095z"/><path fill="#F9CBCB" d="M1109.38,496.286c0.592,0.766,1.219,1.498,1.81,2.194c7.455,8.394,14.979,8.882,22.502-2.194l-2.891-17.556
	l-1.08-6.583l-15.988-0.105L1109.38,496.286z"/><path fill="#F0B4B4" d="M1109.55,495.339c1.319-1.102,2.715-5.989,6.198-10.447c2.821-3.587,11.754-3.491,15.516-3.351l-1.499-9.498
	h-16.24L1109.55,495.339z"/><path fill="#F9CBCB" d="M1146.918,452.691c0.801,0,1.601-0.067,2.335-0.2c0.533,0,1.067-0.067,1.535-0.2
	c11.808-2.068,12.542-11.876,10.274-14.277c-3.003-3.202-8.606-1.134-8.606-1.134L1146.918,452.691z"/><path fill="#F9CBCB" d="M1150.849,438.605c0,17.921-12.76,37.647-28.115,37.647c-15.702,0-30.338-19.726-30.338-37.647
	c0-17.921,13.085-32.449,29.227-32.449C1137.764,406.156,1150.849,420.684,1150.849,438.605z"/><path fill="#3B3B78" d="M1090.365,424.154c-3.173-0.035-5.113-2.362-8.217-3.985c0,4.62,2.469,9.662,8.11,11.532
	c-0.387,2.01-0.316,10.332,2.963,16.574c-0.847-2.715,3.032-23.063,8.639-29.128c3.421,3.456,1.375,12.025,1.375,12.025
	c10.262-7.229,8.217-20.489,8.217-20.489c4.585,2.151,3.809,9.345,3.809,9.345c3.773-2.433,4.902-11.496,4.902-11.496
	c4.901,4.726,0,17.526,0,17.526c12.483-4.901,16.785-12.941,16.785-12.941c1.129,11.214,13.083,26.378,14.176,27.753
	c0,0,0-0.035,0.035-0.035c0.388-0.741,0.917-1.693,1.446-2.821c0.07-0.105,0.106-0.211,0.141-0.317
	c3.068-6.523,6.807-18.584-2.398-28.881c-1.869-10.932-8.957-16.292-23.24-16.926c-15.339-0.706-25.178,13.647-42.387,7.652
	c0,0,0.036,6.912,5.677,9.239c0,0-8.252,0.212-10.508-4.372C1079.892,404.406,1080.949,419.076,1090.365,424.154z"/><path fill="#3B3B78" d="M1135.247,437.654c0.239,0,0.464,0.054,0.681,0.134c0.04-0.052,0.081-0.104,0.138-0.138
	c0.04-0.018,0.077-0.044,0.114-0.069c0.023-0.021,0.045-0.044,0.067-0.067c0.019-0.029,0.036-0.059,0.052-0.089
	c0.014-0.043,0.03-0.085,0.037-0.13c0.015-0.065,0.045-0.121,0.089-0.169c0.035-0.054,0.082-0.097,0.139-0.128
	c0.057-0.036,0.119-0.056,0.185-0.059c0.066-0.015,0.132-0.012,0.198,0.009c0.12,0.039,0.236,0.114,0.297,0.228
	c0.017,0.04,0.033,0.079,0.05,0.119c0.024,0.088,0.024,0.176,0,0.264c-0.018,0.114-0.062,0.216-0.108,0.321
	c-0.03,0.068-0.067,0.131-0.112,0.19c-0.069,0.091-0.136,0.179-0.225,0.251c-0.017,0.013-0.035,0.022-0.052,0.034
	c0.155,0.159,0.298,0.337,0.419,0.538c0.023-0.011,0.043-0.028,0.068-0.035c0.018-0.005,0.036-0.013,0.053-0.018
	c0.057-0.027,0.111-0.06,0.163-0.096c0.04-0.035,0.077-0.072,0.112-0.112c0.041-0.061,0.083-0.122,0.112-0.19
	c-0.015,0.036-0.03,0.072-0.046,0.108c0.016-0.065,0.045-0.121,0.089-0.169c0.035-0.054,0.082-0.097,0.14-0.128
	c0.057-0.036,0.118-0.056,0.185-0.059c0.066-0.015,0.132-0.012,0.199,0.009c0.12,0.039,0.236,0.113,0.297,0.229
	c0.017,0.04,0.033,0.079,0.05,0.119c0.023,0.088,0.023,0.176,0,0.264c-0.05,0.119-0.098,0.234-0.173,0.339
	c-0.075,0.104-0.155,0.207-0.251,0.292c-0.182,0.161-0.39,0.28-0.621,0.353c0.08,0.306,0.135,0.628,0.135,0.967
	c0,1.719-1.11,3.113-2.481,3.113c-1.37,0-2.481-1.394-2.481-3.113C1132.766,439.047,1133.877,437.654,1135.247,437.654z"/><path fill="#3B3B78" d="M1104.295,438.327c0.086-0.086,0.228-0.151,0.352-0.146c0.128,0.006,0.262,0.048,0.351,0.146
	c0.026,0.034,0.051,0.067,0.078,0.101c0.044,0.076,0.065,0.158,0.067,0.246c-0.004-0.031-0.009-0.063-0.013-0.094
	c0.013,0.093,0.042,0.181,0.074,0.268c0.032,0.065,0.069,0.126,0.11,0.186c0.047,0.055,0.099,0.107,0.154,0.155
	c0.04,0.028,0.084,0.051,0.127,0.075c0.097-0.199,0.204-0.389,0.333-0.556c-0.012-0.009-0.027-0.011-0.038-0.022
	c-0.028-0.025-0.055-0.051-0.078-0.08c-0.048-0.058-0.097-0.118-0.136-0.183c-0.058-0.097-0.104-0.206-0.131-0.315
	c-0.019-0.075-0.028-0.155-0.036-0.231c-0.004-0.035-0.005-0.071-0.004-0.106c0.003-0.078,0.015-0.156,0.029-0.232
	c0.007-0.039,0.018-0.076,0.032-0.113c0.016-0.065,0.045-0.121,0.089-0.169c0.035-0.054,0.082-0.097,0.139-0.128
	c0.107-0.062,0.264-0.089,0.383-0.05c0.12,0.039,0.236,0.113,0.297,0.229c0.06,0.112,0.097,0.259,0.051,0.383
	c-0.009,0.024-0.013,0.049-0.019,0.073c-0.001,0.02-0.001,0.04,0,0.06c0.005,0.022,0.011,0.045,0.018,0.066
	c0.009,0.017,0.018,0.033,0.029,0.049c0.014,0.015,0.027,0.031,0.042,0.045c0.024,0.021,0.037,0.055,0.055,0.083
	c0.325-0.194,0.685-0.311,1.071-0.311c1.37,0,2.481,1.371,2.481,3.063c0,1.692-1.11,3.063-2.481,3.063
	c-1.37,0-2.481-1.371-2.481-3.063c0-0.21,0.018-0.414,0.051-0.611c-0.247-0.1-0.482-0.24-0.656-0.432
	c-0.121-0.134-0.233-0.284-0.308-0.449c-0.045-0.098-0.089-0.199-0.118-0.303c-0.032-0.111-0.046-0.227-0.057-0.342
	C1104.137,438.56,1104.214,438.408,1104.295,438.327z"/><path fill="#F0B4B4" d="M1120.72,445.377c0.285-0.739,0.572-1.477,0.861-2.214c0.098-0.25,0.333-0.424,0.612-0.347
	c0.238,0.066,0.446,0.36,0.347,0.612c-0.253,0.645-0.504,1.291-0.754,1.937c-0.116,0.302-0.236,0.604-0.349,0.908
	c-0.093,0.252-0.195,0.52-0.197,0.792c-0.004,0.448,0.395,0.597,0.784,0.636c0.629,0.064,1.254-0.071,1.865,0.156
	c0.251,0.094,0.423,0.336,0.347,0.612c-0.067,0.242-0.359,0.441-0.612,0.347c-0.642-0.239-1.351-0.042-2.016-0.178
	c-0.626-0.128-1.196-0.552-1.326-1.205C1120.141,446.717,1120.469,446.028,1120.72,445.377z"/><path fill="#3B3B78" d="M1133.295,431.88c1.735-0.82,3.928-0.432,5.221,1.012c0.426,0.475-0.275,1.181-0.703,0.703
	c-0.982-1.097-2.675-1.49-4.016-0.856c-0.243,0.115-0.536,0.067-0.68-0.178C1132.99,432.344,1133.052,431.995,1133.295,431.88z"/><path fill="#3B3B78" d="M1104.378,434.664c0.668-0.633,1.383-1.277,2.28-1.555c0.927-0.287,1.938-0.072,2.658,0.578
	c0.199,0.18,0.183,0.52,0,0.703c-0.198,0.198-0.503,0.18-0.703,0c-0.501-0.452-1.203-0.506-1.817-0.28
	c-0.667,0.246-1.208,0.777-1.715,1.256C1104.617,435.807,1103.912,435.105,1104.378,434.664z"/><path fill="#FFF" d="M1135.797,438.616c0.64,0,0.641,0.994,0,0.994C1135.157,439.61,1135.156,438.616,1135.797,438.616z"/><path fill="#FFF" d="M1108.332,439.199c0.64,0,0.641,0.994,0,0.994C1107.692,440.194,1107.691,439.199,1108.332,439.199z"/><path fill="#3B3B78" d="M1128.249,457.525c-0.211,1.666-1.027,3.143-2.221,4.205c-0.165,0.147-0.337,0.285-0.517,0.416
	c-1.116,0.81-2.489,1.289-3.974,1.289c-1.612,0-3.092-0.563-4.253-1.504c-1.326-1.073-2.237-2.638-2.459-4.417
	c-0.051-0.406,0.329-0.73,0.724-0.626c0.381,0.101,0.763,0.194,1.144,0.276c3.25,0.706,6.507,0.737,9.772,0.001
	c0.351-0.078,0.701-0.166,1.052-0.263C1127.913,456.792,1128.3,457.116,1128.249,457.525z"/><path fill="#FFF" d="M1126.465,457.165L1126.465,457.165c0,0.903-0.647,1.68-1.537,1.833c-2.262,0.39-4.497,0.392-6.706,0.006
	c-0.886-0.155-1.529-0.932-1.529-1.832v-0.009C1119.943,457.869,1123.2,457.9,1126.465,457.165z"/><path fill="#FF73D6" d="M1125.511,462.145c-1.116,0.81-2.489,1.289-3.974,1.289c-1.612,0-3.092-0.563-4.253-1.504
	c0.793-0.935,2.301-1.568,4.031-1.568C1123.175,460.362,1124.778,461.093,1125.511,462.145z"/><path fill="#FFD994" d="M1133.693,496.286c0,0,10.514,1.143,19.752,6.383c12.369,7.016,15.738,14.264,15.729,26.07
	c-0.011,15.207-26.173,16.641-26.173,16.641l-43.281,0.778c0,0-38.522-3.891-39.106-3.891s1.946-7.004,1.946-7.004
	s-1.955-42.707,19.277-38.976c9.373,1.647,27.544,0,27.544,0C1117.192,505.037,1124.728,505.003,1133.693,496.286z"/><path fill="#3B3B78" d="M460.133,558.214c-17.163-28.87-38.76-18.714-41.614-57.323c-1.144-15.487-14.397-25.591-20.103-39.227
	c-6.266-14.309-7.853-30.204-14.875-44.243c-13.689-27.368-58.903-30.534-64.788-10.401c0,0-14.831-1.529-21.866,14.736
	c-7.293,13.899-6.545,25.599-12.811,39.908c-5.705,13.63-17.547,23.916-20.101,39.228c-7.117,42.664-32.123,39.97-41.176,58.4
	c-6.45,13.13-4.783,33.843,9.7,43.328c10.573,6.924,18.378,8.659,24.169,19.511c10.435,20.533,28.731,1.488,45.03,8.17
	c27.959,11.462,52.895,9.216,79.047-0.019c16.619-5.869,34.618,12.433,45.078-8.154c5.769-10.858,14.047-19.839,26.21-23.217
	C466.7,595.229,467.632,570.829,460.133,558.214z"/><path fill="#3B3B78" d="M319.236,407.146c-29.793-3.18-25.387,24.172-29.931,44.312c-1.171,5.176-3.101,10.443-6.611,14.498
	c-10.245,11.494-26.356,21.26-18.615,39.013c-9.001-17.591,7.024-28.461,17.263-40.103c3.357-3.98,5.051-8.815,6.181-13.822
	C292.049,430.53,288.753,402.354,319.236,407.146z"/><path fill="#3B3B78" d="M385.549,423.704c3.789,23.24,19.119,41.273,33.654,58.797c7.057,9.531,1.873,21.445,2.909,32.125
	c0.95,9.169,4.946,18.99,14.279,22.316c10.778,4.81,24.106,8.326,29.937,19.707c10.687,18.464,5.162,49.014-17.835,54.427
	c22.291-5.988,27.316-35.776,16.606-53.765c-5.964-10.968-18.794-13.994-29.453-18.763c-9.862-3.509-14.408-13.946-15.329-23.758
	c-1.16-10.484,4.255-22.031-2.436-31.412C403.582,465.682,388.421,447.103,385.549,423.704z"/><path fill="#F9CBCB" d="M371.609,463.706c-0.444,0.222-0.888,0.371-1.408,0.593v-1.038l-0.222-11.197
	c0.891-2.373,1.482-4.894,1.928-7.563v-0.074c1.854-0.964,4.82-2.077,7.489-0.742C382.955,445.465,386.143,457.106,371.609,463.706z
	"/><path fill="#F9CBCB" d="M353.859,502.774c-0.592,0.766-1.219,1.498-1.81,2.194c-7.455,8.394-14.979,8.882-22.503-2.194l2.891-17.556
	l1.08-6.583l15.988-0.105L353.859,502.774z"/><path fill="#F0B4B4" d="M353.689,501.827c-1.319-1.102-2.715-5.989-6.198-10.447c-2.821-3.587-11.754-3.491-15.516-3.351
	l1.499-9.498h16.24L353.689,501.827z"/><path fill="#F9CBCB" d="M370.351,438.567c-0.396,2.372-0.922,4.613-1.713,6.722l-0.066-4.811v-0.791c0,0,0.066-0.066,0.198-0.198
	C369.033,439.358,369.56,438.963,370.351,438.567z"/><path fill="#F0B4B4" d="M314.337,439.688l-0.066,1.977l-0.066,3.559c-0.922-2.043-1.582-4.152-1.912-6.195
	c0-0.197,0.066-0.395,0.132-0.527h0.066c0.461,0.263,0.857,0.461,1.186,0.725C314.073,439.49,314.337,439.688,314.337,439.688z"/><path fill="#F9CBCB" d="M373.783,448.549c0,8.456-2.744,16.536-7.192,22.991c-2.341,3.454-5.19,6.454-8.383,8.818
	c-0.005,0.005-0.014,0.009-0.018,0.014c-4.892,3.632-10.595,5.776-16.513,5.776c-9.047,0-19.724-6.972-26.398-17.132
	c-4.003-5.932-6.528-13.05-6.528-20.467c0-11.03,4.471-20.906,11.488-27.525l0.05-0.051c5.662-5.327,12.977-8.534,20.943-8.534
	C359.175,412.44,373.783,428.605,373.783,448.549z"/><path fill="#F0B4B4" d="M373.783,448.549c0,8.456-2.744,16.536-7.192,22.991c-2.341,3.454-5.19,6.454-8.383,8.818
	c17.879-15.075,4.518-35.852-5.103-39.092c-7.707-2.595-9.582-11.689-12.286-17.562c-3.833-8.326-20.581-2.68-20.581-2.68
	l0.05-0.051c5.662-5.327,12.977-8.534,20.943-8.534C359.175,412.44,373.783,428.605,373.783,448.549z"/><path fill="#F9CBCB" d="M314.13,450.952l-0.297,13.347c-0.148-0.074-0.222-0.148-0.37-0.148c0,0,0,0,0-0.074
	c-0.742-0.297-1.41-0.593-2.076-0.89c-15.202-7.934-10.011-18.76-6.526-20.54c2.596-1.261,5.412-0.297,7.266,0.742
	c-0.074,0.148-0.148,0.371-0.148,0.593C312.351,446.28,313.093,448.653,314.13,450.952z"/><path fill="#3B3B78" d="M343.121,409.128c-0.354,0.581-19.668,3.313-19.668,3.313l-1.127,5.252
	c-6.273,4.665-10.855,11.918-11.662,19.781c-1.067,11.119,9.277,21.444,4.174,32.577c9.055-17.614-14.761-29.911,7.248-51.241
	l-0.154,0.72c30.596-8.433,17.29,9.681,37.103,18.647c13.039,4.421,10.426,28.498,5.46,36.162
	c5.035-4.024,14.558-20.76,11.694-43.434C374.182,415,346.5,403.589,343.121,409.128z"/><path fill="#FF8CDD" d="M705.752,510.641c0,0-47.371,12.342-47.357,32.606c0.011,15.207,38.049,16.487,38.049,16.487l43.281,0.778
	c0,0,38.522-3.891,39.106-3.891c0.584,0-1.945-7.004-1.945-7.004s-0.097-40.916-21.329-37.186
	c-9.373,1.647-25.492-1.791-25.492-1.791C722.253,519.392,714.718,519.357,705.752,510.641z"/><path fill="#FFD994" d="M400.629,539.944c-2.484,3.52-4.807,6.788-6.849,9.664c-4.073,0.402-9.051,0.905-13.778,1.378
	c-8.659,0.865-16.483,1.659-16.483,1.659l-43.284-0.774c0,0-38.035-1.287-38.044-16.493c0-2.685,0.824-5.239,2.273-7.633
	l0.583-0.895c10.218-15.145,44.501-24.076,44.501-24.076c8.961,8.719,16.503,8.749,24.307,0c0,0,16.121,3.439,25.494,1.79
	c13.184-2.313,18.212,12.581,20.143,24.206C400.267,533.497,400.538,537.681,400.629,539.944z"/><path fill="#FCC" d="M469.401,345.367c-2.442-2.801-10.487,8.746-11.884,8.038c-2.953-1.496,3.364-13.773,0.857-15.359
	c-3.627-2.296-6.727,13.804-8.503,13.764c-2.901-0.065-0.438-15.374-4.579-13.625c-4.141,1.75,0.793,18.141-3.71,19.927
	c-4.503,1.786-2.122-10.06-6.867-8.707c-4.077,1.163-0.35,10.588,0.351,14.833c0.8,4.85,4.29,10.25,5.333,11.076l10.979,3.028
	c4.098-0.601,9.144-3.04,11.906-10.139c2.104-5.408,10.9-10.008,10.246-11.573c-1.372-3.286-9.192,4.255-11.085,1.701
	C461.347,356.85,471.137,347.357,469.401,345.367z"/><path fill="#FFD994" d="M457.751,377.74c0,0-11.656,95.981-19.811,108.682c-2.343,3.661-8.277,12.239-15.347,22.346
	c-6.999,10.006-15.115,21.501-21.964,31.176c-2.484,3.52-4.807,6.788-6.849,9.664c-4.073,0.402-9.051,0.905-13.778,1.378
	l-11.937-22.014l-14.21-26.198c12.792-3.52,26.59-10.348,51.54-31.99l32.041-97.419c0.553,0.101,1.096,0.201,1.629,0.302
	c6.386,1.217,11.706,2.675,16.101,3.59C456.072,377.438,456.926,377.609,457.751,377.74z"/><path fill="#FCC" d="M883.542,389.13c-1.636-3.336-12.391,5.74-13.557,4.695c-2.466-2.208,6.808-12.436,4.797-14.616
	c-2.911-3.155-10.065,11.598-11.77,11.1c-2.785-0.812,3.55-14.965-0.903-14.345c-4.453,0.62-3.921,17.73-8.733,18.292
	c-4.812,0.562,0.549-10.267-4.385-10.185c-4.239,0.07-3.074,10.138-3.494,14.42c-0.48,4.892,1.496,11.011,2.29,12.078l9.824,5.762
	c4.114,0.478,9.619-0.574,14.122-6.718c3.43-4.68,13.116-6.852,12.888-8.533c-0.477-3.529-9.979,1.736-11.148-1.221
	C872.795,398.142,884.705,391.502,883.542,389.13z"/><path fill="#FF8CDD" d="M731.252,511.339c13.265-0.095,28.357-3.122,58.051-17.584l56.129-85.833
	c7.789,3.647,13.705,7.315,18.489,9.473c0,0-36.055,89.709-47.216,99.878c-10.358,9.439-69.937,58.702-69.937,58.702
	L731.252,511.339z"/><path fill="#FCC" d="M540.786,397.333c1.478-3.41,12.647,5.151,13.763,4.053c2.359-2.322-7.385-12.103-5.478-14.375
	c2.76-3.288,10.598,11.112,12.279,10.535c2.744-0.942-4.248-14.782,0.229-14.372c4.477,0.41,4.749,17.526,9.582,17.861
	c4.833,0.335-1.031-10.23,3.901-10.38c4.238-0.129,3.546,9.983,4.167,14.24c0.709,4.864-0.977,11.069-1.72,12.172l-9.543,6.217
	c-4.087,0.671-9.636-0.122-14.422-6.048c-3.646-4.514-13.423-6.228-13.275-7.918c0.31-3.548,10.05,1.265,11.078-1.743
	C551.944,405.831,539.736,399.757,540.786,397.333z"/><path fill="#FF8CDD" d="M698.645,512.257c-13.255,0.528-28.472-1.788-58.813-14.839l-60.097-83.103
	c-7.609,4.008-13.346,7.95-18.024,10.33c0,0,40.228,87.917,51.853,97.551c10.79,8.942,72.616,55.354,72.616,55.354L698.645,512.257z
	"/><path fill="#A58AFF" d="M1135.177,819.172H233.834c-13.201,0-23.902-10.701-23.902-23.902V557.375
	c0-13.201,10.702-23.903,23.903-23.903h901.343c13.201,0,23.902,10.702,23.902,23.902v237.894
	C1159.079,808.47,1148.378,819.172,1135.177,819.172z"/><path fill="#8667EB" d="M268.551,626.524h31.725l11.422,60.515l16.717-60.515h31.611l16.759,60.434l11.435-60.434h31.561
	l-23.828,108.095h-32.755l-18.959-68.057l-18.885,68.057H292.6L268.551,626.524z"/><path fill="#8667EB" d="M430.619,626.524h89.514v23.079h-56.038v17.18h51.983v22.047h-51.983v21.309h57.66v24.48h-91.136V626.524z"/><path fill="#8667EB" d="M539.746,626.524h33.403v81.477h52.131v26.618h-85.533V626.524z"/><path fill="#8667EB" d="M709.852,690.378l29.273,8.848c-1.966,8.21-5.064,15.067-9.29,20.572
	c-4.229,5.506-9.475,9.659-15.743,12.461c-6.267,2.802-14.243,4.203-23.926,4.203c-11.749,0-21.346-1.708-28.794-5.121
	c-7.447-3.414-13.875-9.419-19.281-18.016c-5.408-8.597-8.111-19.601-8.111-33.012c0-17.881,4.757-31.623,14.268-41.227
	c9.512-9.604,22.968-14.406,40.37-14.406c13.616,0,24.321,2.754,32.112,8.258c7.79,5.506,13.578,13.961,17.364,25.365l-29.494,6.562
	c-1.033-3.292-2.114-5.701-3.244-7.226c-1.87-2.555-4.154-4.522-6.858-5.898c-2.704-1.376-5.728-2.065-9.069-2.065
	c-7.57,0-13.371,3.045-17.401,9.133c-3.049,4.517-4.572,11.612-4.572,21.283c0,11.981,1.819,20.193,5.457,24.636
	c3.637,4.444,8.748,6.665,15.336,6.665c6.39,0,11.219-1.793,14.489-5.383C706.006,702.422,708.378,697.211,709.852,690.378z"/><path fill="#8667EB" d="M751.145,680.645c0-17.647,4.915-31.385,14.747-41.217c9.831-9.831,23.521-14.747,41.07-14.747
	c17.992,0,31.854,4.83,41.587,14.489c9.733,9.659,14.599,23.189,14.599,40.591c0,12.634-2.127,22.994-6.378,31.08
	c-4.253,8.087-10.397,14.378-18.434,18.876c-8.038,4.497-18.053,6.747-30.047,6.747c-12.192,0-22.281-1.941-30.268-5.825
	c-7.989-3.882-14.465-10.028-19.429-18.434C753.626,703.797,751.145,693.279,751.145,680.645z M784.547,680.792
	c0,10.913,2.028,18.754,6.083,23.521c4.056,4.769,9.573,7.152,16.554,7.152c7.176,0,12.731-2.334,16.664-7.005
	c3.931-4.67,5.898-13.051,5.898-25.144c0-10.175-2.053-17.609-6.157-22.305c-4.106-4.694-9.673-7.041-16.701-7.041
	c-6.736,0-12.142,2.385-16.222,7.152C786.586,661.892,784.547,669.782,784.547,680.792z"/><path fill="#8667EB" d="M880.77,626.524h43.928l16.94,65.771l16.819-65.771h43.901v108.095h-27.355v-82.436l-21.079,82.436h-24.76
	l-21.038-82.436v82.436H880.77V626.524z"/><path fill="#8667EB" d="M1023.594,626.524h89.514v23.079h-56.038v17.18h51.983v22.047h-51.983v21.309h57.66v24.48h-91.136V626.524z"/><path fill="#FFF" d="M261.444,622.274h31.725l11.422,60.515l16.717-60.515h31.611l16.759,60.434l11.435-60.434h31.561
	L388.846,730.37h-32.755l-18.959-68.057l-18.885,68.057h-32.755L261.444,622.274z"/><path fill="#FFF" d="M423.512,622.274h89.514v23.079h-56.038v17.18h51.983v22.047h-51.983v21.309h57.66v24.48h-91.136V622.274z"/><path fill="#FFF" d="M532.639,622.274h33.403v81.477h52.131v26.618h-85.533V622.274z"/><path fill="#FFF" d="M702.745,686.129l29.273,8.848c-1.966,8.21-5.064,15.067-9.29,20.572
	c-4.229,5.506-9.475,9.659-15.743,12.461c-6.267,2.802-14.243,4.203-23.927,4.203c-11.749,0-21.346-1.708-28.794-5.121
	c-7.447-3.414-13.875-9.419-19.281-18.016c-5.408-8.597-8.111-19.601-8.111-33.012c0-17.881,4.757-31.623,14.268-41.227
	c9.512-9.604,22.968-14.406,40.37-14.406c13.616,0,24.321,2.754,32.112,8.258c7.79,5.506,13.578,13.961,17.364,25.365l-29.494,6.562
	c-1.033-3.292-2.114-5.701-3.244-7.226c-1.87-2.555-4.154-4.522-6.858-5.898c-2.704-1.376-5.727-2.065-9.069-2.065
	c-7.57,0-13.371,3.045-17.401,9.133c-3.049,4.517-4.572,11.612-4.572,21.283c0,11.981,1.819,20.193,5.457,24.636
	c3.637,4.444,8.748,6.665,15.336,6.665c6.39,0,11.219-1.794,14.489-5.383C698.899,698.173,701.271,692.962,702.745,686.129z"/><path fill="#FFF" d="M744.038,676.395c0-17.647,4.915-31.385,14.747-41.217c9.831-9.831,23.521-14.747,41.07-14.747
	c17.992,0,31.854,4.83,41.587,14.489c9.733,9.659,14.599,23.189,14.599,40.591c0,12.634-2.127,22.994-6.378,31.08
	c-4.253,8.087-10.397,14.378-18.434,18.876c-8.038,4.497-18.054,6.747-30.047,6.747c-12.192,0-22.281-1.941-30.268-5.825
	c-7.989-3.882-14.465-10.028-19.429-18.434C746.519,699.548,744.038,689.029,744.038,676.395z M777.439,676.543
	c0,10.913,2.028,18.754,6.083,23.521c4.055,4.769,9.573,7.152,16.554,7.152c7.176,0,12.731-2.334,16.664-7.005
	c3.931-4.669,5.898-13.051,5.898-25.144c0-10.175-2.053-17.609-6.157-22.304c-4.105-4.694-9.673-7.041-16.701-7.041
	c-6.736,0-12.142,2.385-16.222,7.152C779.479,657.643,777.439,665.533,777.439,676.543z"/><path fill="#FFF" d="M873.663,622.274h43.928l16.94,65.772l16.819-65.772h43.901V730.37h-27.355v-82.436l-21.079,82.436h-24.76
	l-21.038-82.436v82.436h-27.356V622.274z"/><path fill="#FFF" d="M1016.487,622.274h89.514v23.079h-56.038v17.18h51.983v22.047h-51.983v21.309h57.661v24.48h-91.136V622.274z
	"/><path fill="#8667EB" d="M233.051,594.994v108.612c0,6.471,10.057,6.482,10.057,0V594.994
	C243.108,588.523,233.051,588.513,233.051,594.994z"/><path fill="#8667EB" d="M237.555,717.992c-6.471,0-6.482,10.057,0,10.057C244.026,728.049,244.037,717.992,237.555,717.992z"/><path fill="#8667EB" d="M286.909,799.382c-12.958,0.315-25.919,0.142-38.86-0.599c-2.544-0.146-5.912,0.464-6.849-2.323
	c-0.793-2.356-0.029-6.188,0.008-8.604c0.096-6.263,0.192-12.525,0.288-18.788c0.099-6.474-9.957-6.476-10.057,0
	c-0.124,8.137-0.399,16.287-0.374,24.424c0.018,5.939,1.493,11.761,7.633,14.037c6.66,2.468,15.277,1.668,22.297,1.873
	c8.637,0.252,17.276,0.247,25.914,0.037C293.369,809.282,293.393,799.225,286.909,799.382z"/><path fill="#8667EB" d="M841.777,798.139H511.218c-6.471,0-6.482,10.057,0,10.057h330.559
	C848.248,808.196,848.259,798.139,841.777,798.139z"/><path fill="#8667EB" d="M928.942,798.068h-59.815c-6.471,0-6.482,10.057,0,10.057h59.815
	C935.413,808.125,935.424,798.068,928.942,798.068z"/><path fill="#FFF" d="M228.542,592.125v108.612c0,6.471,10.057,6.482,10.057,0V592.125
	C238.599,585.654,228.542,585.643,228.542,592.125z"/><path fill="#FFF" d="M233.046,715.123c-6.471,0-6.482,10.057,0,10.057C239.517,725.179,239.527,715.123,233.046,715.123z"/><path fill="#FFF" d="M284.202,794.283c-12.958,0.315-25.918,0.142-38.86-0.599c-2.544-0.146-5.912,0.464-6.849-2.323
	c-0.793-2.356-0.029-6.188,0.008-8.604c0.096-6.263,0.192-12.525,0.288-18.788c0.099-6.474-9.957-6.476-10.057,0
	c-0.124,8.137-0.399,16.287-0.374,24.424c0.018,5.939,1.493,11.762,7.633,14.037c6.66,2.468,15.277,1.668,22.297,1.873
	c8.637,0.252,17.276,0.247,25.914,0.037C290.662,804.183,290.686,794.126,284.202,794.283z"/><path fill="#FFF" d="M839.07,793.04H508.511c-6.471,0-6.482,10.057,0,10.057H839.07
	C845.541,803.097,845.552,793.04,839.07,793.04z"/><path fill="#FFF" d="M926.038,794.221h-59.815c-6.471,0-6.482,10.057,0,10.057h59.815
	C932.509,804.277,932.52,794.221,926.038,794.221z"/><path fill="#FCC" d="M973.956,618.527c-2.656-2.599,9.331-9.971,8.704-11.405c-1.325-3.033-13.943,2.572-15.383-0.021
	c-2.085-3.753,14.166-5.927,14.228-7.702c0.101-2.899-15.324-1.315-13.341-5.35c1.983-4.035,18.066,1.828,20.106-2.566
	c2.04-4.394-9.922-2.693-8.3-7.354c1.394-4.004,10.591,0.256,14.789,1.198c4.796,1.076,9.988,4.869,10.753,5.957l2.396,11.134
	c-0.834,4.057-3.557,8.956-10.802,11.307c-5.519,1.791-10.614,10.31-12.14,9.568c-3.203-1.558,4.773-8.934,2.331-10.97
	C985.88,611.143,975.844,620.374,973.956,618.527z"/><path fill="#FCC" d="M1140.5,518.15c-4.244,12.568-22.798,27.309-37.671,43.642L1004,589.905
	c1.024,8.539,2.001,11.12,2.552,16.339c0,0,99.815-7.425,112.969-14.84c12.208-6.882,44.606-45.603,44.606-45.603L1140.5,518.15z"/><path fill="#FFD994" d="M1132.303,587.538c-6.202-9.716-20.061-16.141-30.282-31.491l15.858-22.575l40.072-25.629
	c10.137,8.29,16.645,19.652,5.065,41.169C1159.17,556.158,1132.303,587.538,1132.303,587.538z"/><path fill="#F9CBCB" d="M255.516,531.713c-2.956,5.112-5.827,16.976,15.181,18.094c17.719,0.943,23.751-13.832,17.265-19.966
	C281.476,523.707,261.438,521.471,255.516,531.713z"/><path fill="#3B3B78" d="M327.066,443.939c-0.238,0-0.464,0.054-0.681,0.134c-0.04-0.052-0.08-0.104-0.138-0.138
	c-0.04-0.018-0.077-0.044-0.114-0.069c-0.023-0.021-0.045-0.044-0.067-0.067c-0.019-0.029-0.036-0.059-0.052-0.089
	c-0.014-0.043-0.03-0.085-0.037-0.13c-0.015-0.065-0.045-0.121-0.089-0.169c-0.035-0.054-0.081-0.097-0.139-0.128
	c-0.057-0.036-0.119-0.056-0.185-0.059c-0.066-0.015-0.132-0.012-0.198,0.009c-0.12,0.039-0.237,0.113-0.297,0.228
	c-0.017,0.04-0.033,0.079-0.05,0.119c-0.024,0.088-0.024,0.176,0,0.264c0.018,0.114,0.062,0.216,0.108,0.321
	c0.03,0.068,0.067,0.131,0.112,0.19c0.069,0.091,0.136,0.179,0.225,0.251c0.016,0.013,0.035,0.022,0.052,0.034
	c-0.155,0.159-0.298,0.337-0.42,0.538c-0.023-0.011-0.043-0.028-0.068-0.035c-0.018-0.005-0.035-0.012-0.053-0.018
	c-0.057-0.027-0.111-0.06-0.163-0.096c-0.04-0.035-0.077-0.072-0.112-0.112c-0.041-0.061-0.083-0.122-0.112-0.19
	c0.015,0.036,0.03,0.072,0.046,0.108c-0.015-0.065-0.045-0.121-0.089-0.169c-0.035-0.054-0.081-0.097-0.14-0.128
	c-0.057-0.036-0.118-0.056-0.185-0.059c-0.066-0.015-0.132-0.012-0.199,0.009c-0.12,0.039-0.236,0.113-0.297,0.228
	c-0.017,0.04-0.034,0.079-0.051,0.119c-0.023,0.088-0.023,0.176,0,0.264c0.05,0.119,0.098,0.234,0.173,0.339
	c0.075,0.104,0.155,0.207,0.251,0.292c0.182,0.161,0.39,0.28,0.621,0.353c-0.08,0.306-0.135,0.628-0.135,0.968
	c0,1.719,1.11,3.113,2.481,3.113c1.37,0,2.481-1.394,2.481-3.113C329.546,445.333,328.436,443.939,327.066,443.939z"/><path fill="#3B3B78" d="M358.017,444.613c-0.086-0.086-0.228-0.151-0.352-0.146c-0.128,0.006-0.262,0.048-0.352,0.146
	c-0.026,0.034-0.051,0.067-0.078,0.101c-0.044,0.076-0.065,0.158-0.067,0.246c0.004-0.031,0.009-0.063,0.013-0.094
	c-0.013,0.093-0.042,0.181-0.074,0.268c-0.032,0.065-0.068,0.126-0.11,0.186c-0.048,0.055-0.099,0.107-0.154,0.155
	c-0.04,0.028-0.084,0.051-0.127,0.075c-0.097-0.199-0.204-0.389-0.334-0.556c0.012-0.009,0.027-0.011,0.038-0.022
	c0.028-0.025,0.054-0.051,0.078-0.08c0.048-0.058,0.097-0.118,0.136-0.183c0.058-0.097,0.104-0.206,0.132-0.315
	c0.019-0.075,0.028-0.155,0.036-0.231c0.004-0.035,0.005-0.071,0.004-0.106c-0.003-0.078-0.015-0.156-0.029-0.232
	c-0.007-0.039-0.018-0.076-0.032-0.113c-0.015-0.065-0.045-0.121-0.089-0.169c-0.035-0.054-0.081-0.097-0.139-0.128
	c-0.107-0.062-0.264-0.089-0.383-0.05c-0.12,0.039-0.237,0.113-0.297,0.228c-0.06,0.112-0.097,0.259-0.05,0.383
	c0.009,0.024,0.013,0.049,0.019,0.073c0.001,0.02,0.001,0.04,0.001,0.06c-0.005,0.022-0.011,0.045-0.018,0.067
	c-0.009,0.016-0.018,0.033-0.029,0.049c-0.014,0.015-0.027,0.031-0.042,0.045c-0.024,0.021-0.037,0.055-0.055,0.083
	c-0.325-0.194-0.686-0.311-1.071-0.311c-1.37,0-2.481,1.371-2.481,3.063s1.11,3.063,2.481,3.063c1.37,0,2.481-1.372,2.481-3.063
	c0-0.21-0.018-0.414-0.051-0.611c0.247-0.1,0.482-0.24,0.656-0.432c0.121-0.134,0.233-0.284,0.308-0.449
	c0.045-0.098,0.089-0.199,0.118-0.303c0.032-0.111,0.046-0.227,0.057-0.342C358.175,444.846,358.098,444.694,358.017,444.613z"/><path fill="#F0B4B4" d="M343.595,455.19c-0.285-0.739-0.572-1.477-0.861-2.214c-0.098-0.25-0.333-0.424-0.612-0.347
	c-0.238,0.066-0.446,0.36-0.347,0.612c0.253,0.645,0.504,1.291,0.754,1.937c0.117,0.302,0.237,0.604,0.349,0.908
	c0.093,0.252,0.195,0.52,0.197,0.792c0.004,0.448-0.395,0.597-0.784,0.636c-0.629,0.064-1.254-0.071-1.865,0.156
	c-0.251,0.094-0.423,0.336-0.347,0.612c0.067,0.242,0.359,0.441,0.612,0.347c0.642-0.239,1.351-0.042,2.016-0.178
	c0.626-0.128,1.197-0.552,1.326-1.205C344.174,456.53,343.846,455.841,343.595,455.19z"/><path fill="#FFF" d="M342.451,472.211L342.451,472.211c-3.833,0-6.94-3.108-6.939-6.941l0-0.971
	c4.596,2.022,9.225,1.784,13.878,0l0,0.975C349.389,469.105,346.283,472.211,342.451,472.211z"/><path fill="#3B3B78" d="M329.017,438.165c-1.735-0.82-3.928-0.432-5.221,1.012c-0.426,0.475,0.275,1.181,0.703,0.703
	c0.982-1.097,2.675-1.49,4.015-0.856c0.243,0.115,0.537,0.068,0.68-0.178C329.322,438.629,329.261,438.281,329.017,438.165z"/><path fill="#3B3B78" d="M357.934,440.95c-0.668-0.633-1.383-1.277-2.28-1.555c-0.927-0.287-1.938-0.072-2.658,0.578
	c-0.199,0.18-0.183,0.52,0,0.703c0.198,0.198,0.503,0.18,0.703,0c0.501-0.452,1.203-0.506,1.817-0.28
	c0.667,0.246,1.208,0.777,1.715,1.256C357.696,442.093,358.4,441.391,357.934,440.95z"/><path fill="#FFF" d="M326.516,444.901c-0.64,0-0.641,0.994,0,0.994C327.156,445.896,327.157,444.901,326.516,444.901z"/><path fill="#FFF" d="M353.981,445.485c-0.64,0-0.641,0.994,0,0.994C354.62,446.479,354.621,445.485,353.981,445.485z"/><polygon fill="#9676FF" points="444.366 243.404 434.394 215.869 405.381 219.85 438.549 164.949 477.535 188.503"/><polygon fill="#FF8CDD" points="546.864 285.219 530.928 260.649 503.564 271.083 523.471 210.108 566.77 224.244"/><polygon fill="#FFD994" points="662.574 304.254 640.516 284.99 617.058 302.521 619.498 238.425 665.014 240.158"/><polygon fill="#9676FF" points="787.432 302.136 762.678 286.488 742.191 307.413 734.759 243.702 780.001 238.425"/><polygon fill="#FF8CDD" points="904.444 270.334 876.761 260.782 861.62 285.85 839.77 225.543 882.594 210.027"/><polygon fill="#FFD994" points="1002.649 223.152 973.993 217.114 962.085 243.869 932.911 186.745 973.475 166.028"/><path fill="#B9A3FF" d="M706.853,245.438c-4.582,0-9.162-0.063-13.76-0.19c-87.532-2.413-172.43-27.903-245.518-73.714
	c-1.22-0.765-2.434-1.53-3.645-2.294c-26.129-16.473-50.811-32.033-94.935-13.353c-0.416,0.176-0.823,0.359-1.222,0.55
	c1.872,0.866,3.546,1.952,5,3.257c10.45,9.379,10.698,19.127,7.444,25.122c-3.732,6.879-11.894,9.978-20.307,7.714
	c-5.874-1.58-9.652-6.464-10.107-13.065c-0.478-6.94,2.811-15.908,10.806-22.118c-5.425-0.935-12.042-0.468-19.497,1.438
	c-21.258,5.433-41.639,20.268-46.399,33.773c-0.274,0.776-1.126,1.185-1.903,0.911c-0.777-0.274-1.185-1.125-0.911-1.902
	c5.645-16.016,29.079-30.715,48.474-35.671c9.175-2.345,17.241-2.6,23.619-0.834c1.198-0.701,2.477-1.345,3.84-1.922
	c45.56-19.287,70.881-3.324,97.69,13.577c1.208,0.762,2.421,1.526,3.639,2.289c146.373,91.747,335.971,98.199,483.027,16.435
	c64.556-35.893,96.584-39.2,111.852-36.145c0.599-0.384,1.223-0.749,1.867-1.095c12.952-6.939,33.198-4.712,54.158,5.955
	c14.491,7.376,26.91,9.063,36.909,5.014c12.358-5.004,16.67-17.211,16.711-17.333c0.267-0.779,1.112-1.194,1.895-0.927
	c0.78,0.268,1.194,1.116,0.927,1.895c-0.19,0.553-4.809,13.621-18.414,19.13c-10.838,4.388-24.085,2.665-39.383-5.12
	c-19.621-9.986-38.404-12.354-50.537-6.423c0.776,0.263,1.488,0.54,2.141,0.827c7.227,3.166,9.361,7.997,9.991,10.596
	c2.785,11.504-1.765,16.944-4.725,19.163c-4.464,3.345-10.841,3.648-15.874,0.754c-5.002-2.878-7.45-8.134-6.716-14.421
	c0.742-6.34,3.411-11.625,7.81-15.56c-15.562-2.081-46.694,2.677-107.163,36.298C865.914,225.702,787.772,245.436,706.853,245.438z
	 M344.441,158.308c-8.253,5.396-12.133,14.132-11.663,20.952c0.368,5.35,3.25,9.137,7.906,10.389
	c7.051,1.899,13.85-0.616,16.91-6.256c2.71-4.994,2.342-13.259-6.815-21.479C349.035,160.349,346.906,159.145,344.441,158.308z
	 M1044.672,152.472c-4.973,3.565-7.97,8.759-8.72,15.185c-0.59,5.046,1.32,9.233,5.24,11.488c3.95,2.272,9.13,2.043,12.598-0.556
	c4.097-3.071,5.381-8.779,3.614-16.073c-0.499-2.062-2.239-5.915-8.288-8.566C1047.873,153.406,1046.402,152.895,1044.672,152.472z"/></svg>